Mekorot-Vilna-Bold-Italic.ufo
<glyph name="numbersign" format="2">
  <advance width="500"/>
  <unicode hex="0023"/>
  <outline>
    <contour>
      <point x="565.019" y="300.5" type="line"/>
      <point x="536.08" y="192.5" type="line"/>
      <point x="435.829" y="192.5" type="line"/>
      <point x="350.56" y="-17.5" type="line"/>
      <point x="237.228" y="-17.5" type="line"/>
      <point x="322.497" y="192.5" type="line"/>
      <point x="244.829" y="192.5" type="line"/>
      <point x="159.56" y="-17.5" type="line"/>
      <point x="46.2275" y="-17.5" type="line"/>
      <point x="131.497" y="192.5" type="line"/>
      <point x="38.0801" y="192.5" type="line"/>
      <point x="67.0186" y="300.5" type="line"/>
      <point x="176.212" y="300.5" type="line"/>
      <point x="216.038" y="399.5" type="line"/>
      <point x="122.546" y="399.5" type="line"/>
      <point x="151.484" y="507.5" type="line"/>
      <point x="259.807" y="507.5" type="line"/>
      <point x="346.075" y="717.5" type="line"/>
      <point x="458.337" y="717.5" type="line"/>
      <point x="373.067" y="507.5" type="line"/>
      <point x="450.807" y="507.5" type="line"/>
      <point x="537.075" y="717.5" type="line"/>
      <point x="649.337" y="717.5" type="line"/>
      <point x="564.067" y="507.5" type="line"/>
      <point x="649.484" y="507.5" type="line"/>
      <point x="620.546" y="399.5" type="line"/>
      <point x="520.353" y="399.5" type="line"/>
      <point x="480.526" y="300.5" type="line"/>
    </contour>
    <contour>
      <point x="407.038" y="399.5" type="line"/>
      <point x="329.353" y="399.5" type="line"/>
      <point x="289.526" y="300.5" type="line"/>
      <point x="367.212" y="300.5" type="line"/>
    </contour>
  </outline>
</glyph>
<glyph name="dollar" format="2">
  <advance width="570"/>
  <unicode hex="0024"/>
  <outline>
    <contour>
      <point x="622.194" y="463.5" type="line"/>
      <point x="570.549" y="463.5" type="line"/>
      <point x="570.27" y="476.126" type="line" smooth="yes"/>
      <point x="568.339" y="563.729"/>
      <point x="541.484" y="600.84"/>
      <point x="469.547" y="617.83" type="curve"/>
      <point x="421.312" y="437.817" type="line"/>
      <point x="533.809" y="392.686"/>
      <point x="560.314" y="371.207"/>
      <point x="585.556" y="331.988" type="curve" smooth="yes"/>
      <point x="606.254" y="299.831"/>
      <point x="610.153" y="254.35"/>
      <point x="596.734" y="204.272" type="curve" smooth="yes"/>
      <point x="581.283" y="146.606"/>
      <point x="549.71" y="97.6738"/>
      <point x="503.562" y="63.0039" type="curve" smooth="yes"/>
      <point x="462.099" y="31.8545"/>
      <point x="416.52" y="14.2354"/>
      <point x="304.002" y="0.00878906" type="curve"/>
      <point x="277.473" y="-99" type="line"/>
      <point x="187.473" y="-99" type="line"/>
      <point x="213.044" y="-3.56641" type="line"/>
      <point x="167.164" y="-0.670898"/>
      <point x="139.435" y="5.75977"/>
      <point x="66.9434" y="37.8682" type="curve" smooth="yes"/>
      <point x="57.292" y="42.1426" type="line"/>
      <point x="105.121" y="220.643" type="line"/>
      <point x="155.777" y="215.921" type="line"/>
      <point x="156.236" y="205.103" type="line" smooth="yes"/>
      <point x="160.129" y="113.146"/>
      <point x="183.269" y="77.0879"/>
      <point x="229.657" y="62.166" type="curve"/>
      <point x="285.426" y="270.297" type="line"/>
      <point x="170.956" y="334.827"/>
      <point x="134.914" y="395.275"/>
      <point x="159.188" y="485.865" type="curve" smooth="yes"/>
      <point x="176.799" y="551.593"/>
      <point x="225.936" y="608.521"/>
      <point x="295.846" y="641.735" type="curve" smooth="yes"/>
      <point x="333.243" y="660.23"/>
      <point x="358.421" y="665.744"/>
      <point x="393.546" y="670.074" type="curve"/>
      <point x="414.962" y="750" type="line"/>
      <point x="504.962" y="750" type="line"/>
      <point x="483.861" y="671.25" type="line"/>
      <point x="584.541" y="660.009"/>
      <point x="617.74" y="648.55"/>
      <point x="656.537" y="623.552" type="curve" smooth="yes"/>
      <point x="663.822" y="618.857" type="line"/>
    </contour>
    <contour>
      <point x="432.905" y="134" type="curve" smooth="yes"/>
      <point x="443.739" y="174.435"/>
      <point x="437.287" y="188.574"/>
      <point x="362.856" y="219.656" type="curve"/>
      <point x="318.028" y="52.3545" type="line"/>
      <point x="383.899" y="64.7676"/>
      <point x="420.913" y="89.2432"/>
    </contour>
    <contour>
      <point x="307.443" y="554" type="curve" smooth="yes"/>
      <point x="299.803" y="525.483"/>
      <point x="306.334" y="499.824"/>
      <point x="341.643" y="480.101" type="curve"/>
      <point x="379.278" y="620.56" type="line"/>
      <point x="337.771" y="607.238"/>
      <point x="316.604" y="588.184"/>
    </contour>
  </outline>
</glyph>
<glyph name="percent" format="2">
  <advance width="1070"/>
  <unicode hex="0025"/>
  <outline>
    <contour>
      <point x="564.846" y="608.812" type="curve" smooth="yes"/>
      <point x="561.837" y="611.38"/>
      <point x="559.908" y="612.298"/>
      <point x="558.405" y="613.06" type="curve" smooth="yes"/>
      <point x="558.067" y="613.23"/>
      <point x="557.915" y="613.553"/>
      <point x="557.712" y="613.632" type="curve"/>
      <point x="557.501" y="613.632"/>
      <point x="556.125" y="613.517"/>
      <point x="553.752" y="612.7" type="curve" smooth="yes"/>
      <point x="541.134" y="608.361"/>
      <point x="522.779" y="595.938"/>
      <point x="498.233" y="571.207" type="curve" smooth="yes"/>
      <point x="446.415" y="518.999"/>
      <point x="392.311" y="434.983"/>
      <point x="378.78" y="394.885" type="curve" smooth="yes"/>
      <point x="378.56" y="394.231"/>
      <point x="377.976" y="392.288"/>
      <point x="377.8" y="391.633" type="curve" smooth="yes"/>
      <point x="372.312" y="371.153"/>
      <point x="381.66" y="357.5"/>
      <point x="401.17" y="357.5" type="curve" smooth="yes"/>
      <point x="432.413" y="357.5"/>
      <point x="462.393" y="379.509"/>
      <point x="493.544" y="410.888" type="curve" smooth="yes"/>
      <point x="556.304" y="474.105"/>
      <point x="585.739" y="537.366"/>
      <point x="594.215" y="569" type="curve" smooth="yes"/>
      <point x="598.242" y="584.028"/>
      <point x="596.438" y="590.815"/>
      <point x="582.826" y="596.656" type="curve" smooth="yes"/>
      <point x="579.264" y="598.185"/>
      <point x="576.263" y="599.059"/>
      <point x="572.075" y="602.376" type="curve" smooth="yes"/>
      <point x="570.458" y="603.657"/>
      <point x="570.322" y="604.14"/>
    </contour>
    <contour>
      <point x="919.556" y="692" type="curve" smooth="yes"/>
      <point x="991.65" y="692" type="line"/>
      <point x="359.588" y="-8" type="line"/>
      <point x="264.466" y="-8" type="line"/>
      <point x="781.911" y="579.52" type="line"/>
      <point x="743.506" y="569.616"/>
      <point x="715.664" y="567.5"/>
      <point x="697.288" y="567.5" type="curve" smooth="yes"/>
      <point x="685.346" y="567.5"/>
      <point x="675.213" y="568.299"/>
      <point x="665.97" y="569.479" type="curve"/>
      <point x="640.551" y="487.539"/>
      <point x="607.119" y="432.588"/>
      <point x="548.043" y="373.125" type="curve" smooth="yes"/>
      <point x="485.994" y="310.672"/>
      <point x="414.798" y="276.5"/>
      <point x="344.588" y="276.5" type="curve" smooth="yes"/>
      <point x="256.688" y="276.5"/>
      <point x="215.028" y="339.723"/>
      <point x="237.5" y="423.589" type="curve" smooth="yes"/>
      <point x="272.247" y="553.266"/>
      <point x="421.484" y="678"/>
      <point x="554.969" y="678" type="curve" smooth="yes"/>
      <point x="568.412" y="678"/>
      <point x="600.026" y="677.882"/>
      <point x="637.189" y="647.791" type="curve" smooth="yes"/>
      <point x="662.714" y="627.123"/>
      <point x="680.809" y="623"/>
      <point x="718.527" y="623" type="curve" smooth="yes"/>
      <point x="787.594" y="623"/>
      <point x="861.66" y="652.572"/>
      <point x="883.59" y="673.65" type="curve" smooth="yes"/>
      <point x="888.299" y="678.176"/>
      <point x="890.872" y="680.517"/>
      <point x="896.324" y="684.109" type="curve" smooth="yes"/>
      <point x="902.459" y="688.15"/>
      <point x="910.634" y="692"/>
    </contour>
    <contour>
      <point x="946.726" y="252.755" type="curve" smooth="yes"/>
      <point x="954.022" y="279.989"/>
      <point x="945.678" y="303.5"/>
      <point x="923.709" y="303.5" type="curve" smooth="yes"/>
      <point x="911.265" y="303.5"/>
      <point x="890.82" y="300.712"/>
      <point x="850.492" y="262.179" type="curve" smooth="yes"/>
      <point x="783.251" y="217.379"/>
      <point x="723.102" y="134.733"/>
      <point x="714.558" y="102.848" type="curve" smooth="yes"/>
      <point x="707.276" y="75.6719"/>
      <point x="719.67" y="67"/>
      <point x="743.475" y="67" type="curve" smooth="yes"/>
      <point x="764.664" y="67"/>
      <point x="807.369" y="75.5205"/>
      <point x="868.186" y="136.8" type="curve" smooth="yes"/>
      <point x="913.024" y="181.979"/>
      <point x="937.716" y="219.132"/>
    </contour>
    <contour>
      <point x="913.853" y="389.5" type="curve" smooth="yes"/>
      <point x="999.085" y="389.5"/>
      <point x="1037.42" y="337.452"/>
      <point x="1017.34" y="262.508" type="curve" smooth="yes"/>
      <point x="998.868" y="193.575"/>
      <point x="946.14" y="105.787"/>
      <point x="859.897" y="42.0068" type="curve" smooth="yes"/>
      <point x="813.174" y="10.6016"/>
      <point x="746.844" y="-14"/>
      <point x="681.749" y="-14" type="curve" smooth="yes"/>
      <point x="591.449" y="-14"/>
      <point x="547.566" y="46.8994"/>
      <point x="571.439" y="135.995" type="curve" smooth="yes"/>
      <point x="621.981" y="264.669"/>
      <point x="785.154" y="389.5"/>
    </contour>
  </outline>
</glyph>
<glyph name="parenright" format="2">
  <advance width="333"/>
  <unicode hex="0029"/>
  <outline>
    <contour>
      <point x="-43.3232" y="-197.139" type="line"/>
      <point x="-25.7715" y="-131.635" type="line"/>
      <point x="-16.5859" y="-126.439" type="line" smooth="yes"/>
      <point x="50.1074" y="-88.7148"/>
      <point x="79.9209" y="-64.5996"/>
      <point x="109.761" y="-23.6787" type="curve" smooth="yes"/>
      <point x="147.016" y="27.4102"/>
      <point x="187.635" y="116.196"/>
      <point x="228.311" y="268" type="curve" smooth="yes"/>
      <point x="264.437" y="402.824"/>
      <point x="274.042" y="493.612"/>
      <point x="261.965" y="551.488" type="curve" smooth="yes"/>
      <point x="253.205" y="593.472"/>
      <point x="236.261" y="616.535"/>
      <point x="191.992" y="651.321" type="curve" smooth="yes"/>
      <point x="185.407" y="656.496" type="line"/>
      <point x="203.753" y="724.963" type="line"/>
      <point x="226" y="708.992" type="line" smooth="yes"/>
      <point x="311.095" y="647.907"/>
      <point x="344.276" y="606.319"/>
      <point x="371.423" y="532.383" type="curve" smooth="yes"/>
      <point x="400.347" y="453.605"/>
      <point x="401.273" y="361.164"/>
      <point x="375.774" y="266" type="curve" smooth="yes"/>
      <point x="340.354" y="133.811"/>
      <point x="259.514" y="10.4355"/>
      <point x="145.055" y="-84.9229" type="curve" smooth="yes"/>
      <point x="94.7979" y="-126.793"/>
      <point x="57.5586" y="-150.146"/>
      <point x="-13.9316" y="-183.448" type="curve" smooth="yes"/>
    </contour>
  </outline>
</glyph>
<glyph name="asterisk" format="2">
  <advance width="500"/>
  <unicode hex="002A"/>
  <outline>
    <contour>
      <point x="420.232" y="524.259" type="curve"/>
      <point x="440.211" y="538.043"/>
      <point x="453.646" y="549.877"/>
      <point x="481.838" y="579.774" type="curve" smooth="yes"/>
      <point x="516.318" y="616.337"/>
      <point x="535.406" y="626.5"/>
      <point x="562.87" y="626.5" type="curve" smooth="yes"/>
      <point x="597.82" y="626.5"/>
      <point x="624.312" y="596.425"/>
      <point x="614.283" y="559" type="curve" smooth="yes"/>
      <point x="607.321" y="533.017"/>
      <point x="578.503" y="505.062"/>
      <point x="550.308" y="493.943" type="curve" smooth="yes"/>
      <point x="539.88" y="489.832"/>
      <point x="527.745" y="486.325"/>
      <point x="496.498" y="485.51" type="curve" smooth="yes"/>
      <point x="466.821" y="484.736"/>
      <point x="453.84" y="482.455"/>
      <point x="435.055" y="473.7" type="curve"/>
      <point x="452.738" y="465.692"/>
      <point x="466.036" y="463.449"/>
      <point x="498.796" y="460.441" type="curve" smooth="yes"/>
      <point x="520.099" y="458.485"/>
      <point x="551.455" y="455.721"/>
      <point x="565.45" y="436.1" type="curve" smooth="yes"/>
      <point x="568.203" y="432.241"/>
      <point x="570.179" y="427.809"/>
      <point x="571.306" y="423.041" type="curve" smooth="yes"/>
      <point x="573.572" y="413.451"/>
      <point x="572.458" y="402.905"/>
      <point x="569.536" y="392" type="curve" smooth="yes"/>
      <point x="560.021" y="356.487"/>
      <point x="524.85" y="324.5"/>
      <point x="484.949" y="324.5" type="curve" smooth="yes"/>
      <point x="450" y="324.5"/>
      <point x="435.099" y="342.235"/>
      <point x="414.161" y="394.13" type="curve" smooth="yes"/>
      <point x="407.849" y="409.773"/>
      <point x="403.563" y="417.845"/>
      <point x="393.625" y="426.104" type="curve"/>
      <point x="390.499" y="400.529"/>
      <point x="391.872" y="387.847"/>
      <point x="399.228" y="356.974" type="curve" smooth="yes"/>
      <point x="402.568" y="342.951"/>
      <point x="407.132" y="327.048"/>
      <point x="401.761" y="307" type="curve" smooth="yes"/>
      <point x="391.964" y="270.438"/>
      <point x="355.738" y="237.5"/>
      <point x="314.638" y="237.5" type="curve" smooth="yes"/>
      <point x="275.338" y="237.5"/>
      <point x="257.562" y="268.938"/>
      <point x="269.101" y="312" type="curve" smooth="yes"/>
      <point x="275.036" y="334.152"/>
      <point x="284.707" y="347.898"/>
      <point x="301.281" y="367.626" type="curve" smooth="yes"/>
      <point x="321.772" y="392.016"/>
      <point x="329.113" y="403.823"/>
      <point x="335.855" y="423.163" type="curve"/>
      <point x="309.664" y="405.757"/>
      <point x="298.147" y="394.566"/>
      <point x="274.494" y="369.275" type="curve" smooth="yes"/>
      <point x="240.948" y="333.408"/>
      <point x="220.628" y="321.5"/>
      <point x="193.146" y="321.5" type="curve" smooth="yes"/>
      <point x="155.72" y="321.5"/>
      <point x="133.708" y="351.59"/>
      <point x="143.732" y="389" type="curve" smooth="yes"/>
      <point x="151.61" y="418.4"/>
      <point x="177.687" y="461.309"/>
      <point x="265.508" y="462.49" type="curve" smooth="yes"/>
      <point x="291.191" y="462.836"/>
      <point x="302.668" y="463.877"/>
      <point x="321.993" y="473.153" type="curve"/>
      <point x="301.544" y="482.14"/>
      <point x="287.503" y="484.461"/>
      <point x="253.212" y="487.559" type="curve" smooth="yes"/>
      <point x="241.445" y="488.621"/>
      <point x="214.064" y="490.03"/>
      <point x="198.003" y="502.675" type="curve" smooth="yes"/>
      <point x="193.709" y="506.056"/>
      <point x="185.909" y="513.642"/>
      <point x="184.425" y="528.178" type="curve" smooth="yes"/>
      <point x="183.506" y="537.19"/>
      <point x="184.995" y="546.729"/>
      <point x="187.748" y="557" type="curve" smooth="yes"/>
      <point x="198" y="595.263"/>
      <point x="231.767" y="623.5"/>
      <point x="271.066" y="623.5" type="curve" smooth="yes"/>
      <point x="304.001" y="623.5"/>
      <point x="320.66" y="609.882"/>
      <point x="334.658" y="570.235" type="curve" smooth="yes"/>
      <point x="343.896" y="544.07"/>
      <point x="347.229" y="534.356"/>
      <point x="363.943" y="521.206" type="curve"/>
      <point x="367.241" y="540.662"/>
      <point x="365.51" y="552.538"/>
      <point x="357.946" y="579.619" type="curve" smooth="yes"/>
      <point x="351.724" y="601.9"/>
      <point x="347.686" y="616.481"/>
      <point x="354.256" y="641" type="curve" smooth="yes"/>
      <point x="365.107" y="681.5"/>
      <point x="405.204" y="708.5"/>
      <point x="441.842" y="708.5" type="curve" smooth="yes"/>
      <point x="481.142" y="708.5"/>
      <point x="498.694" y="676.225"/>
      <point x="487.916" y="636" type="curve" smooth="yes"/>
      <point x="481.848" y="613.355"/>
      <point x="471.466" y="599.255"/>
      <point x="454.28" y="579.153" type="curve" smooth="yes"/>
      <point x="437.586" y="559.626"/>
      <point x="427.098" y="544.877"/>
    </contour>
  </outline>
</glyph>
<glyph name="slash" format="2">
  <advance width="278"/>
  <unicode hex="002F"/>
  <outline>
    <contour>
      <point x="516.101" y="708.5" type="line"/>
      <point x="68.8447" y="-36.5" type="line"/>
      <point x="-58.0391" y="-36.5" type="line"/>
      <point x="389.217" y="708.5" type="line"/>
    </contour>
  </outline>
</glyph>
<glyph name="zero" format="2">
  <advance width="570"/>
  <unicode hex="0030"/>
  <outline>
    <contour>
      <point x="469.349" y="688" type="curve" smooth="yes"/>
      <point x="631.358" y="688"/>
      <point x="688.068" y="530.208"/>
      <point x="636.305" y="337.023" type="curve" smooth="yes"/>
      <point x="584.237" y="142.702"/>
      <point x="444.404" y="-13"/>
      <point x="282.863" y="-13" type="curve" smooth="yes"/>
      <point x="118.316" y="-13"/>
      <point x="61.0928" y="138.432"/>
      <point x="115.071" y="339.881" type="curve" smooth="yes"/>
      <point x="136.302" y="419.116"/>
      <point x="183.53" y="512.589"/>
      <point x="232.84" y="569.164" type="curve" smooth="yes"/>
      <point x="294.106" y="639.454"/>
      <point x="376.966" y="688"/>
    </contour>
    <contour>
      <point x="414.261" y="228.627" type="curve" smooth="yes"/>
      <point x="472.1" y="444.487" type="line" smooth="yes"/>
      <point x="511.787" y="592.601"/>
      <point x="489.124" y="625"/>
      <point x="451.121" y="625" type="curve" smooth="yes"/>
      <point x="414.037" y="625"/>
      <point x="376.594" y="595.612"/>
      <point x="336.1" y="444.487" type="curve" smooth="yes"/>
      <point x="278.261" y="228.627" type="line" smooth="yes"/>
      <point x="238.766" y="81.2305"/>
      <point x="259.508" y="50"/>
      <point x="299.744" y="50" type="curve" smooth="yes"/>
      <point x="319.709" y="50"/>
      <point x="335.78" y="57.6826"/>
      <point x="352.8" y="79.5703" type="curve" smooth="yes"/>
      <point x="368.9" y="100.273"/>
      <point x="397.912" y="167.613"/>
    </contour>
  </outline>
</glyph>
<glyph name="one" format="2">
  <advance width="535"/>
  <unicode hex="0031"/>
  <outline>
    <contour>
      <point x="515.227" y="688" type="line"/>
      <point x="553.349" y="688" type="line"/>
      <point x="395.929" y="100.5" type="line" smooth="yes"/>
      <point x="378.522" y="35.5381"/>
      <point x="385.061" y="25.792"/>
      <point x="466.314" y="23.9961" type="curve" smooth="yes"/>
      <point x="483.329" y="23.6191" type="line"/>
      <point x="467.622" y="-35" type="line"/>
      <point x="57.6221" y="-35" type="line"/>
      <point x="73.3838" y="23.8242" type="line"/>
      <point x="90.7539" y="23.999" type="line" smooth="yes"/>
      <point x="181.404" y="24.9121"/>
      <point x="195.956" y="37.1562"/>
      <point x="214.536" y="106.5" type="curve" smooth="yes"/>
      <point x="317.697" y="491.5" type="line" smooth="yes"/>
      <point x="324.133" y="517.423"/>
      <point x="324.362" y="525.28"/>
      <point x="323.366" y="532.761" type="curve" smooth="yes"/>
      <point x="322.984" y="535.626"/>
      <point x="322.996" y="543"/>
      <point x="312.996" y="543" type="curve" smooth="yes"/>
      <point x="305.449" y="543"/>
      <point x="285.002" y="538.859"/>
      <point x="251.422" y="527.63" type="curve"/>
      <point x="246.272" y="525.143"/>
      <point x="238.561" y="522.414"/>
      <point x="227.072" y="518.898" type="curve" smooth="yes"/>
      <point x="201.981" y="511.22" type="line"/>
      <point x="218.534" y="572.997" type="line"/>
    </contour>
  </outline>
</glyph>
<glyph name="two" format="2">
  <advance width="570"/>
  <unicode hex="0032"/>
  <outline>
    <contour>
      <point x="608.663" y="211" type="line"/>
      <point x="490.283" y="-35" type="line"/>
      <point x="7.62207" y="-35" type="line"/>
      <point x="20.3262" y="12.4121" type="line"/>
      <point x="26.4004" y="17.458" type="line" smooth="yes"/>
      <point x="215.491" y="173.592"/>
      <point x="265.503" y="213.999"/>
      <point x="352.72" y="291.073" type="curve" smooth="yes"/>
      <point x="417.025" y="350.286"/>
      <point x="442.665" y="401.812"/>
      <point x="450.084" y="429.5" type="curve" smooth="yes"/>
      <point x="455.182" y="448.523"/>
      <point x="453.588" y="474.679"/>
      <point x="445.005" y="492.596" type="curve" smooth="yes"/>
      <point x="429.756" y="524.435"/>
      <point x="398.446" y="539"/>
      <point x="352.366" y="539" type="curve" smooth="yes"/>
      <point x="295.796" y="539"/>
      <point x="257.957" y="514.54"/>
      <point x="215.054" y="458.674" type="curve" smooth="yes"/>
      <point x="207.625" y="449" type="line"/>
      <point x="143.597" y="449" type="line"/>
      <point x="158.744" y="472.621" type="line" smooth="yes"/>
      <point x="207.208" y="548.195"/>
      <point x="239.664" y="585.869"/>
      <point x="290.986" y="626.787" type="curve" smooth="yes"/>
      <point x="340.248" y="665.932"/>
      <point x="411.487" y="688"/>
      <point x="479.917" y="688" type="curve" smooth="yes"/>
      <point x="606.275" y="688"/>
      <point x="667.663" y="603.334"/>
      <point x="636.625" y="487.5" type="curve" smooth="yes"/>
      <point x="614.699" y="405.672"/>
      <point x="557.828" y="334.36"/>
      <point x="455.365" y="256.812" type="curve" smooth="yes"/>
      <point x="266.896" y="133" type="line"/>
      <point x="391.774" y="133" type="line" smooth="yes"/>
      <point x="497.799" y="133"/>
      <point x="502.523" y="138.399"/>
      <point x="543.868" y="200.038" type="curve" smooth="yes"/>
      <point x="551.221" y="211" type="line"/>
    </contour>
  </outline>
</glyph>
<glyph name="four" format="2">
  <advance width="570"/>
  <unicode hex="0034"/>
  <outline>
    <contour>
      <point x="666.349" y="688" type="line"/>
      <point x="555.017" y="272.5" type="line"/>
      <point x="618.017" y="272.5" type="line"/>
      <point x="578.896" y="126.5" type="line"/>
      <point x="515.896" y="126.5" type="line"/>
      <point x="477.311" y="-17.5" type="line"/>
      <point x="296.65" y="-17.5" type="line"/>
      <point x="335.235" y="126.5" type="line"/>
      <point x="52.8955" y="126.5" type="line"/>
      <point x="89.2197" y="262.062" type="line"/>
      <point x="93.0713" y="266.345" type="line" smooth="yes"/>
      <point x="178.08" y="358.173"/>
      <point x="268.302" y="447.029"/>
      <point x="474.385" y="607.486" type="curve" smooth="yes"/>
      <point x="560.211" y="688" type="line"/>
    </contour>
    <contour>
      <point x="184.23" y="272.5" type="line"/>
      <point x="377.017" y="272.5" type="line"/>
      <point x="437.097" y="496.723" type="line"/>
    </contour>
  </outline>
</glyph>
<glyph name="eight" format="2">
  <advance width="570"/>
  <unicode hex="0038"/>
  <outline>
    <contour>
      <point x="244.068" y="328.755" type="curve"/>
      <point x="176.292" y="381.508"/>
      <point x="155.567" y="435.035"/>
      <point x="174.222" y="504.654" type="curve" smooth="yes"/>
      <point x="203.698" y="614.662"/>
      <point x="320.55" y="688"/>
      <point x="487.517" y="688" type="curve" smooth="yes"/>
      <point x="630.396" y="688"/>
      <point x="695.761" y="626.091"/>
      <point x="670.878" y="533.229" type="curve" smooth="yes"/>
      <point x="654.303" y="471.368"/>
      <point x="606.404" y="429.465"/>
      <point x="518.483" y="396.938" type="curve"/>
      <point x="593.017" y="335.983"/>
      <point x="615.797" y="275.415"/>
      <point x="594.024" y="194.157" type="curve" smooth="yes"/>
      <point x="560.795" y="70.1426"/>
      <point x="437.199" y="-13"/>
      <point x="271.281" y="-13" type="curve" smooth="yes"/>
      <point x="118.996" y="-13"/>
      <point x="43.4756" y="57.7549"/>
      <point x="72.3682" y="165.584" type="curve" smooth="yes"/>
      <point x="91.1396" y="235.64"/>
      <point x="139.612" y="272.488"/>
      <point x="153.014" y="282.354" type="curve" smooth="yes"/>
      <point x="175.619" y="298.998"/>
      <point x="196.812" y="312.533"/>
    </contour>
    <contour>
      <point x="357.112" y="558.5" type="curve" smooth="yes"/>
      <point x="343.263" y="506.812"/>
      <point x="388.68" y="460.799"/>
      <point x="454.438" y="427.09" type="curve"/>
      <point x="490.209" y="458.544"/>
      <point x="502.171" y="478.339"/>
      <point x="512.932" y="518.5" type="curve" smooth="yes"/>
      <point x="526.128" y="567.75"/>
      <point x="525.198" y="624"/>
      <point x="455.549" y="624" type="curve" smooth="yes"/>
      <point x="407.019" y="624"/>
      <point x="366.766" y="594.525"/>
    </contour>
    <contour>
      <point x="406.719" y="144.5" type="curve" smooth="yes"/>
      <point x="423.508" y="207.157"/>
      <point x="409.536" y="235.228"/>
      <point x="311.465" y="299.118" type="curve"/>
      <point x="262.295" y="252.962"/>
      <point x="244.605" y="226.181"/>
      <point x="231.829" y="178.5" type="curve" smooth="yes"/>
      <point x="216.888" y="122.737"/>
      <point x="218.104" y="54"/>
      <point x="296.644" y="54" type="curve" smooth="yes"/>
      <point x="365.304" y="54"/>
      <point x="396.088" y="104.825"/>
    </contour>
  </outline>
</glyph>
<glyph name="colon" format="2">
  <advance width="333"/>
  <unicode hex="003A"/>
  <outline>
    <contour>
      <point x="287.257" y="70" type="curve" smooth="yes"/>
      <point x="272.258" y="14.0225"/>
      <point x="213.927" y="-30.5"/>
      <point x="156.827" y="-30.5" type="curve" smooth="yes"/>
      <point x="96.5273" y="-30.5"/>
      <point x="69.333" y="18.0371"/>
      <point x="83.792" y="72" type="curve" smooth="yes"/>
      <point x="98.5" y="126.888"/>
      <point x="156.427" y="173.5"/>
      <point x="212.489" y="173.5" type="curve" smooth="yes"/>
      <point x="269.423" y="173.5"/>
      <point x="302.402" y="126.527"/>
    </contour>
    <contour>
      <point x="372.196" y="387" type="curve" smooth="yes"/>
      <point x="357.236" y="331.17"/>
      <point x="299.094" y="285.5"/>
      <point x="242.499" y="285.5" type="curve" smooth="yes"/>
      <point x="185.076" y="285.5"/>
      <point x="152.911" y="329.955"/>
      <point x="168.732" y="389" type="curve" smooth="yes"/>
      <point x="183.469" y="443.997"/>
      <point x="241.402" y="489.5"/>
      <point x="297.161" y="489.5" type="curve" smooth="yes"/>
      <point x="353.793" y="489.5"/>
      <point x="387.37" y="443.629"/>
    </contour>
  </outline>
</glyph>
<glyph name="semicolon" format="2">
  <advance width="333"/>
  <unicode hex="003B"/>
  <outline>
    <contour>
      <point x="372.196" y="387" type="curve" smooth="yes"/>
      <point x="357.236" y="331.17"/>
      <point x="299.094" y="285.5"/>
      <point x="242.499" y="285.5" type="curve" smooth="yes"/>
      <point x="185.076" y="285.5"/>
      <point x="152.911" y="329.955"/>
      <point x="168.732" y="389" type="curve" smooth="yes"/>
      <point x="183.469" y="443.997"/>
      <point x="241.402" y="489.5"/>
      <point x="297.161" y="489.5" type="curve" smooth="yes"/>
      <point x="353.793" y="489.5"/>
      <point x="387.37" y="443.629"/>
    </contour>
    <contour>
      <point x="37.877" y="-204.449" type="line"/>
      <point x="25.7666" y="-152.261" type="line"/>
      <point x="40.5469" y="-143.618" type="line" smooth="yes"/>
      <point x="140.378" y="-85.2451"/>
      <point x="167.702" y="-48.7227"/>
      <point x="173.801" y="-25" type="curve" smooth="yes"/>
      <point x="174.302" y="-23.0527"/>
      <point x="174.038" y="-22.1484"/>
      <point x="173.356" y="-21.3613" type="curve"/>
      <point x="168.688" y="-21.5" type="line"/>
      <point x="156.151" y="-23.5" type="line"/>
      <point x="146.703" y="-23.5" type="line" smooth="yes"/>
      <point x="133.645" y="-23.5"/>
      <point x="108.223" y="-15.835"/>
      <point x="95.9795" y="-2.25781" type="curve" smooth="yes"/>
      <point x="79.0195" y="16.5488"/>
      <point x="75.8066" y="42.1963"/>
      <point x="83.792" y="72" type="curve" smooth="yes"/>
      <point x="99.6133" y="131.044"/>
      <point x="150.921" y="172.5"/>
      <point x="211.222" y="172.5" type="curve" smooth="yes"/>
      <point x="282.321" y="172.5"/>
      <point x="314.619" y="116.138"/>
      <point x="293.95" y="39" type="curve" smooth="yes"/>
      <point x="268.854" y="-54.6611"/>
      <point x="195.562" y="-125.579"/>
      <point x="56.4619" y="-195.154" type="curve" smooth="yes"/>
    </contour>
  </outline>
</glyph>
<glyph name="less" format="2">
  <advance width="570"/>
  <unicode hex="003C"/>
  <outline>
    <contour>
      <point x="546.105" y="-38.7939" type="line"/>
      <point x="66.9746" y="199.57" type="line"/>
      <point x="95.6074" y="306.43" type="line"/>
      <point x="702.478" y="544.794" type="line"/>
      <point x="666.512" y="410.57" type="line"/>
      <point x="265.33" y="253" type="line"/>
      <point x="582.07" y="95.4297" type="line"/>
    </contour>
  </outline>
</glyph>
<glyph name="equal" format="2">
  <advance width="570"/>
  <unicode hex="003D"/>
  <outline>
    <contour>
      <point x="666.101" y="416.5" type="line"/>
      <point x="633.143" y="293.5" type="line"/>
      <point x="94.1436" y="293.5" type="line"/>
      <point x="127.101" y="416.5" type="line"/>
    </contour>
    <contour>
      <point x="611.439" y="212.5" type="line"/>
      <point x="578.481" y="89.5" type="line"/>
      <point x="39.4814" y="89.5" type="line"/>
      <point x="72.4395" y="212.5" type="line"/>
    </contour>
  </outline>
</glyph>
<glyph name="question" format="2">
  <advance width="500"/>
  <unicode hex="003F"/>
  <outline>
    <contour>
      <point x="327.707" y="213.5" type="line"/>
      <point x="263.835" y="213.5" type="line"/>
      <point x="267.123" y="229.836" type="line" smooth="yes"/>
      <point x="273.145" y="259.749"/>
      <point x="274.751" y="265.911"/>
      <point x="277.722" y="277" type="curve" smooth="yes"/>
      <point x="286.271" y="308.906"/>
      <point x="303.198" y="335.981"/>
      <point x="339.918" y="382.158" type="curve" smooth="yes"/>
      <point x="380.296" y="432.938"/>
      <point x="403.549" y="466.688"/>
      <point x="418.638" y="523" type="curve" smooth="yes"/>
      <point x="432.477" y="574.65"/>
      <point x="435.575" y="635.854"/>
      <point x="382.281" y="635.5" type="curve" smooth="yes"/>
      <point x="370.863" y="635.425"/>
      <point x="353.127" y="633.96"/>
      <point x="340.382" y="623.863" type="curve" smooth="yes"/>
      <point x="338.406" y="622.299"/>
      <point x="334.226" y="618.902"/>
      <point x="332.753" y="613" type="curve" smooth="yes"/>
      <point x="332.144" y="610.559"/>
      <point x="331.562" y="609.322"/>
      <point x="333.03" y="605.646" type="curve" smooth="yes"/>
      <point x="333.887" y="603.504"/>
      <point x="335.774" y="600.222"/>
      <point x="338.586" y="595.77" type="curve" smooth="yes"/>
      <point x="352.144" y="574.305"/>
      <point x="355.033" y="558.067"/>
      <point x="348.317" y="533" type="curve" smooth="yes"/>
      <point x="335.753" y="486.112"/>
      <point x="294.279" y="451.5"/>
      <point x="245.979" y="451.5" type="curve" smooth="yes"/>
      <point x="194.68" y="451.5"/>
      <point x="171.933" y="494.244"/>
      <point x="185.532" y="545" type="curve" smooth="yes"/>
      <point x="211.353" y="641.361"/>
      <point x="317.669" y="706.5"/>
      <point x="434.306" y="706.5" type="curve" smooth="yes"/>
      <point x="563.66" y="706.5"/>
      <point x="632.139" y="633.1"/>
      <point x="602.638" y="523" type="curve" smooth="yes"/>
      <point x="582.461" y="447.701"/>
      <point x="536.252" y="401.065"/>
      <point x="424.858" y="342.108" type="curve" smooth="yes"/>
      <point x="359.838" y="307.694"/>
      <point x="350.927" y="300.155"/>
      <point x="332.396" y="231" type="curve" smooth="yes"/>
    </contour>
    <contour>
      <point x="359.524" y="71" type="curve" smooth="yes"/>
      <point x="344.403" y="14.5664"/>
      <point x="287.255" y="-30.5"/>
      <point x="230.827" y="-30.5" type="curve" smooth="yes"/>
      <point x="177.016" y="-30.5"/>
      <point x="139.313" y="10.5"/>
      <point x="155.792" y="72" type="curve" smooth="yes"/>
      <point x="170.581" y="127.193"/>
      <point x="230.798" y="173.5"/>
      <point x="285.489" y="173.5" type="curve" smooth="yes"/>
      <point x="341.588" y="173.5"/>
      <point x="374.446" y="126.689"/>
    </contour>
  </outline>
</glyph>
<glyph name="A" format="2">
  <advance width="792"/>
  <unicode hex="0041"/>
  <outline>
    <contour>
      <point x="765.699" y="25" type="line"/>
      <point x="759" y="0" type="line"/>
      <point x="382.377" y="0" type="line"/>
      <point x="389.076" y="25" type="line"/>
      <point x="405.333" y="25" type="line" smooth="yes"/>
      <point x="420.737" y="27.2031"/>
      <point x="435.524" y="28.3145"/>
      <point x="443.048" y="28.5605" type="curve" smooth="yes"/>
      <point x="447.522" y="28.708"/>
      <point x="457.149" y="29.3291"/>
      <point x="466.837" y="32.2295" type="curve" smooth="yes"/>
      <point x="478.008" y="35.5742"/>
      <point x="479.501" y="39.4365"/>
      <point x="481.269" y="46.0342" type="curve" smooth="yes"/>
      <point x="488.378" y="72.5664"/>
      <point x="480.177" y="136.031"/>
      <point x="473.775" y="179.5" type="curve"/>
      <point x="255.756" y="179.5" type="line"/>
      <point x="235.781" y="148.144" type="line" smooth="yes"/>
      <point x="191.428" y="78.9688"/>
      <point x="181.509" y="58.7568"/>
      <point x="179.794" y="51.5391" type="curve" smooth="yes"/>
      <point x="178.13" y="44.5391"/>
      <point x="178.164" y="41.6963"/>
      <point x="184.901" y="37.3262" type="curve" smooth="yes"/>
      <point x="194.003" y="31.4238"/>
      <point x="212.782" y="27.2295"/>
      <point x="243.75" y="25" type="curve" smooth="yes"/>
      <point x="261.403" y="25" type="line"/>
      <point x="254.705" y="0" type="line"/>
      <point x="9" y="0" type="line"/>
      <point x="15.6982" y="25" type="line"/>
      <point x="29.9746" y="25" type="line" smooth="yes"/>
      <point x="72.5752" y="32.6025"/>
      <point x="83.6787" y="42.9727"/>
      <point x="143.484" y="131.347" type="curve" smooth="yes"/>
      <point x="534.487" y="690" type="line"/>
      <point x="590.08" y="690" type="line"/>
      <point x="689.696" y="153.329" type="line" smooth="yes"/>
      <point x="707.823" y="36.9678"/>
      <point x="716.772" y="25"/>
      <point x="744.199" y="25" type="curve" smooth="yes"/>
    </contour>
    <contour>
      <point x="428.976" y="432.001" type="line"/>
      <point x="306.437" y="253.5" type="line"/>
      <point x="461.42" y="253.5" type="line"/>
    </contour>
  </outline>
</glyph>
<glyph name="G" format="2">
  <advance width="848"/>
  <unicode hex="0047"/>
  <outline>
    <contour>
      <point x="906.591" y="304.5" type="line"/>
      <point x="890.987" y="246.268" type="line"/>
      <point x="874.896" y="244.599" type="line" smooth="yes"/>
      <point x="809.386" y="238.217"/>
      <point x="801.659" y="233.846"/>
      <point x="785.796" y="174.645" type="curve" smooth="yes"/>
      <point x="751.382" y="46.209" type="line"/>
      <point x="741.539" y="41.4395" type="line" smooth="yes"/>
      <point x="662.853" y="3.31641"/>
      <point x="542.708" y="-19"/>
      <point x="426.82" y="-19" type="curve" smooth="yes"/>
      <point x="184.773" y="-19"/>
      <point x="70.916" y="126.575"/>
      <point x="125.754" y="331.235" type="curve" smooth="yes"/>
      <point x="180.852" y="536.863"/>
      <point x="379.161" y="691"/>
      <point x="608.003" y="691" type="curve" smooth="yes"/>
      <point x="665.479" y="691"/>
      <point x="720.284" y="679.572"/>
      <point x="774.81" y="654.57" type="curve" smooth="yes"/>
      <point x="788.075" y="648.357"/>
      <point x="802.729" y="641.835"/>
      <point x="810.523" y="642" type="curve" smooth="yes"/>
      <point x="815.295" y="642.101"/>
      <point x="818.117" y="642.099"/>
      <point x="824.501" y="647.79" type="curve" smooth="yes"/>
      <point x="826.772" y="649.815"/>
      <point x="833.626" y="655.999"/>
      <point x="847.653" y="676.999" type="curve" smooth="yes"/>
      <point x="855.001" y="688" type="line"/>
      <point x="911.349" y="688" type="line"/>
      <point x="839.271" y="419" type="line"/>
      <point x="785.563" y="419" type="line"/>
      <point x="783.603" y="429.18" type="line" smooth="yes"/>
      <point x="769.063" y="504.683"/>
      <point x="756.808" y="535.062"/>
      <point x="725.071" y="571.321" type="curve" smooth="yes"/>
      <point x="698.335" y="600.455"/>
      <point x="659.577" y="623"/>
      <point x="604.506" y="623" type="curve" smooth="yes"/>
      <point x="453.647" y="623"/>
      <point x="377.617" y="480.007"/>
      <point x="339.536" y="337.885" type="curve" smooth="yes"/>
      <point x="309.703" y="226.548"/>
      <point x="313.291" y="149.417"/>
      <point x="345.529" y="101.059" type="curve" smooth="yes"/>
      <point x="369.961" y="64.4141"/>
      <point x="407.982" y="49"/>
      <point x="472.223" y="49" type="curve" smooth="yes"/>
      <point x="547.276" y="49"/>
      <point x="566.59" y="69.377"/>
      <point x="574.779" y="99.9404" type="curve" smooth="yes"/>
      <point x="600.603" y="196.315" type="line" smooth="yes"/>
      <point x="610.521" y="233.333"/>
      <point x="606.902" y="240.278"/>
      <point x="517.802" y="244.529" type="curve" smooth="yes"/>
      <point x="499.389" y="245.488" type="line"/>
      <point x="515.2" y="304.5" type="line"/>
    </contour>
  </outline>
</glyph>
<glyph name="H" format="2">
  <advance width="848"/>
  <unicode hex="0048"/>
  <outline>
    <contour>
      <point x="626.662" y="308.5" type="line"/>
      <point x="385.662" y="308.5" type="line"/>
      <point x="325.001" y="82.1084" type="line" smooth="yes"/>
      <point x="314.593" y="43.2637"/>
      <point x="320.393" y="32.8301"/>
      <point x="396.747" y="25" type="curve" smooth="yes"/>
      <point x="414.989" y="25" type="line"/>
      <point x="408.291" y="0" type="line"/>
      <point x="21" y="0" type="line"/>
      <point x="27.6992" y="25" type="line"/>
      <point x="42.9678" y="25" type="line" smooth="yes"/>
      <point x="108.411" y="33.5957"/>
      <point x="117.338" y="42.3135"/>
      <point x="127.918" y="81.7988" type="curve" smooth="yes"/>
      <point x="265.236" y="594.278" type="line" smooth="yes"/>
      <point x="275.944" y="634.24"/>
      <point x="270.307" y="645.267"/>
      <point x="211.374" y="651" type="curve" smooth="yes"/>
      <point x="195.435" y="651" type="line"/>
      <point x="202.134" y="676" type="line"/>
      <point x="589.425" y="676" type="line"/>
      <point x="582.726" y="651" type="line"/>
      <point x="563.712" y="651" type="line" smooth="yes"/>
      <point x="487.104" y="646.073"/>
      <point x="472.658" y="633.173"/>
      <point x="462.057" y="593.609" type="curve" smooth="yes"/>
      <point x="407.634" y="390.5" type="line"/>
      <point x="648.634" y="390.5" type="line"/>
      <point x="703.057" y="593.609" type="line" smooth="yes"/>
      <point x="713.641" y="633.107"/>
      <point x="706.221" y="646.065"/>
      <point x="632.158" y="651" type="curve" smooth="yes"/>
      <point x="613.144" y="651" type="line"/>
      <point x="619.843" y="676" type="line"/>
      <point x="1010.13" y="676" type="line"/>
      <point x="1003.43" y="651" type="line"/>
      <point x="987.218" y="651" type="line" smooth="yes"/>
      <point x="923.922" y="646.173"/>
      <point x="910.806" y="633.725"/>
      <point x="900.242" y="594.3" type="curve" smooth="yes"/>
      <point x="762.917" y="81.7939" type="line" smooth="yes"/>
      <point x="752.519" y="42.9863"/>
      <point x="756.734" y="33.7314"/>
      <point x="820.37" y="25" type="curve" smooth="yes"/>
      <point x="835.699" y="25" type="line"/>
      <point x="829" y="0" type="line"/>
      <point x="438.709" y="0" type="line"/>
      <point x="445.408" y="25" type="line"/>
      <point x="463.65" y="25" type="line" smooth="yes"/>
      <point x="544.1" y="32.8193"/>
      <point x="555.574" y="43.1963"/>
      <point x="566.001" y="82.1084" type="curve" smooth="yes"/>
    </contour>
  </outline>
</glyph>
<glyph name="I" format="2">
  <advance width="424"/>
  <unicode hex="0049"/>
  <outline>
    <contour>
      <point x="134.901" y="81.7373" type="curve" smooth="yes"/>
      <point x="272.242" y="594.299" type="line" smooth="yes"/>
      <point x="282.822" y="633.785"/>
      <point x="276.559" y="646.061"/>
      <point x="210.723" y="651" type="curve" smooth="yes"/>
      <point x="194.435" y="651" type="line"/>
      <point x="201.134" y="676" type="line"/>
      <point x="586.134" y="676" type="line"/>
      <point x="579.435" y="651" type="line"/>
      <point x="562.644" y="651" type="line" smooth="yes"/>
      <point x="493.089" y="648.047"/>
      <point x="480.062" y="634.68"/>
      <point x="469.248" y="594.321" type="curve" smooth="yes"/>
      <point x="331.893" y="81.7041" type="line" smooth="yes"/>
      <point x="321.001" y="41.0566"/>
      <point x="325.999" y="29.9248"/>
      <point x="395.347" y="25" type="curve" smooth="yes"/>
      <point x="411.699" y="25" type="line"/>
      <point x="405" y="0" type="line"/>
      <point x="20" y="0" type="line"/>
      <point x="26.6992" y="25" type="line"/>
      <point x="42.5723" y="25" type="line" smooth="yes"/>
      <point x="114.051" y="31.8838"/>
      <point x="124.459" y="42.7637"/>
    </contour>
  </outline>
</glyph>
<glyph name="K" format="2">
  <advance width="848"/>
  <unicode hex="004B"/>
  <outline>
    <contour>
      <point x="828.897" y="25" type="curve" smooth="yes"/>
      <point x="845.699" y="25" type="line"/>
      <point x="839" y="0" type="line"/>
      <point x="464.316" y="0" type="line"/>
      <point x="470.885" y="24.5166" type="line"/>
      <point x="490.952" y="25" type="line" smooth="yes"/>
      <point x="505.955" y="26.0508"/>
      <point x="518.787" y="25.6943"/>
      <point x="523.945" y="26.0293" type="curve" smooth="yes"/>
      <point x="548.612" y="27.6309"/>
      <point x="552.935" y="29.6318"/>
      <point x="555.078" y="30.7861" type="curve"/>
      <point x="555.187" y="31.8027"/>
      <point x="555.17" y="33.1035"/>
      <point x="554.809" y="34.9727" type="curve" smooth="yes"/>
      <point x="553.683" y="40.7969"/>
      <point x="549.987" y="48.9258"/>
      <point x="543.328" y="61.6406" type="curve" smooth="yes"/>
      <point x="397.004" y="273.938" type="line"/>
      <point x="385.515" y="266.898" type="line"/>
      <point x="335.046" y="78.5449" type="line" smooth="yes"/>
      <point x="325.242" y="41.958"/>
      <point x="331.365" y="33.2363"/>
      <point x="412.494" y="25" type="curve" smooth="yes"/>
      <point x="431.643" y="24.1992" type="line"/>
      <point x="425.158" y="0" type="line"/>
      <point x="30" y="0" type="line"/>
      <point x="36.5049" y="24.2783" type="line"/>
      <point x="52.2666" y="25" type="line" smooth="yes"/>
      <point x="119.378" y="32.6562"/>
      <point x="127.858" y="40.5254"/>
      <point x="138.91" y="81.7686" type="curve" smooth="yes"/>
      <point x="276.246" y="594.312" type="line" smooth="yes"/>
      <point x="287.41" y="635.979"/>
      <point x="282.147" y="647.178"/>
      <point x="220.922" y="651" type="curve" smooth="yes"/>
      <point x="204.542" y="651.398" type="line"/>
      <point x="211.134" y="676" type="line"/>
      <point x="607.555" y="676" type="line"/>
      <point x="600.979" y="651.46" type="line"/>
      <point x="580.241" y="651" type="line" smooth="yes"/>
      <point x="499.381" y="646.736"/>
      <point x="485.001" y="638.184"/>
      <point x="468.465" y="576.47" type="curve" smooth="yes"/>
      <point x="422.48" y="404.856" type="line"/>
      <point x="694.959" y="592.83" type="line" smooth="yes"/>
      <point x="714.407" y="608.29"/>
      <point x="726.755" y="618.24"/>
      <point x="732.702" y="625.794" type="curve" smooth="yes"/>
      <point x="734.521" y="628.104"/>
      <point x="735.414" y="629.954"/>
      <point x="735.981" y="631.409" type="curve" smooth="yes"/>
      <point x="736.395" y="632.469"/>
      <point x="736.914" y="633.785"/>
      <point x="737.273" y="635.47" type="curve" smooth="yes"/>
      <point x="738.27" y="640.137"/>
      <point x="740.114" y="642.643"/>
      <point x="728.408" y="645.468" type="curve" smooth="yes"/>
      <point x="723.655" y="646.615"/>
      <point x="716.881" y="647.505"/>
      <point x="708.159" y="647.997" type="curve" smooth="yes"/>
      <point x="706.937" y="648.065" type="line"/>
      <point x="705.782" y="648.31" type="line" smooth="yes"/>
      <point x="703.634" y="648.764"/>
      <point x="692.568" y="649.825"/>
      <point x="672.908" y="651" type="curve" smooth="yes"/>
      <point x="656.543" y="651.404" type="line"/>
      <point x="663.134" y="676" type="line"/>
      <point x="987.134" y="676" type="line"/>
      <point x="980.583" y="651.553" type="line"/>
      <point x="964.373" y="651" type="line" smooth="yes"/>
      <point x="872.229" y="643.136"/>
      <point x="832.437" y="619.394"/>
      <point x="605.511" y="427.927" type="curve"/>
      <point x="796.804" y="40.6104" type="line" smooth="yes"/>
      <point x="803.007" y="29.3398"/>
      <point x="806.94" y="25.9404"/>
    </contour>
  </outline>
</glyph>
<glyph name="L" format="2">
  <advance width="737"/>
  <unicode hex="004C"/>
  <outline>
    <contour>
      <point x="781.645" y="261.992" type="line"/>
      <point x="664.122" y="0" type="line"/>
      <point x="19" y="0" type="line"/>
      <point x="25.6992" y="25" type="line"/>
      <point x="41.0566" y="25" type="line" smooth="yes"/>
      <point x="108.735" y="33.5381"/>
      <point x="115.729" y="40.0381"/>
      <point x="126.916" y="81.792" type="curve" smooth="yes"/>
      <point x="264.246" y="594.315" type="line" smooth="yes"/>
      <point x="275.215" y="635.252"/>
      <point x="269.858" y="647.202"/>
      <point x="209.907" y="651" type="curve" smooth="yes"/>
      <point x="193.435" y="651" type="line"/>
      <point x="200.134" y="676" type="line"/>
      <point x="599.474" y="676" type="line"/>
      <point x="592.775" y="651" type="line"/>
      <point x="573.543" y="651" type="line" smooth="yes"/>
      <point x="484.044" y="647.466"/>
      <point x="473.586" y="640.367"/>
      <point x="456.468" y="576.483" type="curve" smooth="yes"/>
      <point x="330" y="104.497" type="line" smooth="yes"/>
      <point x="326.269" y="88.5547"/>
      <point x="327.043" y="83.5586"/>
      <point x="328.931" y="79.6064" type="curve" smooth="yes"/>
      <point x="329.666" y="78.0645"/>
      <point x="330.603" y="76.833"/>
      <point x="331.986" y="75.627" type="curve" smooth="yes"/>
      <point x="338.94" y="69.5654"/>
      <point x="355.047" y="65.998"/>
      <point x="391.677" y="65.998" type="curve" smooth="yes"/>
      <point x="477.465" y="65.998"/>
      <point x="540.56" y="82.9277"/>
      <point x="592.069" y="116.451" type="curve" smooth="yes"/>
      <point x="634.081" y="146.499"/>
      <point x="659.08" y="173.687"/>
      <point x="712.722" y="251.312" type="curve" smooth="yes"/>
      <point x="720.103" y="261.992" type="line"/>
    </contour>
  </outline>
</glyph>
<glyph name="N" format="2">
  <advance width="792"/>
  <unicode hex="004E"/>
  <outline>
    <contour>
      <point x="443.394" y="676" type="line"/>
      <point x="698.046" y="313.664" type="line"/>
      <point x="766.576" y="569.422" type="line" smooth="yes"/>
      <point x="783.176" y="631.372"/>
      <point x="772.426" y="644.952"/>
      <point x="704.468" y="651" type="curve" smooth="yes"/>
      <point x="687.383" y="651.625" type="line"/>
      <point x="693.914" y="676" type="line"/>
      <point x="952.134" y="676" type="line"/>
      <point x="945.69" y="651.955" type="line"/>
      <point x="930.596" y="651" type="line" smooth="yes"/>
      <point x="872.562" y="642.427"/>
      <point x="863.397" y="635.931"/>
      <point x="850.639" y="588.316" type="curve" smooth="yes"/>
      <point x="688.177" y="-18" type="line"/>
      <point x="634.406" y="-18" type="line"/>
      <point x="306.191" y="459.756" type="line"/>
      <point x="211.568" y="106.618" type="line" smooth="yes"/>
      <point x="195.002" y="44.791"/>
      <point x="205.165" y="32.8633"/>
      <point x="276.26" y="25" type="curve" smooth="yes"/>
      <point x="292.893" y="24.2451" type="line"/>
      <point x="286.396" y="0" type="line"/>
      <point x="16" y="0" type="line"/>
      <point x="22.4863" y="24.209" type="line"/>
      <point x="38.0566" y="25" type="line" smooth="yes"/>
      <point x="105.135" y="33.4707"/>
      <point x="115.362" y="42.4033"/>
      <point x="128.49" y="91.3994" type="curve" smooth="yes"/>
      <point x="261.312" y="587.1" type="line"/>
      <point x="238.202" y="630.296"/>
      <point x="226.253" y="647.646"/>
      <point x="215.856" y="651" type="curve" smooth="yes"/>
      <point x="214.759" y="651"/>
      <point x="213.751" y="651"/>
      <point x="212.657" y="651" type="curve" smooth="yes"/>
      <point x="212.657" y="651"/>
      <point x="214.004" y="651"/>
      <point x="210.935" y="651" type="curve" smooth="yes"/>
      <point x="193.435" y="651" type="line"/>
      <point x="200.134" y="676" type="line"/>
    </contour>
  </outline>
</glyph>
<glyph name="S" format="2">
  <advance width="626"/>
  <unicode hex="0053"/>
  <outline>
    <contour>
      <point x="671.897" y="440" type="line"/>
      <point x="613.473" y="440" type="line"/>
      <point x="612.98" y="452.354" type="line" smooth="yes"/>
      <point x="610.554" y="513.457"/>
      <point x="603.328" y="540.95"/>
      <point x="577.722" y="574.301" type="curve" smooth="yes"/>
      <point x="535.686" y="623.069"/>
      <point x="482.04" y="625"/>
      <point x="462.956" y="625" type="curve" smooth="yes"/>
      <point x="396.316" y="625"/>
      <point x="347.999" y="597.124"/>
      <point x="334.502" y="546.753" type="curve" smooth="yes"/>
      <point x="324.609" y="509.835"/>
      <point x="338.455" y="490.462"/>
      <point x="418.147" y="454.451" type="curve" smooth="yes"/>
      <point x="566.518" y="385.196" type="line" smooth="yes"/>
      <point x="627.283" y="352.185"/>
      <point x="656.839" y="275.572"/>
      <point x="635.979" y="197.722" type="curve" smooth="yes"/>
      <point x="601.299" y="68.292"/>
      <point x="469.657" y="-19"/>
      <point x="292.721" y="-19" type="curve" smooth="yes"/>
      <point x="240.474" y="-19"/>
      <point x="196.716" y="-11.2959"/>
      <point x="148.605" y="5.87793" type="curve" smooth="yes"/>
      <point x="138.99" y="9.43066"/>
      <point x="122.71" y="15.2031"/>
      <point x="115.52" y="15" type="curve" smooth="yes"/>
      <point x="111.258" y="14.8799"/>
      <point x="110.028" y="15.3896"/>
      <point x="104.608" y="7.54297" type="curve" smooth="yes"/>
      <point x="102.455" y="4.42773"/>
      <point x="99.877" y="0.0390625"/>
      <point x="97.0205" y="-5.58398" type="curve" smooth="yes"/>
      <point x="90.2061" y="-19" type="line"/>
      <point x="29.9092" y="-19" type="line"/>
      <point x="105.471" y="263" type="line"/>
      <point x="165.729" y="263" type="line"/>
      <point x="165.395" y="249.63" type="line" smooth="yes"/>
      <point x="163.651" y="180.215"/>
      <point x="167.661" y="150.722"/>
      <point x="184.569" y="116.021" type="curve" smooth="yes"/>
      <point x="206.275" y="71.4746"/>
      <point x="252.979" y="49"/>
      <point x="314.429" y="49" type="curve" smooth="yes"/>
      <point x="391.763" y="49"/>
      <point x="449.84" y="83.8203"/>
      <point x="465.03" y="140.511" type="curve" smooth="yes"/>
      <point x="475.621" y="180.039"/>
      <point x="462.361" y="200.442"/>
      <point x="372.934" y="239.332" type="curve" smooth="yes"/>
      <point x="303.197" y="269.682" type="line" smooth="yes"/>
      <point x="188.77" y="325.764"/>
      <point x="148.703" y="390.758"/>
      <point x="173.124" y="481.899" type="curve" smooth="yes"/>
      <point x="207.321" y="609.524"/>
      <point x="318.8" y="691"/>
      <point x="480.641" y="691" type="curve" smooth="yes"/>
      <point x="527.039" y="691"/>
      <point x="566.062" y="684.581"/>
      <point x="617.19" y="668.006" type="curve" smooth="yes"/>
      <point x="633.16" y="661.947"/>
      <point x="643.553" y="657.787"/>
      <point x="650.811" y="658" type="curve" smooth="yes"/>
      <point x="656.833" y="658.177"/>
      <point x="657.903" y="657.127"/>
      <point x="665.114" y="668.074" type="curve" smooth="yes"/>
      <point x="667.012" y="670.957"/>
      <point x="669.171" y="674.618"/>
      <point x="671.553" y="679.05" type="curve" smooth="yes"/>
      <point x="678.509" y="692" type="line"/>
      <point x="739.421" y="692" type="line"/>
    </contour>
  </outline>
</glyph>
<glyph name="T" format="2">
  <advance width="772"/>
  <unicode hex="0054"/>
  <outline>
    <contour>
      <point x="314.938" y="99.5508" type="curve" smooth="yes"/>
      <point x="451.198" y="608.081" type="line"/>
      <point x="307.104" y="600.306"/>
      <point x="257.914" y="554.598"/>
      <point x="217.016" y="455.045" type="curve" smooth="yes"/>
      <point x="210.844" y="440.021" type="line"/>
      <point x="148.903" y="440.021" type="line"/>
      <point x="215.655" y="676" type="line"/>
      <point x="920.224" y="676" type="line"/>
      <point x="859.34" y="440.015" type="line"/>
      <point x="797.486" y="440.015" type="line"/>
      <point x="799.365" y="455.039" type="line" smooth="yes"/>
      <point x="812.794" y="562.386"/>
      <point x="779.309" y="601.055"/>
      <point x="648.199" y="608.086" type="curve"/>
      <point x="511.934" y="99.5361" type="line" smooth="yes"/>
      <point x="494.395" y="34.0801"/>
      <point x="501.401" y="30.2529"/>
      <point x="608.666" y="25" type="curve" smooth="yes"/>
      <point x="624.962" y="25" type="line"/>
      <point x="618.263" y="0" type="line"/>
      <point x="156.263" y="0" type="line"/>
      <point x="162.962" y="25" type="line"/>
      <point x="179.042" y="25" type="line" smooth="yes"/>
      <point x="288.327" y="31.1201"/>
      <point x="297.829" y="35.7002"/>
    </contour>
  </outline>
</glyph>
<glyph name="V" format="2">
  <advance width="792"/>
  <unicode hex="0056"/>
  <outline>
    <contour>
      <point x="952.134" y="676" type="line"/>
      <point x="945.435" y="651" type="line"/>
      <point x="930.27" y="651" type="line" smooth="yes"/>
      <point x="885.29" y="645.157"/>
      <point x="873.291" y="638.12"/>
      <point x="835.235" y="580.033" type="curve" smooth="yes"/>
      <point x="434.595" y="-18" type="line"/>
      <point x="378.675" y="-18" type="line"/>
      <point x="259.923" y="591.286" type="line" smooth="yes"/>
      <point x="250.851" y="639.879"/>
      <point x="248.412" y="644.762"/>
      <point x="205.508" y="651" type="curve" smooth="yes"/>
      <point x="190.435" y="651" type="line"/>
      <point x="197.134" y="676" type="line"/>
      <point x="592.356" y="676" type="line"/>
      <point x="585.658" y="651" type="line"/>
      <point x="567.578" y="651" type="line" smooth="yes"/>
      <point x="550.755" y="636.711"/>
      <point x="528.847" y="617.824"/>
      <point x="520.367" y="614.012" type="curve" smooth="yes"/>
      <point x="515.593" y="613.879"/>
      <point x="502.923" y="613.309"/>
      <point x="491.314" y="609.891" type="curve" smooth="yes"/>
      <point x="483.489" y="607.587"/>
      <point x="478.315" y="605.598"/>
      <point x="475.609" y="595.5" type="curve" smooth="yes"/>
      <point x="472.77" y="584.899"/>
      <point x="473.042" y="575.595"/>
      <point x="482.082" y="530.245" type="curve" smooth="yes"/>
      <point x="537.662" y="236.664" type="line"/>
      <point x="730.838" y="524.868" type="line" smooth="yes"/>
      <point x="759.545" y="568.146"/>
      <point x="763.637" y="576.613"/>
      <point x="766.956" y="589.5" type="curve" smooth="yes"/>
      <point x="768.472" y="595.389"/>
      <point x="767.861" y="593.194"/>
      <point x="768.04" y="594.114" type="curve" smooth="yes"/>
      <point x="769.094" y="599.516"/>
      <point x="770.394" y="604.171"/>
      <point x="760.509" y="607.906" type="curve" smooth="yes"/>
      <point x="754.897" y="627.788"/>
      <point x="739.268" y="640.407"/>
      <point x="713.706" y="651" type="curve" smooth="yes"/>
      <point x="697.435" y="651" type="line"/>
      <point x="704.134" y="676" type="line"/>
    </contour>
  </outline>
</glyph>
<glyph name="backslash" format="2">
  <advance width="278"/>
  <unicode hex="005C"/>
  <outline>
    <contour>
      <point x="188.595" y="-36.5" type="line"/>
      <point x="140.583" y="708.5" type="line"/>
      <point x="270.483" y="708.5" type="line"/>
      <point x="317.446" y="-36.5" type="line"/>
    </contour>
  </outline>
</glyph>
<glyph name="asciicircum" format="2">
  <advance width="581"/>
  <unicode hex="005E"/>
  <outline>
    <contour>
      <point x="251.711" y="293.5" type="line"/>
      <point x="123.64" y="293.5" type="line"/>
      <point x="425.887" y="693.5" type="line"/>
      <point x="527.759" y="693.5" type="line"/>
      <point x="615.647" y="293.5" type="line"/>
      <point x="487.575" y="293.5" type="line"/>
      <point x="436.271" y="542.161" type="line"/>
    </contour>
  </outline>
</glyph>
<glyph name="underscore" format="2">
  <advance width="500"/>
  <unicode hex="005F"/>
  <outline>
    <contour>
      <point x="479.317" y="-142.5" type="line"/>
      <point x="-55.6826" y="-142.5" type="line"/>
      <point x="-32.9072" y="-57.5" type="line"/>
      <point x="502.093" y="-57.5" type="line"/>
    </contour>
  </outline>
</glyph>
<glyph name="a" format="2">
  <advance width="570"/>
  <unicode hex="0061"/>
  <outline>
    <contour>
      <point x="282.282" y="92" type="curve" smooth="yes"/>
      <point x="303.659" y="92"/>
      <point x="326.016" y="100.095"/>
      <point x="361.268" y="124.156" type="curve"/>
      <point x="392.019" y="238.922" type="line"/>
      <point x="329.575" y="223.483"/>
      <point x="265.84" y="195.083"/>
      <point x="251.482" y="141.5" type="curve" smooth="yes"/>
      <point x="243.524" y="111.8"/>
      <point x="255.845" y="92"/>
    </contour>
    <contour>
      <point x="525.199" y="78.3525" type="curve"/>
      <point x="554.601" y="100.27" type="line"/>
      <point x="577.544" y="54.166" type="line"/>
      <point x="565.234" y="44.4072" type="line" smooth="yes"/>
      <point x="512.554" y="2.64258"/>
      <point x="472.505" y="-14"/>
      <point x="424.749" y="-14" type="curve" smooth="yes"/>
      <point x="379.577" y="-14"/>
      <point x="354.063" y="1.38965"/>
      <point x="348.838" y="42.6562" type="curve"/>
      <point x="275.729" y="2.69141"/>
      <point x="211.695" y="-14"/>
      <point x="149.749" y="-14" type="curve" smooth="yes"/>
      <point x="75.8457" y="-14"/>
      <point x="34.6016" y="35.835"/>
      <point x="52.377" y="102.174" type="curve" smooth="yes"/>
      <point x="64.6123" y="147.835"/>
      <point x="97.7246" y="185.041"/>
      <point x="154.578" y="216.396" type="curve" smooth="yes"/>
      <point x="199.373" y="241.592"/>
      <point x="253.875" y="260.479"/>
      <point x="407.501" y="292.97" type="curve"/>
      <point x="423.586" y="353" type="line" smooth="yes"/>
      <point x="438.1" y="407.167"/>
      <point x="414.428" y="424.109"/>
      <point x="355.323" y="423.5" type="curve" smooth="yes"/>
      <point x="322.699" y="423.164"/>
      <point x="307.493" y="416.789"/>
      <point x="298.495" y="411.733" type="curve" smooth="yes"/>
      <point x="296.4" y="410.556"/>
      <point x="291.137" y="407.303"/>
      <point x="290.252" y="404" type="curve" smooth="yes"/>
      <point x="290.061" y="403.287"/>
      <point x="291.285" y="401.518"/>
      <point x="297.86" y="393.104" type="curve" smooth="yes"/>
      <point x="310.95" y="376.348"/>
      <point x="317.475" y="358.336"/>
      <point x="312.294" y="339" type="curve" smooth="yes"/>
      <point x="300.304" y="294.252"/>
      <point x="245.689" y="263.5"/>
      <point x="197.104" y="263.5" type="curve" smooth="yes"/>
      <point x="148.336" y="263.5"/>
      <point x="122.317" y="292.285"/>
      <point x="135.253" y="340.562" type="curve" smooth="yes"/>
      <point x="156.545" y="420.024"/>
      <point x="255.134" y="473"/>
      <point x="398.839" y="473" type="curve" smooth="yes"/>
      <point x="540.773" y="473"/>
      <point x="613.321" y="419.189"/>
      <point x="589.117" y="328.859" type="curve" smooth="yes"/>
      <point x="523.872" y="85.3594" type="line" smooth="yes"/>
      <point x="522.941" y="80.29"/>
      <point x="522.854" y="79.6934"/>
      <point x="523.259" y="78.5957" type="curve"/>
      <point x="523.482" y="78.4854"/>
      <point x="524.075" y="78.3291"/>
    </contour>
  </outline>
</glyph>
<glyph name="b" format="2">
  <advance width="626"/>
  <unicode hex="0062"/>
  <outline>
    <contour>
      <point x="427.134" y="676" type="line"/>
      <point x="363.586" y="438.837" type="line"/>
      <point x="409.255" y="462.169"/>
      <point x="454.247" y="473"/>
      <point x="505.814" y="473" type="curve" smooth="yes"/>
      <point x="634.735" y="473"/>
      <point x="691.337" y="374.461"/>
      <point x="654.869" y="238.363" type="curve" smooth="yes"/>
      <point x="615.256" y="90.5225"/>
      <point x="486.788" y="-14"/>
      <point x="326.933" y="-14" type="curve" smooth="yes"/>
      <point x="263.068" y="-14"/>
      <point x="224.811" y="0.458008"/>
      <point x="189.696" y="38.2939" type="curve"/>
      <point x="103.59" y="-13" type="line"/>
      <point x="68.5166" y="-13" type="line"/>
      <point x="226.473" y="576.5" type="line" smooth="yes"/>
      <point x="230.097" y="591.039"/>
      <point x="230.295" y="593.57"/>
      <point x="230.36" y="597.627" type="curve" smooth="yes"/>
      <point x="230.464" y="603.991"/>
      <point x="228.477" y="605.967"/>
      <point x="225.781" y="607.857" type="curve" smooth="yes"/>
      <point x="221.629" y="610.771"/>
      <point x="215.091" y="613.498"/>
      <point x="196.552" y="617.325" type="curve" smooth="yes"/>
      <point x="183.153" y="620.092" type="line"/>
      <point x="198.134" y="676" type="line"/>
    </contour>
    <contour>
      <point x="415.747" y="384" type="curve" smooth="yes"/>
      <point x="383.271" y="384"/>
      <point x="363.617" y="373.702"/>
      <point x="338.015" y="343.405" type="curve"/>
      <point x="275.104" y="108.619" type="line" smooth="yes"/>
      <point x="268.831" y="85.207"/>
      <point x="273.317" y="53"/>
      <point x="325.783" y="53" type="curve" smooth="yes"/>
      <point x="384.234" y="53"/>
      <point x="433.886" y="92.876"/>
      <point x="468.152" y="220.761" type="curve" smooth="yes"/>
      <point x="490.638" y="304.675"/>
      <point x="492.664" y="384"/>
    </contour>
  </outline>
</glyph>
<glyph name="e" format="2">
  <advance width="479"/>
  <unicode hex="0065"/>
  <outline>
    <contour>
      <point x="447.091" y="153.566" type="curve" smooth="yes"/>
      <point x="459.652" y="165.151" type="line"/>
      <point x="504.644" y="134.045" type="line"/>
      <point x="489.589" y="118.475" type="line" smooth="yes"/>
      <point x="394.442" y="20.0684"/>
      <point x="331.175" y="-14"/>
      <point x="244.749" y="-14" type="curve" smooth="yes"/>
      <point x="110.483" y="-14"/>
      <point x="47.3594" y="83.4473"/>
      <point x="86.1191" y="228.101" type="curve" smooth="yes"/>
      <point x="124.927" y="372.931"/>
      <point x="242.804" y="473"/>
      <point x="378.24" y="473" type="curve" smooth="yes"/>
      <point x="437.183" y="473"/>
      <point x="482.981" y="453.484"/>
      <point x="509.302" y="412.127" type="curve" smooth="yes"/>
      <point x="534.075" y="373.202"/>
      <point x="536.826" y="324.542"/>
      <point x="521.603" y="245" type="curve" smooth="yes"/>
      <point x="518.254" y="227.5" type="line"/>
      <point x="266.162" y="227.5" type="line"/>
      <point x="257.266" y="178.5"/>
      <point x="257.984" y="155.255"/>
      <point x="267.05" y="132.192" type="curve" smooth="yes"/>
      <point x="280.783" y="97.2578"/>
      <point x="309.903" y="93"/>
      <point x="330.419" y="93" type="curve" smooth="yes"/>
      <point x="370.598" y="93"/>
      <point x="401.55" y="111.565"/>
    </contour>
    <contour>
      <point x="279.829" y="299.5" type="curve"/>
      <point x="378.146" y="299.5" type="line"/>
      <point x="386.797" y="338.552"/>
      <point x="391.335" y="362.623"/>
      <point x="390.806" y="377.835" type="curve" smooth="yes"/>
      <point x="390.136" y="397.109"/>
      <point x="381.209" y="407"/>
      <point x="360.556" y="407" type="curve" smooth="yes"/>
      <point x="330.654" y="407"/>
      <point x="308.778" y="391.328"/>
    </contour>
  </outline>
</glyph>
<glyph name="f" format="2">
  <advance width="403"/>
  <unicode hex="0066"/>
  <outline>
    <contour>
      <point x="95.9141" y="92.9805" type="curve" smooth="yes"/>
      <point x="173.356" y="382" type="line"/>
      <point x="116.356" y="382" type="line"/>
      <point x="137.524" y="461" type="line"/>
      <point x="194.629" y="461" type="line"/>
      <point x="215.742" y="536.258"/>
      <point x="234.697" y="577.955"/>
      <point x="267.351" y="614.732" type="curve" smooth="yes"/>
      <point x="312.048" y="665.074"/>
      <point x="377.757" y="691"/>
      <point x="467.153" y="691" type="curve" smooth="yes"/>
      <point x="575.547" y="691"/>
      <point x="631.56" y="644"/>
      <point x="612.669" y="573.5" type="curve" smooth="yes"/>
      <point x="600.42" y="527.787"/>
      <point x="559.566" y="494"/>
      <point x="511.867" y="494" type="curve" smooth="yes"/>
      <point x="470.805" y="494"/>
      <point x="429.138" y="523"/>
      <point x="440.793" y="566.5" type="curve" smooth="yes"/>
      <point x="444.798" y="581.446"/>
      <point x="460.206" y="595.338"/>
      <point x="481.346" y="611.504" type="curve" smooth="yes"/>
      <point x="482.328" y="612.64"/>
      <point x="488.267" y="619.529"/>
      <point x="490.618" y="623.158" type="curve"/>
      <point x="488.894" y="624.2"/>
      <point x="485.495" y="625"/>
      <point x="477.468" y="625" type="curve" smooth="yes"/>
      <point x="440.585" y="625"/>
      <point x="410.925" y="619.24"/>
      <point x="396.525" y="565.5" type="curve" smooth="yes"/>
      <point x="368.524" y="461" type="line"/>
      <point x="490.524" y="461" type="line"/>
      <point x="469.356" y="382" type="line"/>
      <point x="347.356" y="382" type="line"/>
      <point x="274.578" y="110.386" type="line" smooth="yes"/>
      <point x="268.172" y="84.2041"/>
      <point x="269.3" y="72.1348"/>
      <point x="278.124" y="65.8096" type="curve" smooth="yes"/>
      <point x="279.447" y="64.8613"/>
      <point x="280.903" y="64.0615"/>
      <point x="282.71" y="63.2949" type="curve" smooth="yes"/>
      <point x="292.839" y="58.9941"/>
      <point x="314.999" y="55.0215"/>
      <point x="359.48" y="54.042" type="curve" smooth="yes"/>
      <point x="376.361" y="53.5957" type="line"/>
      <point x="362" y="0" type="line"/>
      <point x="14" y="0" type="line"/>
      <point x="28.041" y="52.4004" type="line"/>
      <point x="44.0664" y="53.9541" type="line" smooth="yes"/>
      <point x="64.4717" y="56.2578"/>
      <point x="70.3203" y="57.8271"/>
      <point x="76.3398" y="60.4688" type="curve" smooth="yes"/>
      <point x="79.8447" y="62.0068"/>
      <point x="83.1367" y="63.9951"/>
      <point x="86.3047" y="68.6816" type="curve" smooth="yes"/>
      <point x="89.3125" y="73.1318"/>
      <point x="92.3291" y="79.6006"/>
    </contour>
  </outline>
</glyph>
<glyph name="j" format="2">
  <advance width="368"/>
  <unicode hex="006A"/>
  <outline>
    <contour>
      <point x="387.653" y="691" type="curve" smooth="yes"/>
      <point x="440.336" y="691"/>
      <point x="471.68" y="648.18"/>
      <point x="457.563" y="595.5" type="curve" smooth="yes"/>
      <point x="443.416" y="542.699"/>
      <point x="389.092" y="501"/>
      <point x="336.742" y="501" type="curve" smooth="yes"/>
      <point x="280.043" y="501"/>
      <point x="253.744" y="543.925"/>
      <point x="267.832" y="596.5" type="curve" smooth="yes"/>
      <point x="281.648" y="648.065"/>
      <point x="334.898" y="691"/>
    </contour>
    <contour>
      <point x="418.524" y="461" type="line"/>
      <point x="298.121" y="11.6484" type="line" smooth="yes"/>
      <point x="282.869" y="-45.2715"/>
      <point x="263.805" y="-84.5781"/>
      <point x="233.92" y="-118.309" type="curve" smooth="yes"/>
      <point x="204.975" y="-152.332"/>
      <point x="145.223" y="-203"/>
      <point x="46.1064" y="-203" type="curve" smooth="yes"/>
      <point x="-43.9873" y="-203"/>
      <point x="-98.7998" y="-156"/>
      <point x="-79.9092" y="-85.5" type="curve" smooth="yes"/>
      <point x="-67.9619" y="-40.9111"/>
      <point x="-26.585" y="-7"/>
      <point x="20.624" y="-7" type="curve" smooth="yes"/>
      <point x="61.1387" y="-7"/>
      <point x="88.9658" y="-37.4473"/>
      <point x="77.9658" y="-78.5" type="curve" smooth="yes"/>
      <point x="73.9404" y="-93.5244"/>
      <point x="64.1064" y="-107.384"/>
      <point x="49.0254" y="-124.64" type="curve" smooth="yes"/>
      <point x="43.6045" y="-130.843"/>
      <point x="41.9463" y="-133.063"/>
      <point x="40.7744" y="-134.904" type="curve"/>
      <point x="43.3711" y="-136.1"/>
      <point x="47.8555" y="-137"/>
      <point x="53.791" y="-137" type="curve" smooth="yes"/>
      <point x="69.3848" y="-137"/>
      <point x="85.6846" y="-131.798"/>
      <point x="99.9658" y="-78.5" type="curve" smooth="yes"/>
      <point x="219.236" y="366.623" type="line" smooth="yes"/>
      <point x="222.878" y="381.453"/>
      <point x="223.172" y="386.169"/>
      <point x="222.544" y="390.522" type="curve" smooth="yes"/>
      <point x="222.061" y="393.887"/>
      <point x="220.826" y="396.528"/>
      <point x="216.854" y="398.805" type="curve" smooth="yes"/>
      <point x="211.473" y="401.887"/>
      <point x="202.82" y="404.142"/>
      <point x="182.824" y="405.645" type="curve" smooth="yes"/>
      <point x="167.011" y="406.832" type="line"/>
      <point x="181.524" y="461" type="line"/>
    </contour>
  </outline>
</glyph>
<glyph name="l" format="2">
  <advance width="313"/>
  <unicode hex="006C"/>
  <outline>
    <contour>
      <point x="422.134" y="676" type="line"/>
      <point x="267.585" y="99.2178" type="line" smooth="yes"/>
      <point x="258.963" y="67.0371"/>
      <point x="269.019" y="59.5654"/>
      <point x="288.837" y="58.9922" type="curve" smooth="yes"/>
      <point x="305.669" y="58.4775" type="line"/>
      <point x="290" y="0" type="line"/>
      <point x="16" y="0" type="line"/>
      <point x="31.4131" y="57.5234" type="line"/>
      <point x="47.7529" y="58.9326" type="line" smooth="yes"/>
      <point x="66.7422" y="60.4678"/>
      <point x="84.9277" y="66.9072"/>
      <point x="93.4746" y="98.8037" type="curve" smooth="yes"/>
      <point x="221.473" y="576.5" type="line" smooth="yes"/>
      <point x="229.654" y="607.034"/>
      <point x="219.735" y="615.1"/>
      <point x="197.348" y="617.062" type="curve" smooth="yes"/>
      <point x="181.709" y="618.436" type="line"/>
      <point x="197.134" y="676" type="line"/>
    </contour>
  </outline>
</glyph>
<glyph name="m" format="2">
  <advance width="938"/>
  <unicode hex="006D"/>
  <outline>
    <contour>
      <point x="365.524" y="461" type="line"/>
      <point x="354.401" y="419.488" type="line"/>
      <point x="410.87" y="456.194"/>
      <point x="471.996" y="473"/>
      <point x="533.24" y="473" type="curve" smooth="yes"/>
      <point x="592.943" y="473"/>
      <point x="627.438" y="452.668"/>
      <point x="644.885" y="399.476" type="curve"/>
      <point x="714.376" y="451.421"/>
      <point x="773.673" y="473"/>
      <point x="843.24" y="473" type="curve" smooth="yes"/>
      <point x="934.74" y="473"/>
      <point x="980.16" y="414.855"/>
      <point x="956.196" y="325.42" type="curve" smooth="yes"/>
      <point x="893.574" y="91.7139" type="line" smooth="yes"/>
      <point x="890.038" y="77.2139"/>
      <point x="889.398" y="71.4561"/>
      <point x="889.881" y="66.8447" type="curve" smooth="yes"/>
      <point x="890.216" y="63.6396"/>
      <point x="891.016" y="59.7275"/>
      <point x="898.477" y="57.46" type="curve" smooth="yes"/>
      <point x="901.89" y="56.4229"/>
      <point x="907.51" y="55.3779"/>
      <point x="917.11" y="54.9131" type="curve" smooth="yes"/>
      <point x="933.502" y="54.1211" type="line"/>
      <point x="919" y="0" type="line"/>
      <point x="629.349" y="0" type="line"/>
      <point x="643.471" y="52.7012" type="line"/>
      <point x="665.384" y="53.8643" type="line" smooth="yes"/>
      <point x="684.189" y="55.1807"/>
      <point x="688.643" y="56.0098"/>
      <point x="694.178" y="57.4219" type="curve" smooth="yes"/>
      <point x="702.74" y="59.6055"/>
      <point x="705.696" y="62.2061"/>
      <point x="708.812" y="66.2109" type="curve" smooth="yes"/>
      <point x="712.243" y="70.623"/>
      <point x="715.63" y="76.9922"/>
      <point x="719.118" y="90.0088" type="curve" smooth="yes"/>
      <point x="778.371" y="311.146" type="line" smooth="yes"/>
      <point x="792.613" y="364.296"/>
      <point x="774.67" y="371"/>
      <point x="746.846" y="371" type="curve" smooth="yes"/>
      <point x="734.708" y="371"/>
      <point x="715.94" y="368.878"/>
      <point x="681.148" y="352.396" type="curve" smooth="yes"/>
      <point x="662.394" y="343.512"/>
      <point x="650.192" y="334.818"/>
      <point x="645.688" y="330.987" type="curve"/>
      <point x="581.118" y="90.0088" type="line" smooth="yes"/>
      <point x="580.213" y="86.0449"/>
      <point x="576.297" y="73.625"/>
      <point x="580.417" y="65.1914" type="curve" smooth="yes"/>
      <point x="581.611" y="62.8311"/>
      <point x="583.3" y="61.1006"/>
      <point x="586.284" y="59.5244" type="curve" smooth="yes"/>
      <point x="590.428" y="57.3359"/>
      <point x="598.02" y="55.0508"/>
      <point x="613.605" y="53.8105" type="curve" smooth="yes"/>
      <point x="633.955" y="52.1904" type="line"/>
      <point x="619.971" y="0" type="line"/>
      <point x="318.689" y="0" type="line"/>
      <point x="332.802" y="52.6699" type="line"/>
      <point x="354.673" y="53.8613" type="line" smooth="yes"/>
      <point x="361.147" y="54.3359"/>
      <point x="371.724" y="54.6289"/>
      <point x="382.27" y="57.458" type="curve" smooth="yes"/>
      <point x="390.457" y="59.6553"/>
      <point x="393.733" y="62.4326"/>
      <point x="396.925" y="66.5654" type="curve" smooth="yes"/>
      <point x="400.291" y="70.9229"/>
      <point x="403.72" y="77.3262"/>
      <point x="407.118" y="90.0088" type="curve" smooth="yes"/>
      <point x="466.371" y="311.146" type="line" smooth="yes"/>
      <point x="480.62" y="364.322"/>
      <point x="463.51" y="371"/>
      <point x="433.506" y="371" type="curve" smooth="yes"/>
      <point x="421.61" y="371"/>
      <point x="403.334" y="369.247"/>
      <point x="369.32" y="353.276" type="curve" smooth="yes"/>
      <point x="350.489" y="344.435"/>
      <point x="337.824" y="335.07"/>
      <point x="333.82" y="331.483" type="curve"/>
      <point x="269.118" y="90.0088" type="line" smooth="yes"/>
      <point x="265.639" y="74.9668"/>
      <point x="266.051" y="69.5146"/>
      <point x="268.098" y="65.291" type="curve" smooth="yes"/>
      <point x="269.499" y="62.3975"/>
      <point x="271.172" y="60.8672"/>
      <point x="275.164" y="59.0791" type="curve" smooth="yes"/>
      <point x="279.666" y="57.0625"/>
      <point x="287.922" y="55.0518"/>
      <point x="300.903" y="53.7529" type="curve" smooth="yes"/>
      <point x="320.509" y="51.792" type="line"/>
      <point x="306.631" y="0" type="line"/>
      <point x="16" y="0" type="line"/>
      <point x="29.9727" y="52.1465" type="line"/>
      <point x="44.9922" y="54.5742" type="line" smooth="yes"/>
      <point x="65.0635" y="58.1045"/>
      <point x="73.1904" y="60.5146"/>
      <point x="79.2539" y="63.9512" type="curve" smooth="yes"/>
      <point x="82.1553" y="65.5957"/>
      <point x="84.6631" y="67.7578"/>
      <point x="86.7646" y="70.7324" type="curve" smooth="yes"/>
      <point x="89.7705" y="74.9883"/>
      <point x="92.8086" y="81.3926"/>
      <point x="96.2773" y="94.3379" type="curve" smooth="yes"/>
      <point x="169.496" y="367.592" type="line" smooth="yes"/>
      <point x="172.901" y="381.513"/>
      <point x="173.387" y="387.112"/>
      <point x="172.671" y="391.418" type="curve" smooth="yes"/>
      <point x="172.172" y="394.419"/>
      <point x="171.35" y="396.571"/>
      <point x="167.785" y="398.919" type="curve" smooth="yes"/>
      <point x="163.477" y="401.759"/>
      <point x="154.176" y="404.453"/>
      <point x="140.007" y="406.312" type="curve" smooth="yes"/>
      <point x="125.385" y="408.23" type="line"/>
      <point x="139.524" y="461" type="line"/>
    </contour>
  </outline>
</glyph>
<glyph name="n" format="2">
  <advance width="626"/>
  <unicode hex="006E"/>
  <outline>
    <contour>
      <point x="370.524" y="461" type="line"/>
      <point x="359.443" y="419.643" type="line"/>
      <point x="415.049" y="455.399"/>
      <point x="475.449" y="473"/>
      <point x="534.24" y="473" type="curve" smooth="yes"/>
      <point x="625.74" y="473"/>
      <point x="671.16" y="414.855"/>
      <point x="647.196" y="325.42" type="curve" smooth="yes"/>
      <point x="584.574" y="91.7139" type="line" smooth="yes"/>
      <point x="581.097" y="77.542"/>
      <point x="580.403" y="71.832"/>
      <point x="580.818" y="67.2803" type="curve" smooth="yes"/>
      <point x="581.107" y="64.1211"/>
      <point x="581.785" y="60.2773"/>
      <point x="589.096" y="57.8633" type="curve" smooth="yes"/>
      <point x="592.466" y="56.749"/>
      <point x="598.012" y="55.583"/>
      <point x="607.549" y="54.8867" type="curve" smooth="yes"/>
      <point x="623.396" y="53.7295" type="line"/>
      <point x="609" y="0" type="line"/>
      <point x="323.029" y="0" type="line"/>
      <point x="337.001" y="52.1426" type="line"/>
      <point x="358.152" y="53.8037" type="line" smooth="yes"/>
      <point x="387.479" y="56.1084"/>
      <point x="402.357" y="61.0449"/>
      <point x="410.118" y="90.0088" type="curve" smooth="yes"/>
      <point x="469.371" y="311.146" type="line" smooth="yes"/>
      <point x="482.346" y="359.566"/>
      <point x="465.402" y="371"/>
      <point x="439.187" y="371" type="curve" smooth="yes"/>
      <point x="416.802" y="371"/>
      <point x="387.497" y="362.312"/>
      <point x="355.696" y="343.539" type="curve" smooth="yes"/>
      <point x="346.857" y="338.321"/>
      <point x="340.089" y="334.373"/>
      <point x="336.827" y="331.509" type="curve"/>
      <point x="272.118" y="90.0088" type="line" smooth="yes"/>
      <point x="271.249" y="86.1846"/>
      <point x="267.052" y="72.79"/>
      <point x="272.374" y="64.8838" type="curve" smooth="yes"/>
      <point x="273.146" y="63.7705"/>
      <point x="274.049" y="62.8447"/>
      <point x="275.219" y="61.9609" type="curve" smooth="yes"/>
      <point x="279.343" y="58.8486"/>
      <point x="288.413" y="55.5986"/>
      <point x="307.752" y="53.7705" type="curve" smooth="yes"/>
      <point x="327.556" y="51.8975" type="line"/>
      <point x="313.65" y="0" type="line"/>
      <point x="21" y="0" type="line"/>
      <point x="34.9082" y="51.9062" type="line"/>
      <point x="49.6768" y="54.5205" type="line" smooth="yes"/>
      <point x="66.8379" y="57.7598"/>
      <point x="74.7891" y="59.8057"/>
      <point x="80.6729" y="62.3975" type="curve" smooth="yes"/>
      <point x="85.0732" y="64.3379"/>
      <point x="87.8066" y="65.96"/>
      <point x="90.9561" y="71.4141" type="curve" smooth="yes"/>
      <point x="93.4629" y="75.7568"/>
      <point x="96.3398" y="83.375"/>
      <point x="99.2773" y="94.3379" type="curve" smooth="yes"/>
      <point x="172.496" y="367.592" type="line" smooth="yes"/>
      <point x="176.031" y="381.794"/>
      <point x="176.546" y="386.188"/>
      <point x="176.32" y="390.519" type="curve" smooth="yes"/>
      <point x="176.028" y="396.072"/>
      <point x="173.989" y="397.79"/>
      <point x="170.798" y="399.558" type="curve" smooth="yes"/>
      <point x="166.436" y="401.973"/>
      <point x="158.863" y="404.175"/>
      <point x="144.635" y="406.365" type="curve" smooth="yes"/>
      <point x="130.47" y="408.547" type="line"/>
      <point x="144.524" y="461" type="line"/>
    </contour>
  </outline>
</glyph>
<glyph name="q" format="2">
  <advance width="626"/>
  <unicode hex="0071"/>
  <outline>
    <contour>
      <point x="355.698" y="-79.5" type="curve" smooth="yes"/>
      <point x="382.694" y="21.2529" type="line"/>
      <point x="335.711" y="-2.53418"/>
      <point x="291.333" y="-14"/>
      <point x="238.674" y="-14" type="curve" smooth="yes"/>
      <point x="112.03" y="-14"/>
      <point x="56.6816" y="84.6475"/>
      <point x="92.8691" y="219.704" type="curve" smooth="yes"/>
      <point x="132.43" y="367.346"/>
      <point x="259.826" y="473"/>
      <point x="416.362" y="473" type="curve" smooth="yes"/>
      <point x="484.332" y="473"/>
      <point x="518.282" y="457.354"/>
      <point x="553.943" y="420.581" type="curve"/>
      <point x="639.34" y="472" type="line"/>
      <point x="677.472" y="472" type="line"/>
      <point x="522.731" y="-105.5" type="line" smooth="yes"/>
      <point x="519.106" y="-120.039"/>
      <point x="518.909" y="-122.57"/>
      <point x="518.843" y="-126.628" type="curve" smooth="yes"/>
      <point x="518.74" y="-132.991"/>
      <point x="520.728" y="-134.967"/>
      <point x="523.423" y="-136.857" type="curve" smooth="yes"/>
      <point x="527.575" y="-139.772"/>
      <point x="534.113" y="-142.498"/>
      <point x="552.652" y="-146.325" type="curve" smooth="yes"/>
      <point x="566.051" y="-149.092" type="line"/>
      <point x="551.07" y="-205" type="line"/>
      <point x="228.952" y="-205" type="line"/>
      <point x="244.243" y="-147.935" type="line"/>
      <point x="263.222" y="-145.291" type="line" smooth="yes"/>
      <point x="301.369" y="-139.779"/>
      <point x="320.124" y="-135.913"/>
      <point x="330.71" y="-129.531" type="curve" smooth="yes"/>
      <point x="332.668" y="-128.35"/>
      <point x="334.203" y="-127.179"/>
      <point x="335.758" y="-125.683" type="curve" smooth="yes"/>
      <point x="343.33" y="-118.389"/>
      <point x="349.053" y="-104.3"/>
    </contour>
    <contour>
      <point x="331.403" y="75" type="curve" smooth="yes"/>
      <point x="364.037" y="75"/>
      <point x="390.341" y="88.6895"/>
      <point x="407.496" y="113.812" type="curve"/>
      <point x="470.643" y="349.477" type="line" smooth="yes"/>
      <point x="480.029" y="384.51"/>
      <point x="460.531" y="406"/>
      <point x="422.646" y="406" type="curve" smooth="yes"/>
      <point x="343.56" y="406"/>
      <point x="301.206" y="321.726"/>
      <point x="278.352" y="236.431" type="curve" smooth="yes"/>
      <point x="246.506" y="117.581"/>
      <point x="273.619" y="75"/>
    </contour>
  </outline>
</glyph>
<glyph name="s" format="2">
  <advance width="424"/>
  <unicode hex="0073"/>
  <outline>
    <contour>
      <point x="501.204" y="471" type="line"/>
      <point x="452.974" y="291" type="line"/>
      <point x="397.95" y="291" type="line"/>
      <point x="397.087" y="302.854" type="line" smooth="yes"/>
      <point x="393.292" y="354.847"/>
      <point x="383.552" y="366.448"/>
      <point x="374.664" y="377.834" type="curve" smooth="yes"/>
      <point x="360.478" y="396.01"/>
      <point x="340.059" y="405"/>
      <point x="319.02" y="405" type="curve" smooth="yes"/>
      <point x="291.944" y="405"/>
      <point x="266.179" y="388.8"/>
      <point x="259.668" y="364.5" type="curve" smooth="yes"/>
      <point x="253.803" y="342.614"/>
      <point x="265.75" y="321.392"/>
      <point x="325.753" y="292.604" type="curve" smooth="yes"/>
      <point x="418.127" y="248.285"/>
      <point x="449.444" y="199.456"/>
      <point x="428.288" y="120.5" type="curve" smooth="yes"/>
      <point x="401.037" y="18.7998"/>
      <point x="310.032" y="-49"/>
      <point x="211.37" y="-49" type="curve" smooth="yes"/>
      <point x="196.984" y="-49"/>
      <point x="142.533" y="-34.7861"/>
      <point x="112.478" y="10.3799" type="curve" smooth="yes"/>
      <point x="108.691" y="12.2676"/>
      <point x="102.215" y="14.5205"/>
      <point x="98.5703" y="14.9336" type="curve"/>
      <point x="94.3848" y="11.7324"/>
      <point x="86.9336" y="2.57129"/>
      <point x="82.0322" y="-3.62012" type="curve" smooth="yes"/>
      <point x="65.2275" y="-48" type="line"/>
      <point x="12.1387" y="-48" type="line"/>
      <point x="75.1064" y="187" type="line"/>
      <point x="134.385" y="187" type="line"/>
      <point x="134.029" y="173.606" type="line" smooth="yes"/>
      <point x="132.317" y="109.081"/>
      <point x="150.244" y="55"/>
      <point x="222.237" y="55" type="curve" smooth="yes"/>
      <point x="258.35" y="55"/>
      <point x="284.333" y="72.1523"/>
      <point x="291.481" y="98.8301" type="curve" smooth="yes"/>
      <point x="296.258" y="116.657"/>
      <point x="287.15" y="135.919"/>
      <point x="223.562" y="164.292" type="curve" smooth="yes"/>
      <point x="128.699" y="206.62"/>
      <point x="94.8066" y="253.059"/>
      <point x="113.315" y="322.133" type="curve" smooth="yes"/>
      <point x="136.511" y="408.699"/>
      <point x="227.186" y="473"/>
      <point x="328.24" y="473" type="curve" smooth="yes"/>
      <point x="352.46" y="473"/>
      <point x="376.252" y="468.274"/>
      <point x="407.37" y="457.152" type="curve" smooth="yes"/>
      <point x="423.488" y="451.392"/>
      <point x="430.045" y="450.875"/>
      <point x="432.345" y="451" type="curve" smooth="yes"/>
      <point x="437.959" y="451.305"/>
      <point x="435.063" y="451.131"/>
      <point x="435.479" y="451.318" type="curve" smooth="yes"/>
      <point x="437.229" y="452.422"/>
      <point x="441.069" y="457.845"/>
      <point x="442.509" y="459.999" type="curve" smooth="yes"/>
      <point x="449.856" y="471" type="line"/>
    </contour>
  </outline>
</glyph>
<glyph name="t" format="2">
  <advance width="368"/>
  <unicode hex="0074"/>
  <outline>
    <contour>
      <point x="463.524" y="461" type="line"/>
      <point x="442.356" y="382" type="line"/>
      <point x="348.356" y="382" type="line"/>
      <point x="280.624" y="129.22" type="line" smooth="yes"/>
      <point x="279.661" y="125.197"/>
      <point x="276.202" y="113.556"/>
      <point x="277.247" y="104.229" type="curve" smooth="yes"/>
      <point x="278.215" y="95.6025"/>
      <point x="283.457" y="94.7256"/>
      <point x="287.907" y="94.2373" type="curve" smooth="yes"/>
      <point x="288.841" y="94.1338"/>
      <point x="287.571" y="94"/>
      <point x="292.688" y="94" type="curve" smooth="yes"/>
      <point x="300.99" y="94"/>
      <point x="313.535" y="96.2432"/>
      <point x="345.629" y="136.65" type="curve" smooth="yes"/>
      <point x="357.098" y="151.089" type="line"/>
      <point x="407.165" y="126.115" type="line"/>
      <point x="394.539" y="109.674" type="line" smooth="yes"/>
      <point x="325.999" y="20.4229"/>
      <point x="271.467" y="-12"/>
      <point x="198.284" y="-12" type="curve" smooth="yes"/>
      <point x="118.288" y="-12"/>
      <point x="80.8428" y="33.002"/>
      <point x="98.9307" y="100.506" type="curve" smooth="yes"/>
      <point x="174.356" y="382" type="line"/>
      <point x="122.356" y="382" type="line"/>
      <point x="136.455" y="434.616" type="line"/>
      <point x="144.057" y="439.859" type="line" smooth="yes"/>
      <point x="222.662" y="494.079"/>
      <point x="272.479" y="537.101"/>
      <point x="356.059" y="622.625" type="curve" smooth="yes"/>
      <point x="363.266" y="630" type="line"/>
      <point x="414.808" y="630" type="line"/>
      <point x="369.524" y="461" type="line"/>
    </contour>
  </outline>
</glyph>
<glyph name="x" format="2">
  <advance width="535"/>
  <unicode hex="0078"/>
  <outline>
    <contour>
      <point x="512.938" y="23.2031" type="curve" smooth="yes"/>
      <point x="524.189" y="19.3662" type="line"/>
      <point x="509.622" y="-35" type="line"/>
      <point x="233.622" y="-35" type="line"/>
      <point x="249.138" y="22.9072" type="line"/>
      <point x="265.794" y="23.9639" type="line" smooth="yes"/>
      <point x="282.789" y="25.4062"/>
      <point x="289.92" y="26.4873"/>
      <point x="295.409" y="28.8838" type="curve"/>
      <point x="295.711" y="35.3721"/>
      <point x="293.246" y="48.9512"/>
      <point x="279.649" y="80.6436" type="curve" smooth="yes"/>
      <point x="262.38" y="123.95" type="line"/>
      <point x="262.231" y="123.793" type="line"/>
      <point x="261.533" y="123.046" type="line"/>
      <point x="260.776" y="122.354" type="line" smooth="yes"/>
      <point x="218.111" y="83.0088"/>
      <point x="186.33" y="48.584"/>
      <point x="177.241" y="32.543" type="curve" smooth="yes"/>
      <point x="177.241" y="32.543"/>
      <point x="176.949" y="33.5"/>
      <point x="176.173" y="30.5" type="curve" smooth="yes"/>
      <point x="176.146" y="30.3994"/>
      <point x="176.062" y="30.4121"/>
      <point x="175.979" y="30.4561" type="curve"/>
      <point x="176.074" y="30.3662" type="line" smooth="yes"/>
      <point x="179.937" y="26.6611"/>
      <point x="193.708" y="24.7734"/>
      <point x="207.895" y="23.9727" type="curve" smooth="yes"/>
      <point x="224.178" y="23.0547" type="line"/>
      <point x="208.622" y="-35" type="line"/>
      <point x="4.62207" y="-35" type="line"/>
      <point x="20.1846" y="23.0801" type="line"/>
      <point x="36.9795" y="23.9746" type="line" smooth="yes"/>
      <point x="66.9053" y="25.5693"/>
      <point x="87.752" y="38.127"/>
      <point x="159.506" y="109.512" type="curve" smooth="yes"/>
      <point x="173.619" y="123.552"/>
      <point x="202.688" y="151.615"/>
      <point x="237.429" y="184.473" type="curve"/>
      <point x="166.26" y="370.879" type="line" smooth="yes"/>
      <point x="155.404" y="398.103"/>
      <point x="153.047" y="399.244"/>
      <point x="134.608" y="402.203" type="curve" smooth="yes"/>
      <point x="120.382" y="404.486" type="line"/>
      <point x="135.524" y="461" type="line"/>
      <point x="420.524" y="461" type="line"/>
      <point x="404.855" y="402.522" type="line"/>
      <point x="387.748" y="402.008" type="line" smooth="yes"/>
      <point x="370.761" y="401.117"/>
      <point x="363.211" y="400.242"/>
      <point x="357.535" y="398.062" type="curve"/>
      <point x="358.472" y="390.382"/>
      <point x="363.282" y="364.2"/>
      <point x="387.61" y="314.54" type="curve"/>
      <point x="399.597" y="326.097"/>
      <point x="412.068" y="337.717"/>
      <point x="418.755" y="343.449" type="curve" smooth="yes"/>
      <point x="445.894" y="366.718"/>
      <point x="462.255" y="383.934"/>
      <point x="465.704" y="394.588" type="curve" smooth="yes"/>
      <point x="465.704" y="394.588"/>
      <point x="462.927" y="383.398"/>
      <point x="465.974" y="395.5" type="curve" smooth="yes"/>
      <point x="466.269" y="396.671"/>
      <point x="466.36" y="397.188"/>
      <point x="466.377" y="397.456" type="curve"/>
      <point x="464.463" y="398.829"/>
      <point x="462.315" y="399.738"/>
      <point x="453.302" y="400.008" type="curve" smooth="yes"/>
      <point x="448.951" y="400.138"/>
      <point x="440.81" y="401.135"/>
      <point x="432.312" y="402.107" type="curve" smooth="yes"/>
      <point x="417.208" y="403.837" type="line"/>
      <point x="432.524" y="461" type="line"/>
      <point x="635.524" y="461" type="line"/>
      <point x="620.411" y="404.597" type="line"/>
      <point x="605.062" y="402.224" type="line" smooth="yes"/>
      <point x="578.781" y="398.16"/>
      <point x="559.432" y="389.896"/>
      <point x="537.068" y="369.455" type="curve" smooth="yes"/>
      <point x="412.967" y="253.422" type="line"/>
      <point x="495.858" y="35.9619" type="line" smooth="yes"/>
      <point x="496.667" y="34.1484"/>
      <point x="496.95" y="33.0645"/>
      <point x="498.036" y="31.459" type="curve" smooth="yes"/>
      <point x="498.85" y="30.2588"/>
      <point x="499.637" y="29.5322"/>
      <point x="500.4" y="28.9316" type="curve" smooth="yes"/>
      <point x="502.469" y="27.3076"/>
      <point x="505.769" y="25.6484"/>
    </contour>
  </outline>
</glyph>
<glyph name="y" format="2">
  <advance width="535"/>
  <unicode hex="0079"/>
  <outline>
    <contour>
      <point x="452.524" y="461" type="line"/>
      <point x="638.524" y="461" type="line"/>
      <point x="624.225" y="407.632" type="line"/>
      <point x="608.029" y="406.208" type="line" smooth="yes"/>
      <point x="585.738" y="404.25"/>
      <point x="578.57" y="400.718"/>
      <point x="553.697" y="365.348" type="curve" smooth="yes"/>
      <point x="305.92" y="-3.62793" type="line" smooth="yes"/>
      <point x="246.037" y="-96.7207"/>
      <point x="213.247" y="-141.463"/>
      <point x="182.511" y="-166.587" type="curve" smooth="yes"/>
      <point x="152.021" y="-191.511"/>
      <point x="113.671" y="-205"/>
      <point x="75.5703" y="-205" type="curve" smooth="yes"/>
      <point x="11.6953" y="-205"/>
      <point x="-28.5869" y="-166.4"/>
      <point x="-13.0723" y="-108.5" type="curve" smooth="yes"/>
      <point x="-0.538086" y="-61.7227"/>
      <point x="42.7256" y="-27"/>
      <point x="90.2656" y="-27" type="curve" smooth="yes"/>
      <point x="132.405" y="-27"/>
      <point x="158.619" y="-53.6719"/>
      <point x="147.946" y="-93.5" type="curve" smooth="yes"/>
      <point x="147.013" y="-96.9863"/>
      <point x="145.769" y="-100.605"/>
      <point x="140.936" y="-110.932" type="curve" smooth="yes"/>
      <point x="140.436" y="-112" type="line"/>
      <point x="139.86" y="-112.957" type="line"/>
      <point x="141.609" y="-112.812"/>
      <point x="143.055" y="-112.438"/>
      <point x="145.737" y="-111.221" type="curve" smooth="yes"/>
      <point x="174.022" y="-98.3965"/>
      <point x="206.433" y="-44.5312"/>
      <point x="207.444" y="-42.8691" type="curve" smooth="yes"/>
      <point x="235.89" y="3.9502" type="line"/>
      <point x="190.264" y="272.365" type="line" smooth="yes"/>
      <point x="183.35" y="312.307"/>
      <point x="168.478" y="378.003"/>
      <point x="162.847" y="395.366" type="curve" smooth="yes"/>
      <point x="160.985" y="399.502" type="line" smooth="yes"/>
      <point x="159.85" y="401.562"/>
      <point x="160.14" y="402.405"/>
      <point x="155.083" y="403.768" type="curve" smooth="yes"/>
      <point x="152.231" y="404.536"/>
      <point x="147.495" y="405.408"/>
      <point x="140.113" y="406.334" type="curve" smooth="yes"/>
      <point x="125.371" y="408.18" type="line"/>
      <point x="139.524" y="461" type="line"/>
      <point x="424.524" y="461" type="line"/>
      <point x="418.051" y="436.84" type="line"/>
      <point x="385.568" y="436" type="line" smooth="yes"/>
      <point x="381.078" y="435.454"/>
      <point x="379.002" y="435.413"/>
      <point x="374.502" y="434.406" type="curve" smooth="yes"/>
      <point x="367.748" y="432.896"/>
      <point x="363.545" y="431.255"/>
      <point x="362.804" y="428.455" type="curve" smooth="yes"/>
      <point x="362.175" y="426.077"/>
      <point x="362.134" y="425.989"/>
      <point x="362.135" y="424.457" type="curve" smooth="yes"/>
      <point x="362.138" y="420.314"/>
      <point x="363.025" y="412.746"/>
      <point x="367.502" y="375.823" type="curve" smooth="yes"/>
      <point x="384.612" y="234.691" type="line"/>
      <point x="476.468" y="382.34" type="line" smooth="yes"/>
      <point x="492.063" y="407.41"/>
      <point x="494.923" y="413.139"/>
      <point x="496.929" y="421.455" type="curve" smooth="yes"/>
      <point x="498.989" y="430"/>
      <point x="499.646" y="431.634"/>
      <point x="488.815" y="434.136" type="curve" smooth="yes"/>
      <point x="483.043" y="435.189"/>
      <point x="474.284" y="435.968"/>
      <point x="462.622" y="436.406" type="curve" smooth="yes"/>
      <point x="446.021" y="436.729" type="line"/>
    </contour>
  </outline>
</glyph>
<glyph name="braceleft" format="2">
  <advance width="394"/>
  <unicode hex="007B"/>
  <outline>
    <contour>
      <point x="150.353" y="145" type="line" smooth="yes"/>
      <point x="166.632" y="205.754"/>
      <point x="156.84" y="224.523"/>
      <point x="83.1855" y="244.011" type="curve" smooth="yes"/>
      <point x="18.9717" y="261" type="line"/>
      <point x="92.29" y="277.989" type="line" smooth="yes"/>
      <point x="176.388" y="297.477"/>
      <point x="196.238" y="316.246"/>
      <point x="212.517" y="377" type="curve" smooth="yes"/>
      <point x="260.479" y="556" type="line" smooth="yes"/>
      <point x="276.534" y="615.916"/>
      <point x="306.673" y="658.68"/>
      <point x="352.814" y="683.76" type="curve" smooth="yes"/>
      <point x="396.265" y="707.377"/>
      <point x="441.9" y="714.495"/>
      <point x="531.521" y="715.499" type="curve" smooth="yes"/>
      <point x="549.271" y="715.697" type="line"/>
      <point x="537.516" y="671.828" type="line"/>
      <point x="522.864" y="668.882" type="line" smooth="yes"/>
      <point x="444.796" y="653.188"/>
      <point x="419.563" y="627.221"/>
      <point x="402.088" y="562" type="curve" smooth="yes"/>
      <point x="356.269" y="391" type="line" smooth="yes"/>
      <point x="337.333" y="320.334"/>
      <point x="310.795" y="284.046"/>
      <point x="248.438" y="261" type="curve"/>
      <point x="298.444" y="237.954"/>
      <point x="305.536" y="201.665"/>
      <point x="286.602" y="131" type="curve" smooth="yes"/>
      <point x="240.782" y="-40" type="line" smooth="yes"/>
      <point x="221.862" y="-110.611"/>
      <point x="240.658" y="-132.199"/>
      <point x="304.394" y="-145.849" type="curve" smooth="yes"/>
      <point x="317.659" y="-148.689" type="line"/>
      <point x="305.871" y="-192.68" type="line"/>
      <point x="288.241" y="-192.499" type="line" smooth="yes"/>
      <point x="190.019" y="-191.494"/>
      <point x="144.023" y="-181.644"/>
      <point x="116.176" y="-151.396" type="curve" smooth="yes"/>
      <point x="90.2168" y="-123.199"/>
      <point x="89.0557" y="-83.7637"/>
      <point x="102.39" y="-34" type="curve" smooth="yes"/>
    </contour>
  </outline>
</glyph>
<glyph name="uni0591" format="2">
  <advance width="0"/>
  <unicode hex="0591"/>
  <outline>
    <contour>
      <point x="-61.5771" y="-60" type="line" smooth="yes"/>
      <point x="-53.9639" y="-31.5879"/>
      <point x="-32.8701" y="-10"/>
      <point x="-14.6797" y="-10" type="curve" smooth="yes"/>
      <point x="9.32031" y="-10" type="line" smooth="yes"/>
      <point x="27.4766" y="-10"/>
      <point x="37.0283" y="-31.6182"/>
      <point x="29.4229" y="-60" type="curve" smooth="yes"/>
      <point x="22.4902" y="-85.875" type="line"/>
      <point x="48.291" y="-97.6641"/>
      <point x="75.4287" y="-127.156"/>
      <point x="62.6094" y="-175" type="curve" smooth="yes"/>
      <point x="50.5508" y="-220" type="line" smooth="yes"/>
      <point x="48.5254" y="-227.561"/>
      <point x="33.877" y="-235"/>
      <point x="15.0322" y="-235" type="curve" smooth="yes"/>
      <point x="-10.9678" y="-235" type="line" smooth="yes"/>
      <point x="-30.0068" y="-235"/>
      <point x="-40.4941" y="-227.635"/>
      <point x="-38.4492" y="-220" type="curve" smooth="yes"/>
      <point x="-27.1953" y="-178" type="line" smooth="yes"/>
      <point x="-21.5586" y="-156.965"/>
      <point x="-26.1523" y="-140"/>
      <point x="-37.5127" y="-140" type="curve" smooth="yes"/>
      <point x="-48.8604" y="-140"/>
      <point x="-62.5527" y="-156.942"/>
      <point x="-68.1953" y="-178" type="curve" smooth="yes"/>
      <point x="-79.4492" y="-220" type="line" smooth="yes"/>
      <point x="-81.4746" y="-227.561"/>
      <point x="-96.123" y="-235"/>
      <point x="-114.968" y="-235" type="curve" smooth="yes"/>
      <point x="-140.968" y="-235" type="line" smooth="yes"/>
      <point x="-160.007" y="-235"/>
      <point x="-170.494" y="-227.635"/>
      <point x="-168.449" y="-220" type="curve" smooth="yes"/>
      <point x="-156.391" y="-175" type="line" smooth="yes"/>
      <point x="-143.88" y="-128.306"/>
      <point x="-103.408" y="-96.5098"/>
      <point x="-68.2852" y="-85.0352" type="curve"/>
    </contour>
  </outline>
</glyph>
<glyph name="uni0593" format="2">
  <advance width="0"/>
  <unicode hex="0593"/>
  <outline>
    <contour>
      <point x="133.77" y="642.403" type="curve" smooth="yes"/>
      <point x="105.774" y="669.612" type="line" smooth="yes"/>
      <point x="101.57" y="674.544"/>
      <point x="100.388" y="675.294"/>
      <point x="97.9082" y="679.859" type="curve" smooth="yes"/>
      <point x="94.0918" y="686.888"/>
      <point x="91.3711" y="697.541"/>
      <point x="94.5303" y="709.329" type="curve" smooth="yes"/>
      <point x="100.177" y="730.404"/>
      <point x="119.959" y="743"/>
      <point x="139.086" y="743" type="curve" smooth="yes"/>
      <point x="143.586" y="743" type="line"/>
      <point x="129.161" y="756.54" type="line" smooth="yes"/>
      <point x="121.592" y="765.069"/>
      <point x="116.367" y="770.946"/>
      <point x="115.786" y="782.836" type="curve" smooth="yes"/>
      <point x="115.604" y="786.565"/>
      <point x="116.058" y="789.67"/>
      <point x="116.843" y="792.602" type="curve"/>
      <point x="118.585" y="796.072"/>
      <point x="123.263" y="814.801"/>
      <point x="147.695" y="820.588" type="curve" smooth="yes"/>
      <point x="151.472" y="821.482"/>
      <point x="155.382" y="822"/>
      <point x="160.254" y="822" type="curve" smooth="yes"/>
      <point x="167.754" y="822" type="line"/>
      <point x="150.176" y="838.5" type="line" smooth="yes"/>
      <point x="145.397" y="843.656"/>
      <point x="139.754" y="849.164"/>
      <point x="137.525" y="858.389" type="curve" smooth="yes"/>
      <point x="136.315" y="863.396"/>
      <point x="136.591" y="868.167"/>
      <point x="137.71" y="872.345" type="curve"/>
      <point x="141.047" y="878.521"/>
      <point x="145.022" y="894.197"/>
      <point x="169.142" y="898.905" type="curve" smooth="yes"/>
      <point x="173.979" y="899.849"/>
      <point x="178.645" y="900"/>
      <point x="181.154" y="900" type="curve" smooth="yes"/>
      <point x="254.154" y="900" type="line" smooth="yes"/>
      <point x="259.884" y="899.62"/>
      <point x="270.038" y="900.25"/>
      <point x="281.523" y="894.268" type="curve" smooth="yes"/>
      <point x="282.18" y="893.926"/>
      <point x="283.796" y="893.003"/>
      <point x="284.699" y="892.411" type="curve" smooth="yes"/>
      <point x="285.28" y="892.03"/>
      <point x="286.632" y="891.072"/>
      <point x="287.493" y="890.37" type="curve" smooth="yes"/>
      <point x="288.002" y="889.955"/>
      <point x="289.074" y="889.005"/>
      <point x="289.868" y="888.213" type="curve" smooth="yes"/>
      <point x="301.15" y="876.965" type="line" smooth="yes"/>
      <point x="305.155" y="871.552"/>
      <point x="308.033" y="868.596"/>
      <point x="310.034" y="862.021" type="curve" smooth="yes"/>
      <point x="311.246" y="858.034"/>
      <point x="311.941" y="852.896"/>
      <point x="310.312" y="846.815" type="curve" smooth="yes"/>
      <point x="307.877" y="837.729"/>
      <point x="299.328" y="824.792"/>
      <point x="279.547" y="821.05" type="curve"/>
      <point x="292.407" y="809.494" type="line" smooth="yes"/>
      <point x="296.896" y="804.352"/>
      <point x="302.334" y="798.58"/>
      <point x="304.206" y="789.482" type="curve" smooth="yes"/>
      <point x="305.223" y="784.542"/>
      <point x="304.89" y="779.976"/>
      <point x="303.795" y="775.89" type="curve" smooth="yes"/>
      <point x="299.311" y="759.156"/>
      <point x="282.363" y="748"/>
      <point x="261.426" y="748" type="curve" smooth="yes"/>
      <point x="252.712" y="748" type="line"/>
      <point x="271.348" y="730.394" type="line" smooth="yes"/>
      <point x="275.838" y="725.252"/>
      <point x="281.166" y="719.58"/>
      <point x="283.038" y="710.482" type="curve" smooth="yes"/>
      <point x="284.055" y="705.542"/>
      <point x="283.722" y="700.976"/>
      <point x="282.627" y="696.89" type="curve" smooth="yes"/>
      <point x="278.143" y="680.156"/>
      <point x="261.195" y="669"/>
      <point x="240.258" y="669" type="curve" smooth="yes"/>
      <point x="224.591" y="669" type="line"/>
      <point x="225.471" y="665.457"/>
      <point x="225.785" y="661.089"/>
      <point x="224.437" y="656.058" type="curve" smooth="yes"/>
      <point x="221.644" y="645.635"/>
      <point x="210.525" y="630"/>
      <point x="182.808" y="630" type="curve" smooth="yes"/>
      <point x="170.808" y="630" type="line" smooth="yes"/>
      <point x="165.385" y="630.179"/>
      <point x="162.552" y="630.027"/>
      <point x="157.355" y="630.795" type="curve" smooth="yes"/>
      <point x="150.955" y="631.74"/>
      <point x="146.34" y="633.597"/>
      <point x="142.473" y="635.888" type="curve" smooth="yes"/>
      <point x="138.825" y="638.05"/>
      <point x="135.395" y="641.004"/>
    </contour>
  </outline>
</glyph>
<glyph name="uni0597" format="2">
  <advance width="0"/>
  <unicode hex="0597"/>
  <outline>
    <contour>
      <point x="120.037" y="704.848" type="curve"/>
      <point x="118.544" y="706.344"/>
      <point x="110.708" y="709.964"/>
      <point x="108.969" y="722.17" type="curve" smooth="yes"/>
      <point x="108.253" y="727.198"/>
      <point x="108.332" y="732.377"/>
      <point x="110.112" y="737.5" type="curve" smooth="yes"/>
      <point x="113.352" y="746.817"/>
      <point x="113.341" y="747.165"/>
      <point x="117.185" y="752.83" type="curve" smooth="yes"/>
      <point x="121.673" y="759.446"/>
      <point x="128.569" y="766.199"/>
      <point x="137.535" y="770.152" type="curve" smooth="yes"/>
      <point x="156.856" y="778.672"/>
      <point x="176.701" y="796.526"/>
      <point x="190.199" y="821.23" type="curve" smooth="yes"/>
      <point x="195.099" y="830.197"/>
      <point x="208.304" y="844.75"/>
      <point x="225.975" y="844.75" type="curve" smooth="yes"/>
      <point x="244.022" y="844.75"/>
      <point x="249.4" y="829.879"/>
      <point x="249.621" y="820.514" type="curve" smooth="yes"/>
      <point x="250.415" y="786.811"/>
      <point x="268.38" y="773.684"/>
      <point x="274.934" y="770.292" type="curve"/>
      <point x="276.427" y="768.796"/>
      <point x="284.518" y="765.036"/>
      <point x="286.256" y="752.83" type="curve" smooth="yes"/>
      <point x="286.973" y="747.802"/>
      <point x="286.894" y="742.623"/>
      <point x="285.112" y="737.5" type="curve" smooth="yes"/>
      <point x="281.874" y="728.183"/>
      <point x="281.884" y="727.835"/>
      <point x="278.041" y="722.17" type="curve" smooth="yes"/>
      <point x="273.553" y="715.554"/>
      <point x="266.656" y="708.801"/>
      <point x="257.689" y="704.848" type="curve" smooth="yes"/>
      <point x="238.368" y="696.328"/>
      <point x="218.525" y="678.474"/>
      <point x="205.025" y="653.77" type="curve" smooth="yes"/>
      <point x="200.096" y="644.749"/>
      <point x="186.623" y="630.122"/>
      <point x="168.557" y="630.122" type="curve" smooth="yes"/>
      <point x="150.781" y="630.122"/>
      <point x="145.377" y="644.933"/>
      <point x="145.327" y="653.919" type="curve" smooth="yes"/>
      <point x="145.192" y="678.657"/>
      <point x="134.793" y="696.328"/>
    </contour>
  </outline>
</glyph>
<glyph name="uni0599" format="2">
  <advance width="0"/>
  <unicode hex="0599"/>
  <outline>
    <contour>
      <point x="198.702" y="656.824" type="curve" smooth="yes"/>
      <point x="207.888" y="744.373"/>
      <point x="193.872" y="772.594"/>
      <point x="150.905" y="797.877" type="curve" smooth="yes"/>
      <point x="145.052" y="801.322"/>
      <point x="132.532" y="813.709"/>
      <point x="138.907" y="837.5" type="curve" smooth="yes"/>
      <point x="145.939" y="863.745"/>
      <point x="172.94" y="885"/>
      <point x="199.135" y="885" type="curve" smooth="yes"/>
      <point x="204.722" y="885"/>
      <point x="215.122" y="883.695"/>
      <point x="224.166" y="875.42" type="curve" smooth="yes"/>
      <point x="276.787" y="827.265"/>
      <point x="281.603" y="738.004"/>
      <point x="262.807" y="661.729" type="curve" smooth="yes"/>
      <point x="258.926" y="645.98"/>
      <point x="241.708" y="630"/>
      <point x="222.808" y="630" type="curve" smooth="yes"/>
      <point x="207.431" y="630"/>
      <point x="197.054" y="641.108"/>
    </contour>
  </outline>
</glyph>
<glyph name="uni059B" format="2">
  <advance width="0"/>
  <unicode hex="059B"/>
  <outline>
    <contour>
      <point x="-59.0576" y="-45" type="curve" smooth="yes"/>
      <point x="-28.1475" y="-45"/>
      <point x="-11.4033" y="-70.5479"/>
      <point x="-19.4287" y="-100.5" type="curve" smooth="yes"/>
      <point x="-27.3057" y="-129.896"/>
      <point x="-57.7422" y="-155"/>
      <point x="-88.5322" y="-155" type="curve" smooth="yes"/>
      <point x="-119.1" y="-155"/>
      <point x="-137.493" y="-130.596"/>
      <point x="-129.429" y="-100.5" type="curve" smooth="yes"/>
      <point x="-121.216" y="-69.8477"/>
      <point x="-89.6973" y="-45"/>
    </contour>
    <contour>
      <point x="28.8018" y="-36.9121" type="curve" smooth="yes"/>
      <point x="35.4805" y="-21.0928"/>
      <point x="51.9346" y="-10"/>
      <point x="67.3203" y="-10" type="curve" smooth="yes"/>
      <point x="83.7021" y="-10"/>
      <point x="96.918" y="-23.0049"/>
      <point x="91.2822" y="-41.8408" type="curve" smooth="yes"/>
      <point x="68.3516" y="-118.477"/>
      <point x="16.5801" y="-207.399"/>
      <point x="-61.8418" y="-255.42" type="curve" smooth="yes"/>
      <point x="-71.9492" y="-261.609"/>
      <point x="-82.7109" y="-265"/>
      <point x="-93.0068" y="-265" type="curve" smooth="yes"/>
      <point x="-118.472" y="-265"/>
      <point x="-135.004" y="-244.463"/>
      <point x="-127.779" y="-217.5" type="curve" smooth="yes"/>
      <point x="-123.529" y="-201.639"/>
      <point x="-109.312" y="-184.919"/>
      <point x="-93.5469" y="-177.877" type="curve" smooth="yes"/>
      <point x="-37.0303" y="-152.634"/>
      <point x="-8.13672" y="-124.414"/>
    </contour>
  </outline>
</glyph>
<glyph name="uni059E" format="2">
  <advance width="0"/>
  <unicode hex="059E"/>
  <outline>
    <contour>
      <point x="93.2881" y="656.824" type="curve" smooth="yes"/>
      <point x="86.4805" y="641.026"/>
      <point x="70.1934" y="630"/>
      <point x="54.8076" y="630" type="curve" smooth="yes"/>
      <point x="39.0576" y="630"/>
      <point x="26.3555" y="642.831"/>
      <point x="31.8125" y="661.729" type="curve" smooth="yes"/>
      <point x="53.8389" y="738.005"/>
      <point x="106.495" y="827.369"/>
      <point x="184.971" y="875.42" type="curve" smooth="yes"/>
      <point x="195.019" y="881.572"/>
      <point x="205.253" y="885"/>
      <point x="215.135" y="885" type="curve" smooth="yes"/>
      <point x="241.38" y="885"/>
      <point x="256.926" y="863.694"/>
      <point x="249.907" y="837.5" type="curve" smooth="yes"/>
      <point x="248.963" y="833.974"/>
      <point x="247.737" y="830.699"/>
      <point x="246.31" y="827.666" type="curve"/>
      <point x="263.854" y="845.944"/>
      <point x="283.44" y="862.237"/>
      <point x="304.971" y="875.42" type="curve" smooth="yes"/>
      <point x="315.019" y="881.572"/>
      <point x="325.253" y="885"/>
      <point x="335.135" y="885" type="curve" smooth="yes"/>
      <point x="361.38" y="885"/>
      <point x="376.926" y="863.694"/>
      <point x="369.907" y="837.5" type="curve" smooth="yes"/>
      <point x="363.532" y="813.709"/>
      <point x="344.376" y="801.322"/>
      <point x="336.676" y="797.877" type="curve" smooth="yes"/>
      <point x="280.175" y="772.598"/>
      <point x="251.018" y="744.368"/>
      <point x="213.288" y="656.824" type="curve" smooth="yes"/>
      <point x="206.48" y="641.026"/>
      <point x="190.193" y="630"/>
      <point x="174.808" y="630" type="curve" smooth="yes"/>
      <point x="159.058" y="630"/>
      <point x="146.355" y="642.831"/>
      <point x="151.812" y="661.729" type="curve" smooth="yes"/>
      <point x="165.089" y="707.705"/>
      <point x="189.495" y="758.438"/>
      <point x="223.976" y="802.011" type="curve"/>
      <point x="221.097" y="800.081"/>
      <point x="218.548" y="798.715"/>
      <point x="216.675" y="797.877" type="curve" smooth="yes"/>
      <point x="160.175" y="772.598"/>
      <point x="131.018" y="744.368"/>
    </contour>
  </outline>
</glyph>
<glyph name="uni05A4" format="2">
  <advance width="0"/>
  <unicode hex="05A4"/>
  <outline>
    <contour>
      <point x="71.6533" y="-22.6016" type="line" smooth="yes"/>
      <point x="74.4199" y="-21.3818"/>
      <point x="76.0811" y="-19.6514"/>
      <point x="85.6406" y="-20" type="curve" smooth="yes"/>
      <point x="88.0957" y="-20.0898"/>
      <point x="97.9062" y="-19.4688"/>
      <point x="106.151" y="-28.0547" type="curve" smooth="yes"/>
      <point x="112.082" y="-34.2285"/>
      <point x="114.807" y="-43.6387"/>
      <point x="111.896" y="-54.5" type="curve" smooth="yes"/>
      <point x="107.636" y="-70.4023"/>
      <point x="93.9248" y="-82.084"/>
      <point x="81.8711" y="-87.3984" type="curve" smooth="yes"/>
      <point x="2.2373" y="-117.364" type="line"/>
      <point x="62.6484" y="-145.283" type="line" smooth="yes"/>
      <point x="68.5957" y="-148.842"/>
      <point x="70.3447" y="-149.213"/>
      <point x="73.7695" y="-153.339" type="curve" smooth="yes"/>
      <point x="77.3633" y="-157.668"/>
      <point x="78.8525" y="-162.575"/>
      <point x="79.2754" y="-167.111" type="curve" smooth="yes"/>
      <point x="79.6777" y="-171.438"/>
      <point x="79.248" y="-176.345"/>
      <point x="77.5996" y="-182.5" type="curve" smooth="yes"/>
      <point x="70.9004" y="-207.5" type="line" smooth="yes"/>
      <point x="66.459" y="-224.075"/>
      <point x="53.123" y="-235.125"/>
      <point x="37.5605" y="-235.125" type="curve" smooth="yes"/>
      <point x="33.2959" y="-235.125"/>
      <point x="29.3545" y="-234.088"/>
      <point x="26.1865" y="-232.768" type="curve" smooth="yes"/>
      <point x="-146.172" y="-151.741" type="line" smooth="yes"/>
      <point x="-158.545" y="-146.436"/>
      <point x="-162.7" y="-136.033"/>
      <point x="-159.878" y="-125.5" type="curve" smooth="yes"/>
      <point x="-157.056" y="-114.967"/>
      <point x="-147.333" y="-104.567"/>
      <point x="-132.116" y="-99.2617" type="curve" smooth="yes"/>
    </contour>
  </outline>
</glyph>
<glyph name="uni05AB" format="2">
  <advance width="0"/>
  <unicode hex="05AB"/>
  <outline>
    <contour>
      <point x="310.881" y="843" type="line" smooth="yes"/>
      <point x="311.48" y="843"/>
      <point x="312.35" y="844"/>
      <point x="317.149" y="844" type="curve" smooth="yes"/>
      <point x="336.743" y="844"/>
      <point x="348.374" y="828.046"/>
      <point x="343.137" y="808.5" type="curve"/>
      <point x="337.327" y="796.134"/>
      <point x="338.692" y="797.008"/>
      <point x="333.428" y="791.043" type="curve" smooth="yes"/>
      <point x="328.846" y="785.854"/>
      <point x="321.63" y="780.239"/>
      <point x="313.379" y="776.602" type="curve" smooth="yes"/>
      <point x="233.745" y="746.636" type="line"/>
      <point x="294.156" y="718.717" type="line" smooth="yes"/>
      <point x="300.104" y="715.158"/>
      <point x="301.853" y="714.787"/>
      <point x="305.278" y="710.661" type="curve" smooth="yes"/>
      <point x="308.871" y="706.332"/>
      <point x="310.36" y="701.425"/>
      <point x="310.784" y="696.889" type="curve" smooth="yes"/>
      <point x="311.186" y="692.562"/>
      <point x="310.757" y="687.655"/>
      <point x="309.107" y="681.5" type="curve" smooth="yes"/>
      <point x="302.408" y="656.5" type="line" smooth="yes"/>
      <point x="297.968" y="639.925"/>
      <point x="284.632" y="628.875"/>
      <point x="269.068" y="628.875" type="curve" smooth="yes"/>
      <point x="264.805" y="628.875"/>
      <point x="260.862" y="629.912"/>
      <point x="257.694" y="631.232" type="curve" smooth="yes"/>
      <point x="85.3359" y="712.259" type="line" smooth="yes"/>
      <point x="72.9629" y="717.564"/>
      <point x="68.8086" y="727.967"/>
      <point x="71.6309" y="738.5" type="curve" smooth="yes"/>
      <point x="74.4531" y="749.033"/>
      <point x="84.1758" y="759.433"/>
      <point x="99.3916" y="764.738" type="curve" smooth="yes"/>
      <point x="307.367" y="843" type="line"/>
    </contour>
  </outline>
</glyph>
<glyph name="uni05AC" format="2">
  <advance width="0"/>
  <unicode hex="05AC"/>
  <outline>
    <contour>
      <point x="255.424" y="720" type="line"/>
      <point x="278.869" y="807.5" type="line" smooth="yes"/>
      <point x="283.746" y="825.7"/>
      <point x="301.762" y="840"/>
      <point x="320.077" y="840" type="curve" smooth="yes"/>
      <point x="325.077" y="840" type="line" smooth="yes"/>
      <point x="343.277" y="840"/>
      <point x="353.776" y="825.815"/>
      <point x="348.869" y="807.5" type="curve" smooth="yes"/>
      <point x="310.017" y="662.5" type="line" smooth="yes"/>
      <point x="305.14" y="644.3"/>
      <point x="287.123" y="630"/>
      <point x="268.808" y="630" type="curve" smooth="yes"/>
      <point x="68.8076" y="630" type="line" smooth="yes"/>
      <point x="50.6084" y="630"/>
      <point x="40.1084" y="644.185"/>
      <point x="45.0166" y="662.5" type="curve" smooth="yes"/>
      <point x="51.7148" y="687.5" type="line" smooth="yes"/>
      <point x="56.5918" y="705.7"/>
      <point x="74.6084" y="720"/>
      <point x="92.9238" y="720" type="curve" smooth="yes"/>
    </contour>
  </outline>
</glyph>
<glyph name="uni05AF" format="2">
  <advance width="0"/>
  <unicode hex="05AF"/>
  <outline>
    <contour>
      <point x="205.785" y="768" type="curve" smooth="yes"/>
      <point x="188.475" y="768"/>
      <point x="170.481" y="753.804"/>
      <point x="165.845" y="736.5" type="curve" smooth="yes"/>
      <point x="161.206" y="719.189"/>
      <point x="171.601" y="705"/>
      <point x="188.904" y="705" type="curve" smooth="yes"/>
      <point x="206.215" y="705"/>
      <point x="224.208" y="719.196"/>
      <point x="228.845" y="736.5" type="curve" smooth="yes"/>
      <point x="233.483" y="753.811"/>
      <point x="223.089" y="768"/>
    </contour>
    <contour>
      <point x="225.881" y="843" type="curve" smooth="yes"/>
      <point x="284.585" y="843"/>
      <point x="319.574" y="795.202"/>
      <point x="303.845" y="736.5" type="curve" smooth="yes"/>
      <point x="288.115" y="677.796"/>
      <point x="227.51" y="630"/>
      <point x="168.808" y="630" type="curve" smooth="yes"/>
      <point x="110.104" y="630"/>
      <point x="75.1152" y="677.798"/>
      <point x="90.8447" y="736.5" type="curve" smooth="yes"/>
      <point x="106.574" y="795.204"/>
      <point x="167.179" y="843"/>
    </contour>
  </outline>
</glyph>
<glyph name="afii57801" format="2">
  <advance width="0"/>
  <unicode hex="05B1"/>
  <outline>
    <contour>
      <point x="-134.68" y="-10" type="curve" smooth="yes"/>
      <point x="-104.112" y="-10"/>
      <point x="-85.7188" y="-34.4043"/>
      <point x="-93.7832" y="-64.5" type="curve" smooth="yes"/>
      <point x="-101.996" y="-95.1523"/>
      <point x="-133.514" y="-120"/>
      <point x="-164.154" y="-120" type="curve" smooth="yes"/>
      <point x="-194.806" y="-120"/>
      <point x="-212.992" y="-95.1396"/>
      <point x="-204.783" y="-64.5" type="curve" smooth="yes"/>
      <point x="-196.718" y="-34.4004"/>
      <point x="-165.248" y="-10"/>
    </contour>
    <contour>
      <point x="-98.4941" y="-125" type="curve" smooth="yes"/>
      <point x="-67.583" y="-125"/>
      <point x="-50.8389" y="-150.548"/>
      <point x="-58.8652" y="-180.5" type="curve" smooth="yes"/>
      <point x="-66.7412" y="-209.896"/>
      <point x="-97.1777" y="-235"/>
      <point x="-127.968" y="-235" type="curve" smooth="yes"/>
      <point x="-158.788" y="-235"/>
      <point x="-175.741" y="-209.895"/>
      <point x="-167.865" y="-180.5" type="curve" smooth="yes"/>
      <point x="-159.837" y="-150.541"/>
      <point x="-129.358" y="-125"/>
    </contour>
    <contour>
      <point x="-0.679688" y="-10" type="curve" smooth="yes"/>
      <point x="29.8877" y="-10"/>
      <point x="48.2812" y="-34.4043"/>
      <point x="40.2168" y="-64.5" type="curve" smooth="yes"/>
      <point x="32.0039" y="-95.1523"/>
      <point x="0.485352" y="-120"/>
      <point x="-30.1543" y="-120" type="curve" smooth="yes"/>
      <point x="-60.8066" y="-120"/>
      <point x="-78.9922" y="-95.1396"/>
      <point x="-70.7832" y="-64.5" type="curve" smooth="yes"/>
      <point x="-62.7178" y="-34.4004"/>
      <point x="-31.249" y="-10"/>
    </contour>
    <contour>
      <point x="98.5059" y="-125" type="curve" smooth="yes"/>
      <point x="129.158" y="-125"/>
      <point x="147.345" y="-149.86"/>
      <point x="139.135" y="-180.5" type="curve" smooth="yes"/>
      <point x="131.07" y="-210.6"/>
      <point x="99.6006" y="-235"/>
      <point x="69.0322" y="-235" type="curve" smooth="yes"/>
      <point x="38.4648" y="-235"/>
      <point x="20.0713" y="-210.596"/>
      <point x="28.1348" y="-180.5" type="curve" smooth="yes"/>
      <point x="36.3486" y="-149.848"/>
      <point x="67.8662" y="-125"/>
    </contour>
    <contour>
      <point x="129.32" y="-10" type="curve" smooth="yes"/>
      <point x="159.888" y="-10"/>
      <point x="178.281" y="-34.4043"/>
      <point x="170.217" y="-64.5" type="curve" smooth="yes"/>
      <point x="162.004" y="-95.1523"/>
      <point x="130.486" y="-120"/>
      <point x="99.8457" y="-120" type="curve" smooth="yes"/>
      <point x="69.1943" y="-120"/>
      <point x="51.0078" y="-95.1396"/>
      <point x="59.2168" y="-64.5" type="curve" smooth="yes"/>
      <point x="67.2822" y="-34.4004"/>
      <point x="98.752" y="-10"/>
    </contour>
  </outline>
</glyph>
<glyph name="afii57800" format="2">
  <advance width="0"/>
  <unicode hex="05B2"/>
  <outline>
    <contour>
      <point x="-201.567" y="-52.5" type="line" smooth="yes"/>
      <point x="-197.213" y="-36.25"/>
      <point x="-179.859" y="-20"/>
      <point x="-160.359" y="-20" type="curve" smooth="yes"/>
      <point x="17.6406" y="-20" type="line" smooth="yes"/>
      <point x="37.1406" y="-20"/>
      <point x="45.7871" y="-36.25"/>
      <point x="41.4326" y="-52.5" type="curve" smooth="yes"/>
      <point x="34.7344" y="-77.5" type="line" smooth="yes"/>
      <point x="30.3799" y="-93.75"/>
      <point x="13.0254" y="-110"/>
      <point x="-6.47461" y="-110" type="curve" smooth="yes"/>
      <point x="-184.475" y="-110" type="line" smooth="yes"/>
      <point x="-203.975" y="-110"/>
      <point x="-212.62" y="-93.75"/>
      <point x="-208.266" y="-77.5" type="curve" smooth="yes"/>
    </contour>
    <contour>
      <point x="97.5059" y="-125" type="curve" smooth="yes"/>
      <point x="128.416" y="-125"/>
      <point x="145.161" y="-150.548"/>
      <point x="137.135" y="-180.5" type="curve" smooth="yes"/>
      <point x="129.259" y="-209.896"/>
      <point x="98.8223" y="-235"/>
      <point x="68.0322" y="-235" type="curve" smooth="yes"/>
      <point x="37.4648" y="-235"/>
      <point x="19.0713" y="-210.596"/>
      <point x="27.1348" y="-180.5" type="curve" smooth="yes"/>
      <point x="35.3486" y="-149.848"/>
      <point x="66.8662" y="-125"/>
    </contour>
    <contour>
      <point x="128.32" y="-10" type="curve" smooth="yes"/>
      <point x="159.141" y="-10"/>
      <point x="176.094" y="-35.1055"/>
      <point x="168.217" y="-64.5" type="curve" smooth="yes"/>
      <point x="160.189" y="-94.459"/>
      <point x="129.711" y="-120"/>
      <point x="98.8457" y="-120" type="curve" smooth="yes"/>
      <point x="68.1943" y="-120"/>
      <point x="50.0078" y="-95.1396"/>
      <point x="58.2168" y="-64.5" type="curve" smooth="yes"/>
      <point x="66.2822" y="-34.4004"/>
      <point x="97.752" y="-10"/>
    </contour>
  </outline>
</glyph>
<glyph name="afii57802" format="2">
  <advance width="0"/>
  <unicode hex="05B3"/>
  <outline>
    <contour>
      <point x="-151.475" y="-110" type="curve" smooth="yes"/>
      <point x="-184.475" y="-110" type="line" smooth="yes"/>
      <point x="-203.975" y="-110"/>
      <point x="-212.62" y="-93.75"/>
      <point x="-208.266" y="-77.5" type="curve" smooth="yes"/>
      <point x="-201.567" y="-52.5" type="line" smooth="yes"/>
      <point x="-197.213" y="-36.25"/>
      <point x="-179.859" y="-20"/>
      <point x="-160.359" y="-20" type="curve" smooth="yes"/>
      <point x="17.6406" y="-20" type="line" smooth="yes"/>
      <point x="37.1406" y="-20"/>
      <point x="45.7871" y="-36.25"/>
      <point x="41.4326" y="-52.5" type="curve" smooth="yes"/>
      <point x="34.7344" y="-77.5" type="line" smooth="yes"/>
      <point x="30.3799" y="-93.75"/>
      <point x="13.0254" y="-110"/>
      <point x="-6.47461" y="-110" type="curve" smooth="yes"/>
      <point x="-39.4746" y="-110" type="line" smooth="yes"/>
      <point x="-44.3535" y="-110.169"/>
      <point x="-46.1611" y="-110.157"/>
      <point x="-47.8506" y="-110.288" type="curve" smooth="yes"/>
      <point x="-59.5" y="-111.186"/>
      <point x="-60.5371" y="-112.1"/>
      <point x="-62.7881" y="-120.5" type="curve" smooth="yes"/>
      <point x="-63.0254" y="-121.385"/>
      <point x="-63.7598" y="-124.039"/>
      <point x="-63.9961" y="-124.923" type="curve" smooth="yes"/>
      <point x="-65.5869" y="-130.859"/>
      <point x="-67.4873" y="-136.864"/>
      <point x="-63.627" y="-143.661" type="curve" smooth="yes"/>
      <point x="-62.4414" y="-145.748"/>
      <point x="-56.9521" y="-151.802"/>
      <point x="-57.6963" y="-167.155" type="curve" smooth="yes"/>
      <point x="-57.9082" y="-171.531"/>
      <point x="-58.6592" y="-176"/>
      <point x="-59.8652" y="-180.5" type="curve" smooth="yes"/>
      <point x="-67.7412" y="-209.896"/>
      <point x="-98.1777" y="-235"/>
      <point x="-128.968" y="-235" type="curve" smooth="yes"/>
      <point x="-159.535" y="-235"/>
      <point x="-177.929" y="-210.596"/>
      <point x="-169.865" y="-180.5" type="curve" smooth="yes"/>
      <point x="-165.906" y="-165.728"/>
      <point x="-156.215" y="-152.602"/>
      <point x="-145.382" y="-142.893" type="curve" smooth="yes"/>
      <point x="-144.49" y="-142.095"/>
      <point x="-140.958" y="-139.474"/>
      <point x="-138.628" y="-134.019" type="curve" smooth="yes"/>
      <point x="-137.692" y="-131.827"/>
      <point x="-137.052" y="-129.484"/>
      <point x="-136.777" y="-128.459" type="curve" smooth="yes"/>
      <point x="-136.019" y="-125.627"/>
      <point x="-135.426" y="-123.441"/>
      <point x="-134.788" y="-120.5" type="curve" smooth="yes"/>
      <point x="-133.244" y="-113.386"/>
      <point x="-130.753" y="-111.406"/>
      <point x="-143.947" y="-110.281" type="curve" smooth="yes"/>
      <point x="-144.377" y="-110.245"/>
      <point x="-146.274" y="-110"/>
    </contour>
    <contour>
      <point x="97.5059" y="-125" type="curve" smooth="yes"/>
      <point x="128.416" y="-125"/>
      <point x="145.161" y="-150.548"/>
      <point x="137.135" y="-180.5" type="curve" smooth="yes"/>
      <point x="129.259" y="-209.896"/>
      <point x="98.8223" y="-235"/>
      <point x="68.0322" y="-235" type="curve" smooth="yes"/>
      <point x="37.4648" y="-235"/>
      <point x="19.0713" y="-210.596"/>
      <point x="27.1348" y="-180.5" type="curve" smooth="yes"/>
      <point x="35.3486" y="-149.848"/>
      <point x="66.8662" y="-125"/>
    </contour>
    <contour>
      <point x="128.32" y="-10" type="curve" smooth="yes"/>
      <point x="159.141" y="-10"/>
      <point x="176.094" y="-35.1055"/>
      <point x="168.217" y="-64.5" type="curve" smooth="yes"/>
      <point x="160.189" y="-94.459"/>
      <point x="129.711" y="-120"/>
      <point x="98.8457" y="-120" type="curve" smooth="yes"/>
      <point x="68.1943" y="-120"/>
      <point x="50.0078" y="-95.1396"/>
      <point x="58.2168" y="-64.5" type="curve" smooth="yes"/>
      <point x="66.2822" y="-34.4004"/>
      <point x="97.752" y="-10"/>
    </contour>
  </outline>
</glyph>
<glyph name="afii57794" format="2">
  <advance width="0"/>
  <unicode hex="05B5"/>
  <outline>
    <contour>
      <point x="55.3203" y="-10" type="curve" smooth="yes"/>
      <point x="85.334" y="-10"/>
      <point x="101.156" y="-42.3359"/>
      <point x="90.5283" y="-82" type="curve" smooth="yes"/>
      <point x="84.9199" y="-102.929"/>
      <point x="55.9414" y="-120"/>
      <point x="25.8457" y="-120" type="curve" smooth="yes"/>
      <point x="-4.80664" y="-120"/>
      <point x="-25.0928" y="-102.979"/>
      <point x="-19.4717" y="-82" type="curve" smooth="yes"/>
      <point x="-8.81738" y="-42.2354"/>
      <point x="24.751" y="-10"/>
    </contour>
    <contour>
      <point x="-60.6797" y="-10" type="curve" smooth="yes"/>
      <point x="-30.1123" y="-10"/>
      <point x="-13.8184" y="-42.2402"/>
      <point x="-24.4717" y="-82" type="curve" smooth="yes"/>
      <point x="-30.0957" y="-102.987"/>
      <point x="-59.5146" y="-120"/>
      <point x="-90.1543" y="-120" type="curve" smooth="yes"/>
      <point x="-120.254" y="-120"/>
      <point x="-140.08" y="-102.93"/>
      <point x="-134.472" y="-82" type="curve" smooth="yes"/>
      <point x="-123.848" y="-42.3486"/>
      <point x="-90.7031" y="-10"/>
    </contour>
  </outline>
</glyph>
<glyph name="afii57795" format="2">
  <advance width="0"/>
  <unicode hex="05B6"/>
  <outline>
    <contour>
      <point x="-69.6797" y="-10" type="curve" smooth="yes"/>
      <point x="-38.8594" y="-10"/>
      <point x="-21.9062" y="-35.1055"/>
      <point x="-29.7832" y="-64.5" type="curve" smooth="yes"/>
      <point x="-37.8105" y="-94.459"/>
      <point x="-68.2891" y="-120"/>
      <point x="-99.1543" y="-120" type="curve" smooth="yes"/>
      <point x="-130.064" y="-120"/>
      <point x="-146.809" y="-94.4521"/>
      <point x="-138.783" y="-64.5" type="curve" smooth="yes"/>
      <point x="-130.906" y="-35.1045"/>
      <point x="-100.47" y="-10"/>
    </contour>
    <contour>
      <point x="-33.4932" y="-125" type="curve" smooth="yes"/>
      <point x="-2.8418" y="-125"/>
      <point x="15.3447" y="-149.86"/>
      <point x="7.13477" y="-180.5" type="curve" smooth="yes"/>
      <point x="-0.929688" y="-210.6"/>
      <point x="-32.3984" y="-235"/>
      <point x="-62.9678" y="-235" type="curve" smooth="yes"/>
      <point x="-93.5352" y="-235"/>
      <point x="-111.929" y="-210.596"/>
      <point x="-103.865" y="-180.5" type="curve" smooth="yes"/>
      <point x="-95.6514" y="-149.848"/>
      <point x="-64.1328" y="-125"/>
    </contour>
    <contour>
      <point x="64.3203" y="-10" type="curve" smooth="yes"/>
      <point x="95.1406" y="-10"/>
      <point x="112.094" y="-35.1055"/>
      <point x="104.217" y="-64.5" type="curve" smooth="yes"/>
      <point x="96.1895" y="-94.459"/>
      <point x="65.7109" y="-120"/>
      <point x="34.8457" y="-120" type="curve" smooth="yes"/>
      <point x="3.93555" y="-120"/>
      <point x="-12.8086" y="-94.4521"/>
      <point x="-4.7832" y="-64.5" type="curve" smooth="yes"/>
      <point x="3.09375" y="-35.1045"/>
      <point x="33.5303" y="-10"/>
    </contour>
  </outline>
</glyph>
<glyph name="afii57798" format="2">
  <advance width="0"/>
  <unicode hex="05B7"/>
  <outline>
    <contour>
      <point x="-146.567" y="-52.5" type="line" smooth="yes"/>
      <point x="-141.69" y="-34.2998"/>
      <point x="-123.674" y="-20"/>
      <point x="-105.359" y="-20" type="curve" smooth="yes"/>
      <point x="94.6406" y="-20" type="line" smooth="yes"/>
      <point x="112.841" y="-20"/>
      <point x="123.34" y="-34.1846"/>
      <point x="118.433" y="-52.5" type="curve" smooth="yes"/>
      <point x="111.734" y="-77.5" type="line" smooth="yes"/>
      <point x="106.857" y="-95.7002"/>
      <point x="88.8408" y="-110"/>
      <point x="70.5254" y="-110" type="curve" smooth="yes"/>
      <point x="-129.475" y="-110" type="line" smooth="yes"/>
      <point x="-147.675" y="-110"/>
      <point x="-158.174" y="-95.8154"/>
      <point x="-153.266" y="-77.5" type="curve" smooth="yes"/>
    </contour>
  </outline>
</glyph>
<glyph name="afii57797" format="2">
  <advance width="0"/>
  <unicode hex="05B8"/>
  <outline>
    <contour>
      <point x="7.28418" y="-151.701" type="line"/>
      <point x="6.60449" y="-152.79" type="line"/>
      <point x="7.53223" y="-155.374"/>
      <point x="8.30469" y="-158.484"/>
      <point x="8.66406" y="-162.279" type="curve" smooth="yes"/>
      <point x="9.20801" y="-168.026"/>
      <point x="8.68945" y="-174.288"/>
      <point x="6.94141" y="-180.81" type="curve" smooth="yes"/>
      <point x="-1.12305" y="-210.909"/>
      <point x="-32.5918" y="-235.31"/>
      <point x="-63.1611" y="-235.31" type="curve" smooth="yes"/>
      <point x="-93.7285" y="-235.31"/>
      <point x="-112.122" y="-210.905"/>
      <point x="-104.059" y="-180.81" type="curve" smooth="yes"/>
      <point x="-100.1" y="-166.037"/>
      <point x="-90.5391" y="-152.764"/>
      <point x="-79.5752" y="-143.202" type="curve" smooth="yes"/>
      <point x="-73.0752" y="-137.534"/>
      <point x="-70.7764" y="-131.328"/>
      <point x="-69.1416" y="-125.229" type="curve" smooth="yes"/>
      <point x="-68.9053" y="-124.346"/>
      <point x="-68.1572" y="-121.691"/>
      <point x="-67.9814" y="-120.81" type="curve" smooth="yes"/>
      <point x="-66.7646" y="-114.713"/>
      <point x="-64.5176" y="-111.738"/>
      <point x="-78.085" y="-110.592" type="curve" smooth="yes"/>
      <point x="-78.5361" y="-110.554"/>
      <point x="-80.4678" y="-110.31"/>
      <point x="-85.668" y="-110.31" type="curve" smooth="yes"/>
      <point x="-129.668" y="-110.31" type="line" smooth="yes"/>
      <point x="-147.868" y="-110.31"/>
      <point x="-158.366" y="-96.125"/>
      <point x="-153.459" y="-77.8096" type="curve" smooth="yes"/>
      <point x="-146.761" y="-52.8096" type="line" smooth="yes"/>
      <point x="-141.884" y="-34.6094"/>
      <point x="-123.868" y="-20.3096"/>
      <point x="-105.552" y="-20.3096" type="curve" smooth="yes"/>
      <point x="94.4473" y="-20.3096" type="line" smooth="yes"/>
      <point x="112.648" y="-20.3096"/>
      <point x="123.147" y="-34.4941"/>
      <point x="118.239" y="-52.8096" type="curve" smooth="yes"/>
      <point x="111.541" y="-77.8096" type="line" smooth="yes"/>
      <point x="106.664" y="-96.0098"/>
      <point x="88.6475" y="-110.31"/>
      <point x="70.332" y="-110.31" type="curve" smooth="yes"/>
      <point x="26.332" y="-110.31" type="line" smooth="yes"/>
      <point x="21.4531" y="-110.479"/>
      <point x="19.6455" y="-110.467"/>
      <point x="17.9561" y="-110.598" type="curve" smooth="yes"/>
      <point x="6.30566" y="-111.498"/>
      <point x="5.26953" y="-112.409"/>
      <point x="3.01855" y="-120.81" type="curve" smooth="yes"/>
      <point x="2.7832" y="-121.687"/>
      <point x="2.05566" y="-124.315"/>
      <point x="1.82129" y="-125.192" type="curve" smooth="yes"/>
      <point x="0.208984" y="-131.209"/>
      <point x="-1.32422" y="-137.53"/>
      <point x="2.58984" y="-143.973" type="curve" smooth="yes"/>
    </contour>
  </outline>
</glyph>
<glyph name="afii57645" format="2">
  <advance width="503"/>
  <unicode hex="05BE"/>
  <outline>
    <contour>
      <point x="194.311" y="590.822" type="line" smooth="yes"/>
      <point x="198.202" y="601.859"/>
      <point x="200.513" y="609.229"/>
      <point x="208.844" y="618" type="curve" smooth="yes"/>
      <point x="212.342" y="621.683"/>
      <point x="215.615" y="624.165"/>
      <point x="218.824" y="626.177" type="curve" smooth="yes"/>
      <point x="229.432" y="632.828"/>
      <point x="240.845" y="634.322"/>
      <point x="249.466" y="634.322" type="curve" smooth="yes"/>
      <point x="591.466" y="634.322" type="line" smooth="yes"/>
      <point x="629.466" y="634.322"/>
      <point x="632.134" y="608.822"/>
      <point x="627.578" y="591.822" type="curve" smooth="yes"/>
      <point x="598.104" y="481.822" type="line" smooth="yes"/>
      <point x="593.549" y="464.822"/>
      <point x="577.216" y="439.322"/>
      <point x="539.216" y="439.322" type="curve" smooth="yes"/>
      <point x="197.216" y="439.322" type="line" smooth="yes"/>
      <point x="185.869" y="440.066"/>
      <point x="177.982" y="440.816"/>
      <point x="170.939" y="447.468" type="curve" smooth="yes"/>
      <point x="168.809" y="449.479"/>
      <point x="166.865" y="451.962"/>
      <point x="165.341" y="455.645" type="curve" smooth="yes"/>
      <point x="161.71" y="464.416"/>
      <point x="163.204" y="474.732"/>
      <point x="165.372" y="482.822" type="curve" smooth="yes"/>
    </contour>
  </outline>
</glyph>
<glyph name="afii57842" format="2">
  <advance width="190"/>
  <unicode hex="05C0"/>
  <outline>
    <contour>
      <point x="78.4805" y="-15" type="line" smooth="yes"/>
      <point x="60.2803" y="-15"/>
      <point x="47.7354" y="-8.45312"/>
      <point x="50" y="0" type="curve" smooth="yes"/>
      <point x="222.827" y="645" type="line" smooth="yes"/>
      <point x="225.078" y="653.4"/>
      <point x="241.031" y="660"/>
      <point x="259.347" y="660" type="curve" smooth="yes"/>
      <point x="284.347" y="660" type="line" smooth="yes"/>
      <point x="302.547" y="660"/>
      <point x="315.092" y="653.453"/>
      <point x="312.827" y="645" type="curve" smooth="yes"/>
      <point x="140" y="0" type="line" smooth="yes"/>
      <point x="137.749" y="-8.40039"/>
      <point x="121.796" y="-15"/>
      <point x="103.48" y="-15" type="curve" smooth="yes"/>
    </contour>
  </outline>
</glyph>
<glyph name="afii57804" format="2">
  <advance width="0"/>
  <unicode hex="05C1"/>
  <outline>
    <contour>
      <point x="832.904" y="705" type="curve" smooth="yes"/>
      <point x="863.471" y="705"/>
      <point x="881.865" y="680.596"/>
      <point x="873.801" y="650.5" type="curve" smooth="yes"/>
      <point x="865.588" y="619.848"/>
      <point x="834.069" y="595"/>
      <point x="803.43" y="595" type="curve" smooth="yes"/>
      <point x="772.777" y="595"/>
      <point x="754.591" y="619.86"/>
      <point x="762.801" y="650.5" type="curve" smooth="yes"/>
      <point x="770.866" y="680.6"/>
      <point x="802.335" y="705"/>
    </contour>
  </outline>
</glyph>
<glyph name="afii57658" format="2">
  <advance width="435"/>
  <unicode hex="05C3"/>
  <outline>
    <contour>
      <point x="154.806" y="114.749" type="curve" smooth="yes"/>
      <point x="140.689" y="121.015"/>
      <point x="136.038" y="136.326"/>
      <point x="140.559" y="150.25" type="curve" smooth="yes"/>
      <point x="143.675" y="159.851"/>
      <point x="144.016" y="160.261"/>
      <point x="148.175" y="165.957" type="curve" smooth="yes"/>
      <point x="149.871" y="168.279"/>
      <point x="158.415" y="178.932"/>
      <point x="173.92" y="184.442" type="curve" smooth="yes"/>
      <point x="203.464" y="194.943"/>
      <point x="230.283" y="217.507"/>
      <point x="247.541" y="243.49" type="curve" smooth="yes"/>
      <point x="257.81" y="258.95"/>
      <point x="275.054" y="267.25"/>
      <point x="289.033" y="267.25" type="curve" smooth="yes"/>
      <point x="299.414" y="267.25"/>
      <point x="314.677" y="262.604"/>
      <point x="317.06" y="243.296" type="curve" smooth="yes"/>
      <point x="320.412" y="216.142"/>
      <point x="336.536" y="194.132"/>
      <point x="360.033" y="184.411" type="curve" smooth="yes"/>
      <point x="377.525" y="177.175"/>
      <point x="377.739" y="160.256"/>
      <point x="374.958" y="149.875" type="curve" smooth="yes"/>
      <point x="371.229" y="135.959"/>
      <point x="358.749" y="120.829"/>
      <point x="341.786" y="114.749" type="curve" smooth="yes"/>
      <point x="314.419" y="104.94"/>
      <point x="285.325" y="85.1807"/>
      <point x="267.214" y="56.9287" type="curve" smooth="yes"/>
      <point x="254.776" y="37.5264"/>
      <point x="236.677" y="32.75"/>
      <point x="226.324" y="32.75" type="curve" smooth="yes"/>
      <point x="215.972" y="32.75"/>
      <point x="200.433" y="37.5264"/>
      <point x="198.392" y="56.9287" type="curve" smooth="yes"/>
      <point x="195.421" y="85.1807"/>
      <point x="176.915" y="104.937"/>
    </contour>
    <contour>
      <point x="253.947" y="484.749" type="curve" smooth="yes"/>
      <point x="239.831" y="491.015"/>
      <point x="235.18" y="506.326"/>
      <point x="239.699" y="520.25" type="curve" smooth="yes"/>
      <point x="242.816" y="529.851"/>
      <point x="243.157" y="530.261"/>
      <point x="247.316" y="535.957" type="curve" smooth="yes"/>
      <point x="249.013" y="538.279"/>
      <point x="257.556" y="548.932"/>
      <point x="273.062" y="554.442" type="curve" smooth="yes"/>
      <point x="302.605" y="564.943"/>
      <point x="329.424" y="587.507"/>
      <point x="346.683" y="613.49" type="curve" smooth="yes"/>
      <point x="356.95" y="628.95"/>
      <point x="374.194" y="637.25"/>
      <point x="388.175" y="637.25" type="curve" smooth="yes"/>
      <point x="398.556" y="637.25"/>
      <point x="413.817" y="632.604"/>
      <point x="416.201" y="613.296" type="curve" smooth="yes"/>
      <point x="419.554" y="586.142"/>
      <point x="435.678" y="564.132"/>
      <point x="459.174" y="554.411" type="curve" smooth="yes"/>
      <point x="476.666" y="547.175"/>
      <point x="476.881" y="530.256"/>
      <point x="474.099" y="519.875" type="curve" smooth="yes"/>
      <point x="470.37" y="505.959"/>
      <point x="457.891" y="490.829"/>
      <point x="440.927" y="484.749" type="curve" smooth="yes"/>
      <point x="413.56" y="474.94"/>
      <point x="384.467" y="455.181"/>
      <point x="366.355" y="426.929" type="curve" smooth="yes"/>
      <point x="353.917" y="407.526"/>
      <point x="335.817" y="402.75"/>
      <point x="325.466" y="402.75" type="curve" smooth="yes"/>
      <point x="315.112" y="402.75"/>
      <point x="299.573" y="407.526"/>
      <point x="297.533" y="426.929" type="curve" smooth="yes"/>
      <point x="294.562" y="455.181"/>
      <point x="276.056" y="474.938"/>
    </contour>
  </outline>
</glyph>
<glyph name="afii57668" format="2">
  <advance width="631"/>
  <unicode hex="05D4"/>
  <outline>
    <contour>
      <point x="59.8721" y="45.9492" type="curve" smooth="yes"/>
      <point x="90.249" y="130.263"/>
      <point x="100.432" y="191.243"/>
      <point x="128.053" y="258.938" type="curve" smooth="yes"/>
      <point x="144.311" y="298.78"/>
      <point x="171.542" y="332.151"/>
      <point x="197.922" y="354.224" type="curve" smooth="yes"/>
      <point x="206.315" y="361.246"/>
      <point x="216.597" y="369.195"/>
      <point x="229.113" y="372.413" type="curve" smooth="yes"/>
      <point x="232.756" y="373.349"/>
      <point x="235.59" y="373.634"/>
      <point x="238.226" y="373.634" type="curve"/>
      <point x="241.598" y="372.721"/>
      <point x="259.688" y="374.609"/>
      <point x="261.826" y="351.104" type="curve" smooth="yes"/>
      <point x="262.396" y="345.766"/>
      <point x="261.874" y="340.277"/>
      <point x="260.391" y="334.74" type="curve" smooth="yes"/>
      <point x="259.228" y="330.4"/>
      <point x="257.646" y="326.478"/>
      <point x="255.326" y="322.256" type="curve" smooth="yes"/>
      <point x="250.808" y="313.531"/>
      <point x="247.415" y="304.013"/>
      <point x="244.559" y="293.352" type="curve" smooth="yes"/>
      <point x="240.952" y="279.892"/>
      <point x="238.42" y="264.378"/>
      <point x="234.752" y="247.343" type="curve" smooth="yes"/>
      <point x="232.504" y="236.899"/>
      <point x="229.635" y="226.21"/>
      <point x="226.861" y="215.86" type="curve" smooth="yes"/>
      <point x="211.704" y="159.293"/>
      <point x="190.032" y="102.29"/>
      <point x="138.211" y="35.6738" type="curve" smooth="yes"/>
      <point x="123.117" y="16.2705"/>
      <point x="107.411" y="0.310547"/>
      <point x="87.2266" y="-4.40918" type="curve" smooth="yes"/>
      <point x="83.9424" y="-5.17676"/>
      <point x="80.8584" y="-5.63965"/>
      <point x="79.0332" y="-5.40234" type="curve" smooth="yes"/>
      <point x="75.6328" y="-4.96094"/>
      <point x="57.8213" y="-6.52148"/>
      <point x="55.3438" y="16.9619" type="curve" smooth="yes"/>
      <point x="54.915" y="21.0283"/>
      <point x="54.7627" y="27.9062"/>
      <point x="57.6865" y="38.8193" type="curve" smooth="yes"/>
      <point x="58.0596" y="40.2109"/>
      <point x="59.373" y="44.5635"/>
    </contour>
    <contour>
      <point x="364.81" y="601.831" type="curve" smooth="yes"/>
      <point x="666.26" y="601.831" type="line" smooth="yes"/>
      <point x="739.813" y="601.831"/>
      <point x="738.329" y="556.003"/>
      <point x="727.898" y="512.802" type="curve" smooth="yes"/>
      <point x="727.354" y="510.548"/>
      <point x="726.749" y="508.122"/>
      <point x="726.127" y="505.799" type="curve" smooth="yes"/>
      <point x="715.81" y="467.295"/>
      <point x="694.266" y="427.863"/>
      <point x="641.084" y="418.885" type="curve"/>
      <point x="635.939" y="369.804"/>
      <point x="630.688" y="218.887"/>
      <point x="622.852" y="166.014" type="curve" smooth="yes"/>
      <point x="621.364" y="155.987"/>
      <point x="619.091" y="146.034"/>
      <point x="617.737" y="140.983" type="curve" smooth="yes"/>
      <point x="610.192" y="112.826"/>
      <point x="594.279" y="71.4453"/>
      <point x="560.599" y="29.0859" type="curve" smooth="yes"/>
      <point x="553.811" y="20.5488"/>
      <point x="552.379" y="18.8252"/>
      <point x="545.635" y="13.0576" type="curve" smooth="yes"/>
      <point x="533.411" y="2.15723"/>
      <point x="519.067" y="-4.68652"/>
      <point x="505.763" y="-4.68652" type="curve" smooth="yes"/>
      <point x="482.628" y="-4.68652"/>
      <point x="471.183" y="13.8223"/>
      <point x="477.85" y="38.7041" type="curve" smooth="yes"/>
      <point x="477.947" y="39.0674"/>
      <point x="478.156" y="39.7969"/>
      <point x="478.267" y="40.1611" type="curve" smooth="yes"/>
      <point x="572.47" y="416.893" type="line"/>
      <point x="246.706" y="416.893" type="line" smooth="yes"/>
      <point x="191.375" y="416.893"/>
      <point x="174.969" y="472.611"/>
      <point x="176.925" y="500.481" type="curve" smooth="yes"/>
      <point x="177.529" y="509.087"/>
      <point x="178.978" y="517.852"/>
      <point x="181.438" y="527.034" type="curve" smooth="yes"/>
      <point x="189.98" y="558.914"/>
      <point x="208.006" y="593.684"/>
      <point x="228.169" y="619.038" type="curve" smooth="yes"/>
      <point x="233.185" y="625.345"/>
      <point x="236.106" y="628.746"/>
      <point x="242.468" y="633.879" type="curve" smooth="yes"/>
      <point x="248.827" y="639.229"/>
      <point x="257.675" y="644.51"/>
      <point x="267.34" y="644.51" type="curve"/>
      <point x="273.487" y="642.749"/>
      <point x="279.686" y="644.033"/>
      <point x="285.983" y="634.326" type="curve" smooth="yes"/>
      <point x="287.49" y="632.174"/>
      <point x="289.7" y="628.511"/>
      <point x="291.344" y="621.935" type="curve" smooth="yes"/>
      <point x="294.966" y="607.444"/>
      <point x="303.195" y="601.699"/>
      <point x="340.949" y="601.699" type="curve" smooth="yes"/>
      <point x="348.416" y="601.699"/>
      <point x="356.44" y="601.831"/>
    </contour>
  </outline>
</glyph>
<glyph name="afii57671" format="2">
  <advance width="629"/>
  <unicode hex="05D7"/>
  <outline>
    <contour>
      <point x="302.434" y="440" type="line"/>
      <point x="292.083" y="431.583"/>
      <point x="278.144" y="415.82"/>
      <point x="270.325" y="397.671" type="curve" smooth="yes"/>
      <point x="264.81" y="384.866"/>
      <point x="259.498" y="368.821"/>
      <point x="255.023" y="352.119" type="curve" smooth="yes"/>
      <point x="242.791" y="306.469"/>
      <point x="236.01" y="256.963"/>
      <point x="231.827" y="238.271" type="curve" smooth="yes"/>
      <point x="227.267" y="217.889"/>
      <point x="223.25" y="198.635"/>
      <point x="218.052" y="179.233" type="curve" smooth="yes"/>
      <point x="204.588" y="128.987"/>
      <point x="185.58" y="86.7822"/>
      <point x="145.711" y="35.6738" type="curve" smooth="yes"/>
      <point x="130.588" y="16.2881"/>
      <point x="114.911" y="0.310547"/>
      <point x="94.7266" y="-4.40918" type="curve" smooth="yes"/>
      <point x="91.4424" y="-5.17676"/>
      <point x="88.3584" y="-5.63965"/>
      <point x="86.5332" y="-5.40234" type="curve" smooth="yes"/>
      <point x="83.1328" y="-4.96094"/>
      <point x="65.3213" y="-6.52148"/>
      <point x="62.8438" y="16.9619" type="curve" smooth="yes"/>
      <point x="62.3564" y="20.8096"/>
      <point x="62.1055" y="27.3184"/>
      <point x="64.8721" y="37.6455" type="curve" smooth="yes"/>
      <point x="65.2256" y="38.9629"/>
      <point x="66.4775" y="43.082"/>
      <point x="66.9551" y="44.3926" type="curve" smooth="yes"/>
      <point x="76.5986" y="70.8291"/>
      <point x="84.4258" y="96.9629"/>
      <point x="91.1963" y="122.231" type="curve" smooth="yes"/>
      <point x="100.676" y="157.61"/>
      <point x="108.254" y="191.582"/>
      <point x="116.823" y="223.562" type="curve" smooth="yes"/>
      <point x="120.496" y="237.271"/>
      <point x="124.332" y="250.645"/>
      <point x="128.664" y="263.595" type="curve" smooth="yes"/>
      <point x="142.103" y="303.756"/>
      <point x="161.472" y="361.683"/>
      <point x="216.131" y="423.391" type="curve"/>
      <point x="166.368" y="441.298"/>
      <point x="174.215" y="481.939"/>
      <point x="175.49" y="500.725" type="curve" smooth="yes"/>
      <point x="176.073" y="509.312"/>
      <point x="177.534" y="518.062"/>
      <point x="179.99" y="527.229" type="curve" smooth="yes"/>
      <point x="188.517" y="559.05"/>
      <point x="206.525" y="593.757"/>
      <point x="226.676" y="619.065" type="curve" smooth="yes"/>
      <point x="231.688" y="625.36"/>
      <point x="234.609" y="628.756"/>
      <point x="240.968" y="633.879" type="curve" smooth="yes"/>
      <point x="247.327" y="639.229"/>
      <point x="256.175" y="644.51"/>
      <point x="265.84" y="644.51" type="curve"/>
      <point x="271.986" y="642.749"/>
      <point x="278.186" y="644.033"/>
      <point x="284.483" y="634.326" type="curve" smooth="yes"/>
      <point x="285.99" y="632.174"/>
      <point x="288.204" y="628.513"/>
      <point x="289.844" y="621.935" type="curve" smooth="yes"/>
      <point x="294.411" y="603.609"/>
      <point x="312.253" y="601.699"/>
      <point x="338.818" y="601.699" type="curve" smooth="yes"/>
      <point x="346.222" y="601.699"/>
      <point x="354.168" y="601.831"/>
      <point x="362.445" y="601.831" type="curve" smooth="yes"/>
      <point x="664.76" y="601.831" type="line" smooth="yes"/>
      <point x="738.313" y="601.831"/>
      <point x="736.829" y="556.003"/>
      <point x="726.398" y="512.802" type="curve" smooth="yes"/>
      <point x="725.854" y="510.548"/>
      <point x="725.249" y="508.122"/>
      <point x="724.627" y="505.799" type="curve" smooth="yes"/>
      <point x="714.31" y="467.295"/>
      <point x="692.766" y="427.863"/>
      <point x="639.584" y="418.885" type="curve"/>
      <point x="634.439" y="369.804"/>
      <point x="629.188" y="218.887"/>
      <point x="621.352" y="166.014" type="curve" smooth="yes"/>
      <point x="619.864" y="155.987"/>
      <point x="617.591" y="146.034"/>
      <point x="616.237" y="140.983" type="curve" smooth="yes"/>
      <point x="608.692" y="112.826"/>
      <point x="592.779" y="71.4453"/>
      <point x="559.099" y="29.0859" type="curve" smooth="yes"/>
      <point x="552.311" y="20.5488"/>
      <point x="550.879" y="18.8252"/>
      <point x="544.135" y="13.0576" type="curve" smooth="yes"/>
      <point x="531.911" y="2.15723"/>
      <point x="517.567" y="-4.68652"/>
      <point x="504.263" y="-4.68652" type="curve" smooth="yes"/>
      <point x="481.128" y="-4.68652"/>
      <point x="469.954" y="14.8369"/>
      <point x="476.987" y="41.082" type="curve" smooth="yes"/>
      <point x="477.09" y="41.4658"/>
      <point x="477.31" y="42.2354"/>
      <point x="477.425" y="42.6191" type="curve" smooth="yes"/>
      <point x="577.154" y="440" type="line"/>
    </contour>
  </outline>
</glyph>
<glyph name="afii57674" format="2">
  <advance width="566"/>
  <unicode hex="05DA"/>
  <outline>
    <contour>
      <point x="354.688" y="601.54" type="curve" smooth="yes"/>
      <point x="603.682" y="601.54" type="line" smooth="yes"/>
      <point x="677.235" y="601.54"/>
      <point x="675.646" y="555.318"/>
      <point x="665.115" y="511.744" type="curve" smooth="yes"/>
      <point x="664.566" y="509.471"/>
      <point x="663.955" y="507.025"/>
      <point x="663.327" y="504.682" type="curve" smooth="yes"/>
      <point x="652.917" y="465.83"/>
      <point x="631.269" y="426.042"/>
      <point x="578.018" y="417.008" type="curve"/>
      <point x="568.913" y="353.918"/>
      <point x="480.492" y="-55.8711"/>
      <point x="473.599" y="-105.604" type="curve" smooth="yes"/>
      <point x="472.72" y="-111.685"/>
      <point x="470.744" y="-120.504"/>
      <point x="467.992" y="-130.773" type="curve" smooth="yes"/>
      <point x="460.094" y="-160.25"/>
      <point x="444.089" y="-204.813"/>
      <point x="409.185" y="-250.186" type="curve" smooth="yes"/>
      <point x="402.817" y="-258.463"/>
      <point x="399.081" y="-262.742"/>
      <point x="390.955" y="-269.348" type="curve" smooth="yes"/>
      <point x="379.362" y="-278.771"/>
      <point x="366.169" y="-284.688"/>
      <point x="353.832" y="-284.688" type="curve" smooth="yes"/>
      <point x="330.586" y="-284.688"/>
      <point x="320.003" y="-264.888"/>
      <point x="326.95" y="-238.957" type="curve" smooth="yes"/>
      <point x="327.056" y="-238.565"/>
      <point x="327.345" y="-237.539"/>
      <point x="327.461" y="-237.147" type="curve" smooth="yes"/>
      <point x="509.859" y="413.885" type="line"/>
      <point x="236.4" y="413.885" type="line" smooth="yes"/>
      <point x="181.67" y="413.885"/>
      <point x="165.89" y="470.521"/>
      <point x="167.936" y="498.654" type="curve" smooth="yes"/>
      <point x="168.595" y="507.724"/>
      <point x="170.135" y="517.024"/>
      <point x="172.75" y="526.785" type="curve" smooth="yes"/>
      <point x="182.652" y="563.741"/>
      <point x="203.034" y="598.395"/>
      <point x="219.565" y="618.799" type="curve" smooth="yes"/>
      <point x="225.367" y="625.959"/>
      <point x="228.025" y="629.769"/>
      <point x="235.368" y="635.372" type="curve" smooth="yes"/>
      <point x="241.425" y="640.14"/>
      <point x="249.714" y="644.51"/>
      <point x="258.34" y="644.51" type="curve"/>
      <point x="264.521" y="642.733"/>
      <point x="270.922" y="643.996"/>
      <point x="277.028" y="634.097" type="curve" smooth="yes"/>
      <point x="278.503" y="631.858"/>
      <point x="280.179" y="628.373"/>
      <point x="281.847" y="621.645" type="curve" smooth="yes"/>
      <point x="285.604" y="606.49"/>
      <point x="295.85" y="601.408"/>
      <point x="330.839" y="601.408" type="curve" smooth="yes"/>
      <point x="337.5" y="601.408"/>
      <point x="345.918" y="601.54"/>
    </contour>
  </outline>
</glyph>
<glyph name="afii57677" format="2">
  <advance width="612"/>
  <unicode hex="05DD"/>
  <outline>
    <contour>
      <point x="368.1" y="600.958" type="curve" smooth="yes"/>
      <point x="584.279" y="600.958" type="line" smooth="yes"/>
      <point x="693.372" y="600.958"/>
      <point x="706.223" y="513.986"/>
      <point x="683.293" y="428.414" type="curve" smooth="yes"/>
      <point x="575.199" y="25" type="line" smooth="yes"/>
      <point x="572.52" y="15"/>
      <point x="559" y="0"/>
      <point x="521" y="0" type="curve" smooth="yes"/>
      <point x="96" y="0" type="line" smooth="yes"/>
      <point x="84.6533" y="0.744141"/>
      <point x="76.7666" y="1.49414"/>
      <point x="69.7236" y="8.14551" type="curve" smooth="yes"/>
      <point x="67.5928" y="10.1572"/>
      <point x="65.6494" y="12.6396"/>
      <point x="64.125" y="16.3223" type="curve" smooth="yes"/>
      <point x="60.3682" y="24.623"/>
      <point x="61.7236" y="34.4248"/>
      <point x="63.7754" y="42.0811" type="curve" smooth="yes"/>
      <point x="119.041" y="244.604" type="line" smooth="yes"/>
      <point x="141.028" y="326.661"/>
      <point x="183.797" y="384.27"/>
      <point x="219.302" y="422.09" type="curve"/>
      <point x="187.017" y="434.422"/>
      <point x="176.505" y="468.489"/>
      <point x="179.003" y="500.948" type="curve" smooth="yes"/>
      <point x="179.621" y="508.985"/>
      <point x="181.278" y="517.475"/>
      <point x="183.599" y="526.137" type="curve" smooth="yes"/>
      <point x="193.549" y="563.27"/>
      <point x="213.655" y="598.393"/>
      <point x="230.176" y="619.064" type="curve" smooth="yes"/>
      <point x="235.202" y="625.354"/>
      <point x="238.109" y="628.755"/>
      <point x="244.468" y="633.879" type="curve" smooth="yes"/>
      <point x="250.827" y="639.229"/>
      <point x="259.675" y="644.51"/>
      <point x="269.34" y="644.51" type="curve"/>
      <point x="275.487" y="642.749"/>
      <point x="281.686" y="644.033"/>
      <point x="287.983" y="634.326" type="curve" smooth="yes"/>
      <point x="289.475" y="632.116"/>
      <point x="291.658" y="628.355"/>
      <point x="293.255" y="621.602" type="curve" smooth="yes"/>
      <point x="296.77" y="606.722"/>
      <point x="304.961" y="600.823"/>
      <point x="344.688" y="600.823" type="curve" smooth="yes"/>
      <point x="352.014" y="600.823"/>
      <point x="359.887" y="600.958"/>
    </contour>
    <contour>
      <point x="531.147" y="440" type="curve" smooth="yes"/>
      <point x="302.986" y="440" type="line"/>
      <point x="279.936" y="411.986"/>
      <point x="251.42" y="372.906"/>
      <point x="235.77" y="314.5" type="curve" smooth="yes"/>
      <point x="205.76" y="202.5" type="line" smooth="yes"/>
      <point x="204.045" y="196.1"/>
      <point x="205.194" y="195"/>
      <point x="213.197" y="195" type="curve" smooth="yes"/>
      <point x="542.191" y="195" type="line" smooth="yes"/>
      <point x="548.063" y="195"/>
      <point x="552.753" y="195.009"/>
      <point x="555.831" y="206.5" type="curve" smooth="yes"/>
      <point x="597.363" y="361.5" type="line" smooth="yes"/>
      <point x="608.406" y="402.713"/>
      <point x="583.498" y="440"/>
    </contour>
  </outline>
</glyph>
<glyph name="afii57680" format="2">
  <advance width="382"/>
  <unicode hex="05E0"/>
  <outline>
    <contour>
      <point x="234.5" y="0" type="curve" smooth="yes"/>
      <point x="41.5" y="0" type="line" smooth="yes"/>
      <point x="20.2842" y="0"/>
      <point x="9.42871" y="12.2705"/>
      <point x="14.3604" y="30.6758" type="curve" smooth="yes"/>
      <point x="15.5771" y="35.2158"/>
      <point x="17.8545" y="40.293"/>
      <point x="21.5537" y="45.9619" type="curve" smooth="yes"/>
      <point x="101.109" y="163.268" type="line" smooth="yes"/>
      <point x="116.484" y="185.341"/>
      <point x="135.433" y="195"/>
      <point x="156.75" y="195" type="curve" smooth="yes"/>
      <point x="281.75" y="195" type="line" smooth="yes"/>
      <point x="286.219" y="195.415"/>
      <point x="285.279" y="194.844"/>
      <point x="285.877" y="195.085" type="curve"/>
      <point x="286.232" y="195.635"/>
      <point x="286.487" y="195.434"/>
      <point x="287.175" y="197.999" type="curve" smooth="yes"/>
      <point x="287.275" y="198.374"/>
      <point x="287.53" y="199.508"/>
      <point x="287.602" y="199.881" type="curve" smooth="yes"/>
      <point x="295.035" y="238.546"/>
      <point x="301.267" y="266.343"/>
      <point x="307.516" y="289.665" type="curve" smooth="yes"/>
      <point x="318.424" y="330.375"/>
      <point x="329.144" y="356.508"/>
      <point x="345.65" y="401.73" type="curve" smooth="yes"/>
      <point x="346.728" y="405.751"/>
      <point x="345.34" y="407.891"/>
      <point x="341.463" y="408.446" type="curve" smooth="yes"/>
      <point x="303.355" y="413.904"/>
      <point x="268.63" y="418.978"/>
      <point x="245.044" y="446.062" type="curve" smooth="yes"/>
      <point x="234.014" y="458.732"/>
      <point x="226.528" y="475.553"/>
      <point x="225.138" y="493.823" type="curve" smooth="yes"/>
      <point x="224.021" y="508.488"/>
      <point x="227.185" y="524.476"/>
      <point x="230.764" y="537.835" type="curve" smooth="yes"/>
      <point x="231.802" y="541.709"/>
      <point x="232.946" y="545.229"/>
      <point x="234.061" y="548.734" type="curve" smooth="yes"/>
      <point x="242.236" y="574.46"/>
      <point x="260.418" y="601.476"/>
      <point x="270.72" y="612.138" type="curve" smooth="yes"/>
      <point x="280.422" y="622.18"/>
      <point x="293.358" y="635.812"/>
      <point x="310.169" y="641.521" type="curve" smooth="yes"/>
      <point x="314.408" y="643.062"/>
      <point x="319.097" y="644.427"/>
      <point x="323.337" y="643.999" type="curve" smooth="yes"/>
      <point x="331.479" y="643.179"/>
      <point x="331.83" y="643.243"/>
      <point x="336.239" y="640.992" type="curve" smooth="yes"/>
      <point x="346.142" y="636.231"/>
      <point x="352.603" y="625.045"/>
      <point x="355.674" y="617.102" type="curve" smooth="yes"/>
      <point x="360.684" y="604.143"/>
      <point x="388.505" y="598.504"/>
      <point x="398.798" y="595.83" type="curve" smooth="yes"/>
      <point x="441.594" y="584.714"/>
      <point x="467.032" y="556.393"/>
      <point x="465.637" y="518.906" type="curve" smooth="yes"/>
      <point x="465.229" y="507.936"/>
      <point x="463.615" y="497.788"/>
      <point x="461.105" y="488.424" type="curve" smooth="yes"/>
      <point x="448.586" y="441.698"/>
      <point x="417.638" y="420.347"/>
      <point x="413.078" y="403.355" type="curve" smooth="yes"/>
      <point x="412.949" y="402.877"/>
      <point x="412.516" y="401.326"/>
      <point x="412.388" y="400.847" type="curve" smooth="yes"/>
      <point x="394.936" y="335.714"/>
      <point x="417.041" y="276.998"/>
      <point x="397.38" y="184.382" type="curve" smooth="yes"/>
      <point x="393.893" y="167.956"/>
      <point x="390.803" y="152.825"/>
      <point x="386.865" y="138.131" type="curve" smooth="yes"/>
      <point x="378.773" y="107.934"/>
      <point x="367.069" y="79.0869"/>
      <point x="343.336" y="49.0674" type="curve" smooth="yes"/>
      <point x="304.322" y="-0.277344"/>
      <point x="252.357" y="0"/>
    </contour>
  </outline>
</glyph>
<glyph name="afii57684" format="2">
  <advance width="526"/>
  <unicode hex="05E4"/>
  <outline>
    <contour>
      <point x="186.806" y="212" type="curve"/>
      <point x="203.687" y="209.279"/>
      <point x="246.936" y="214.724"/>
      <point x="271.981" y="214.724" type="curve" smooth="yes"/>
      <point x="286.831" y="214.724"/>
      <point x="322.097" y="215.408"/>
      <point x="350.105" y="229.183" type="curve" smooth="yes"/>
      <point x="384.63" y="246.161"/>
      <point x="402.909" y="271.84"/>
      <point x="410.061" y="298.527" type="curve" smooth="yes"/>
      <point x="412.583" y="307.943"/>
      <point x="413.595" y="317.064"/>
      <point x="413.958" y="325.956" type="curve" smooth="yes"/>
      <point x="415.529" y="364.462"/>
      <point x="390.14" y="388.225"/>
      <point x="351.64" y="388.225" type="curve" smooth="yes"/>
      <point x="351.104" y="388.225"/>
      <point x="349.588" y="388.195"/>
      <point x="349.05" y="388.184" type="curve" smooth="yes"/>
      <point x="339.352" y="387.978"/>
      <point x="329.744" y="387.75"/>
      <point x="320.549" y="387.75" type="curve" smooth="yes"/>
      <point x="296.775" y="387.75"/>
      <point x="282.38" y="389.63"/>
      <point x="274.615" y="392.865" type="curve" smooth="yes"/>
      <point x="268.399" y="395.455"/>
      <point x="267.981" y="397.358"/>
      <point x="268.343" y="400.722" type="curve" smooth="yes"/>
      <point x="268.399" y="401.245"/>
      <point x="268.821" y="402.783"/>
      <point x="268.963" y="403.312" type="curve" smooth="yes"/>
      <point x="269.734" y="406.191"/>
      <point x="270.653" y="408.516"/>
      <point x="271.675" y="410.44" type="curve" smooth="yes"/>
      <point x="273.307" y="413.513"/>
      <point x="275.043" y="415.368"/>
      <point x="276.558" y="416.796" type="curve" smooth="yes"/>
      <point x="280.39" y="420.407"/>
      <point x="284.957" y="422.898"/>
      <point x="288.804" y="424.748" type="curve"/>
      <point x="353.367" y="415.974"/>
      <point x="473.146" y="440.314"/>
      <point x="505.208" y="372.793" type="curve" smooth="yes"/>
      <point x="517.987" y="348.291"/>
      <point x="515.48" y="292.465"/>
      <point x="492.686" y="207.392" type="curve" smooth="yes"/>
      <point x="491.46" y="202.819"/>
      <point x="480.003" y="156.292"/>
      <point x="478.729" y="152" type="curve"/>
      <point x="186.729" y="152" type="line"/>
      <point x="146.996" y="153" type="line"/>
      <point x="138.39" y="148.096"/>
      <point x="106.596" y="157.901"/>
      <point x="99.6562" y="148" type="curve" smooth="yes"/>
      <point x="30.8262" y="43.2471" type="line" smooth="yes"/>
      <point x="27.2764" y="37.8438"/>
      <point x="25" y="33.0635"/>
      <point x="23.8467" y="28.7607" type="curve" smooth="yes"/>
      <point x="19.1738" y="11.3193"/>
      <point x="30.2012" y="-0.30957"/>
      <point x="51.417" y="-0.30957" type="curve" smooth="yes"/>
      <point x="395.417" y="-0.30957" type="line" smooth="yes"/>
      <point x="423.551" y="-0.30957"/>
      <point x="441.163" y="17.2393"/>
      <point x="450.438" y="29.5254" type="curve" smooth="yes"/>
      <point x="533.123" y="146.735" type="line" smooth="yes"/>
      <point x="543.845" y="163.188"/>
      <point x="547.801" y="173.383"/>
      <point x="553.169" y="191.009" type="curve" smooth="yes"/>
      <point x="560.199" y="214.095"/>
      <point x="566.639" y="237.137"/>
      <point x="572.655" y="259.592" type="curve" smooth="yes"/>
      <point x="600.5" y="363.511"/>
      <point x="620.157" y="468.486"/>
      <point x="592.043" y="527.197" type="curve" smooth="yes"/>
      <point x="557.36" y="599.625"/>
      <point x="447.781" y="598.185"/>
      <point x="387.635" y="601.459" type="curve" smooth="yes"/>
      <point x="354.13" y="603.283"/>
      <point x="323.625" y="597.942"/>
      <point x="317.757" y="621.611" type="curve" smooth="yes"/>
      <point x="316.124" y="628.199"/>
      <point x="313.907" y="631.862"/>
      <point x="312.4" y="634.017" type="curve" smooth="yes"/>
      <point x="306.103" y="643.724"/>
      <point x="299.904" y="642.439"/>
      <point x="293.757" y="644.2" type="curve"/>
      <point x="284.092" y="644.2"/>
      <point x="275.244" y="638.919"/>
      <point x="268.885" y="633.569" type="curve" smooth="yes"/>
      <point x="262.524" y="628.438"/>
      <point x="259.609" y="625.035"/>
      <point x="254.587" y="618.734" type="curve" smooth="yes"/>
      <point x="236.554" y="596.11"/>
      <point x="221.726" y="569.177"/>
      <point x="213.932" y="540.089" type="curve" smooth="yes"/>
      <point x="210.761" y="528.256"/>
      <point x="208.963" y="516.226"/>
      <point x="208.356" y="503.766" type="curve" smooth="yes"/>
      <point x="207.462" y="485.361"/>
      <point x="207.311" y="460.368"/>
      <point x="230.162" y="441.56" type="curve"/>
      <point x="197.233" y="418.224"/>
      <point x="162.247" y="386.501"/>
      <point x="145.72" y="341.993" type="curve" smooth="yes"/>
      <point x="143.338" y="335.577"/>
      <point x="141.304" y="329.354"/>
      <point x="139.674" y="323.27" type="curve" smooth="yes"/>
      <point x="135.465" y="307.562"/>
      <point x="128.737" y="278.714"/>
      <point x="149.63" y="247.049" type="curve"/>
      <point x="149.63" y="247.049"/>
      <point x="180.397" y="208.914"/>
    </contour>
  </outline>
</glyph>
<glyph name="afii57685" format="2">
  <advance width="607"/>
  <unicode hex="05E5"/>
  <outline>
    <contour>
      <point x="563.093" y="397.114" type="curve"/>
      <point x="291.033" y="177.856" type="line"/>
      <point x="278.063" y="159.313"/>
      <point x="271.222" y="144.982"/>
      <point x="269.529" y="138.667" type="curve" smooth="yes"/>
      <point x="269.693" y="139.276"/>
      <point x="270.016" y="140.369"/>
      <point x="270.225" y="140.896" type="curve" smooth="yes"/>
      <point x="270.195" y="140.491"/>
      <point x="270.155" y="140.089"/>
      <point x="270.107" y="139.688" type="curve" smooth="yes"/>
      <point x="266.148" y="62.1533"/>
      <point x="251.684" y="-68.4385"/>
      <point x="237.753" y="-120.429" type="curve" smooth="yes"/>
      <point x="237.393" y="-121.775"/>
      <point x="236.665" y="-124.643"/>
      <point x="235.689" y="-127.328" type="curve" smooth="yes"/>
      <point x="220.478" y="-170.332"/>
      <point x="190.129" y="-212.396"/>
      <point x="139.667" y="-262.631" type="curve" smooth="yes"/>
      <point x="137.867" y="-264.101"/>
      <point x="132.654" y="-267.7"/>
      <point x="130.797" y="-268.845" type="curve" smooth="yes"/>
      <point x="119.156" y="-275.267"/>
      <point x="105.041" y="-280.06"/>
      <point x="91.7676" y="-279.688" type="curve" smooth="yes"/>
      <point x="87.918" y="-279.603"/>
      <point x="67.1465" y="-279.597"/>
      <point x="63.7178" y="-267.175" type="curve" smooth="yes"/>
      <point x="63.2529" y="-264.209"/>
      <point x="63.8125" y="-261.094"/>
      <point x="64.2422" y="-259.487" type="curve" smooth="yes"/>
      <point x="64.5215" y="-258.446"/>
      <point x="65.3838" y="-255.646"/>
      <point x="65.7031" y="-254.608" type="curve" smooth="yes"/>
      <point x="78.752" y="-213.182"/>
      <point x="92.4062" y="-166.166"/>
      <point x="106.346" y="-114.142" type="curve" smooth="yes"/>
      <point x="114.08" y="-85.2773"/>
      <point x="122.041" y="-55.0322"/>
      <point x="129.608" y="-23.4648" type="curve" smooth="yes"/>
      <point x="152.885" y="73.7266"/>
      <point x="154.671" y="129.727"/>
      <point x="179.841" y="231.194" type="curve" smooth="yes"/>
      <point x="180.959" y="235.701"/>
      <point x="182.145" y="240.18"/>
      <point x="183.315" y="244.552" type="curve" smooth="yes"/>
      <point x="199.239" y="303.979"/>
      <point x="219.45" y="352.468"/>
      <point x="262.307" y="414.382" type="curve"/>
      <point x="245.43" y="414.309"/>
      <point x="228.438" y="414.223"/>
      <point x="206.772" y="413.896" type="curve" smooth="yes"/>
      <point x="184.33" y="428.594"/>
      <point x="171.915" y="456.45"/>
      <point x="170.677" y="480.222" type="curve" smooth="yes"/>
      <point x="169.17" y="502.285"/>
      <point x="171.702" y="522.673"/>
      <point x="176.414" y="540.259" type="curve" smooth="yes"/>
      <point x="177.169" y="543.077"/>
      <point x="177.997" y="545.286"/>
      <point x="178.729" y="547.942" type="curve" smooth="yes"/>
      <point x="183.609" y="565.561"/>
      <point x="199.604" y="599.967"/>
      <point x="212.749" y="614.384" type="curve" smooth="yes"/>
      <point x="230.668" y="633.152"/>
      <point x="239.489" y="639.356"/>
      <point x="247.415" y="643.19" type="curve" smooth="yes"/>
      <point x="252.027" y="644.498"/>
      <point x="258.287" y="645.864"/>
      <point x="264.979" y="645.661" type="curve" smooth="yes"/>
      <point x="268.732" y="645.543"/>
      <point x="274.213" y="645.766"/>
      <point x="282.331" y="642.707" type="curve" smooth="yes"/>
      <point x="289.798" y="637.811"/>
      <point x="293.981" y="630.021"/>
      <point x="295.999" y="626.438" type="curve" smooth="yes"/>
      <point x="299.374" y="608.068"/>
      <point x="317.693" y="604.149"/>
      <point x="330.606" y="600.473" type="curve" smooth="yes"/>
      <point x="359.11" y="595.664"/>
      <point x="379.882" y="590.42"/>
      <point x="401.967" y="573.492" type="curve" smooth="yes"/>
      <point x="422.708" y="558.926"/>
      <point x="425.616" y="536.971"/>
      <point x="420.09" y="516.348" type="curve" smooth="yes"/>
      <point x="412.308" y="487.302"/>
      <point x="391.871" y="447.168"/>
      <point x="357.584" y="418.88" type="curve" smooth="yes"/>
      <point x="347.898" y="415.091"/>
      <point x="337.526" y="409.562"/>
      <point x="336.079" y="408.451" type="curve" smooth="yes"/>
      <point x="309.27" y="372.883"/>
      <point x="296.748" y="353.605"/>
      <point x="285.266" y="322.384" type="curve" smooth="yes"/>
      <point x="283.806" y="318.344"/>
      <point x="282.936" y="314.564"/>
      <point x="281.76" y="310.178" type="curve" smooth="yes"/>
      <point x="276.239" y="289.576"/>
      <point x="271.827" y="265.537"/>
      <point x="270.472" y="241.437" type="curve"/>
      <point x="508.609" y="428.162" type="line"/>
      <point x="482.614" y="454.384"/>
      <point x="476.884" y="487.058"/>
      <point x="487.167" y="530.471" type="curve" smooth="yes"/>
      <point x="487.43" y="531.58"/>
      <point x="488.285" y="534.946"/>
      <point x="488.583" y="536.058" type="curve" smooth="yes"/>
      <point x="492.284" y="549.871"/>
      <point x="501.021" y="586.599"/>
      <point x="561.947" y="628.213" type="curve" smooth="yes"/>
      <point x="568.926" y="632.757"/>
      <point x="572.043" y="635.006"/>
      <point x="579.781" y="638.764" type="curve" smooth="yes"/>
      <point x="588.657" y="642.22"/>
      <point x="601.248" y="645.952"/>
      <point x="612.545" y="645.757" type="curve" smooth="yes"/>
      <point x="614.766" y="645.729"/>
      <point x="623.4" y="645.999"/>
      <point x="632.211" y="642.343" type="curve" smooth="yes"/>
      <point x="638.656" y="638.391"/>
      <point x="640.935" y="632.8"/>
      <point x="642.791" y="628.21" type="curve" smooth="yes"/>
      <point x="643.826" y="617.891"/>
      <point x="650.938" y="598.896"/>
      <point x="662.832" y="588.44" type="curve" smooth="yes"/>
      <point x="695.292" y="570.196"/>
      <point x="716.362" y="540.818"/>
      <point x="708.771" y="503.479" type="curve" smooth="yes"/>
      <point x="708.138" y="500.414"/>
      <point x="707.383" y="497.271"/>
      <point x="706.59" y="494.312" type="curve" smooth="yes"/>
      <point x="696.655" y="457.237"/>
      <point x="678.31" y="431.537"/>
      <point x="646.988" y="401.889" type="curve" smooth="yes"/>
      <point x="639.47" y="394.773"/>
      <point x="621.627" y="377.324"/>
      <point x="603.952" y="372.117" type="curve" smooth="yes"/>
      <point x="599.872" y="370.915"/>
      <point x="596.643" y="370.269"/>
      <point x="593.678" y="370.526" type="curve" smooth="yes"/>
      <point x="591.764" y="370.693"/>
      <point x="584.119" y="370.113"/>
      <point x="577.523" y="376.777" type="curve" smooth="yes"/>
      <point x="576.747" y="377.562"/>
      <point x="574.811" y="380.136"/>
      <point x="574.236" y="381.086" type="curve" smooth="yes"/>
      <point x="569.772" y="388.477"/>
      <point x="567.143" y="392.959"/>
    </contour>
  </outline>
</glyph>
<glyph name="afii57687" format="2">
  <advance width="614"/>
  <unicode hex="05E7"/>
  <outline>
    <contour>
      <point x="192.611" y="231.737" type="curve" smooth="yes"/>
      <point x="191.32" y="227.004"/>
      <point x="189.738" y="221.894"/>
      <point x="188.411" y="216.94" type="curve" smooth="yes"/>
      <point x="163.101" y="122.479"/>
      <point x="156.329" y="-6.37402"/>
      <point x="134.009" y="-89.6758" type="curve" smooth="yes"/>
      <point x="133.778" y="-90.5332"/>
      <point x="133.068" y="-93.124"/>
      <point x="132.825" y="-93.9814" type="curve" smooth="yes"/>
      <point x="113.394" y="-162.394"/>
      <point x="93.1182" y="-231.675"/>
      <point x="22.3193" y="-297.967" type="curve" smooth="yes"/>
      <point x="3.92188" y="-314.278"/>
      <point x="-4.12305" y="-319.152"/>
      <point x="-11.5771" y="-322.702" type="curve" smooth="yes"/>
      <point x="-15.8555" y="-323.833"/>
      <point x="-21.4258" y="-324.905"/>
      <point x="-27.5977" y="-324.905" type="curve"/>
      <point x="-35.5273" y="-323.618"/>
      <point x="-47.7422" y="-324.074"/>
      <point x="-49.0723" y="-315.891" type="curve" smooth="yes"/>
      <point x="-48.8984" y="-312.473"/>
      <point x="-48.0479" y="-309"/>
      <point x="-47.5713" y="-307.219" type="curve" smooth="yes"/>
      <point x="-46.2236" y="-302.189"/>
      <point x="-44.4512" y="-296.873"/>
      <point x="-42.3555" y="-290.846" type="curve" smooth="yes"/>
      <point x="-28.6865" y="-252.584"/>
      <point x="-19.752" y="-222.933"/>
      <point x="-12.5703" y="-196.131" type="curve" smooth="yes"/>
      <point x="0.574219" y="-147.075"/>
      <point x="7.73438" y="-107.088"/>
      <point x="24.3496" y="-45.0811" type="curve" smooth="yes"/>
      <point x="25.6875" y="-40.0859"/>
      <point x="27.0859" y="-34.9424"/>
      <point x="28.5557" y="-29.6533" type="curve" smooth="yes"/>
      <point x="30.1465" y="-23.9287"/>
      <point x="31.7051" y="-18.2285"/>
      <point x="33.2207" y="-12.5703" type="curve" smooth="yes"/>
      <point x="47.5654" y="40.9639"/>
      <point x="58.6748" y="91.4365"/>
      <point x="70.9141" y="137.112" type="curve" smooth="yes"/>
      <point x="78.8242" y="166.634"/>
      <point x="87.0811" y="194.274"/>
      <point x="97.4893" y="219.489" type="curve" smooth="yes"/>
      <point x="113.967" y="259.401"/>
      <point x="145.022" y="316.405"/>
      <point x="195.192" y="359.549" type="curve" smooth="yes"/>
      <point x="204.535" y="367.583"/>
      <point x="216.806" y="377.593"/>
      <point x="231.207" y="381.122" type="curve" smooth="yes"/>
      <point x="234.711" y="381.934"/>
      <point x="237.525" y="382.188"/>
      <point x="240.165" y="382.188" type="curve" smooth="yes"/>
      <point x="259.288" y="382.188"/>
      <point x="265.69" y="367.812"/>
      <point x="261.692" y="353.415" type="curve" smooth="yes"/>
      <point x="261.692" y="353.415"/>
      <point x="260.438" y="347.912"/>
      <point x="256.094" y="340.508" type="curve" smooth="yes"/>
      <point x="255.589" y="339.646"/>
      <point x="253.965" y="337.084"/>
      <point x="253.393" y="336.243" type="curve" smooth="yes"/>
      <point x="251.604" y="333.611"/>
      <point x="249.673" y="331.05"/>
      <point x="246.85" y="327.742" type="curve" smooth="yes"/>
      <point x="207.827" y="282.007"/>
      <point x="200.282" y="259.87"/>
    </contour>
    <contour>
      <point x="374.161" y="599.76" type="curve" smooth="yes"/>
      <point x="412.412" y="596.817"/>
      <point x="612.109" y="610.582"/>
      <point x="675.747" y="538.009" type="curve" smooth="yes"/>
      <point x="712.288" y="489.016"/>
      <point x="695.432" y="378.438"/>
      <point x="674.581" y="300.626" type="curve" smooth="yes"/>
      <point x="657.412" y="236.55"/>
      <point x="635.503" y="184.516"/>
      <point x="618.876" y="157.996" type="curve" smooth="yes"/>
      <point x="596.44" y="123.49"/>
      <point x="543.308" y="80.6104"/>
      <point x="481.573" y="61.0029" type="curve" smooth="yes"/>
      <point x="403.234" y="30.7773"/>
      <point x="287.374" y="34.7197"/>
      <point x="253.23" y="-4.65723" type="curve" smooth="yes"/>
      <point x="247.251" y="-9.19629"/>
      <point x="245.69" y="-10.1484"/>
      <point x="239.398" y="-12.7441" type="curve" smooth="yes"/>
      <point x="235.515" y="-13.9961"/>
      <point x="227.13" y="-16.5234"/>
      <point x="215.901" y="-16.3496" type="curve" smooth="yes"/>
      <point x="213.369" y="-16.3105"/>
      <point x="203.41" y="-16.4844"/>
      <point x="193.778" y="-12.543" type="curve" smooth="yes"/>
      <point x="184.3" y="-7.24512"/>
      <point x="180.691" y="1.01074"/>
      <point x="182.793" y="10.0098" type="curve" smooth="yes"/>
      <point x="186.611" y="25.3447"/>
      <point x="194.154" y="42.6631"/>
      <point x="206.886" y="61.5576" type="curve" smooth="yes"/>
      <point x="248.988" y="122.448"/>
      <point x="318.541" y="151.358"/>
      <point x="395.098" y="174.271" type="curve" smooth="yes"/>
      <point x="468.692" y="192.449"/>
      <point x="518.767" y="185.119"/>
      <point x="559.162" y="214.42" type="curve" smooth="yes"/>
      <point x="576.939" y="227.015"/>
      <point x="595.16" y="254.303"/>
      <point x="604.575" y="289.44" type="curve" smooth="yes"/>
      <point x="616.081" y="332.381"/>
      <point x="613.535" y="367.222"/>
      <point x="602.124" y="383.406" type="curve" smooth="yes"/>
      <point x="559.932" y="416.543"/>
      <point x="307.103" y="401.439"/>
      <point x="242.789" y="412.273" type="curve" smooth="yes"/>
      <point x="184.649" y="432.623"/>
      <point x="185.229" y="476.912"/>
      <point x="187.667" y="510.345" type="curve" smooth="yes"/>
      <point x="188.581" y="524.752"/>
      <point x="191.142" y="539.008"/>
      <point x="194.82" y="552.737" type="curve" smooth="yes"/>
      <point x="202.267" y="580.529"/>
      <point x="216.774" y="606.264"/>
      <point x="234.538" y="627.88" type="curve" smooth="yes"/>
      <point x="239.196" y="632.825"/>
      <point x="241.916" y="635.497"/>
      <point x="247.98" y="639.524" type="curve" smooth="yes"/>
      <point x="253.578" y="642.033"/>
      <point x="261.675" y="644.51"/>
      <point x="271.34" y="644.51" type="curve"/>
      <point x="277.75" y="643.73"/>
      <point x="283.757" y="644.299"/>
      <point x="291.504" y="640.001" type="curve" smooth="yes"/>
      <point x="293.171" y="638.446"/>
      <point x="295.662" y="635.803"/>
      <point x="297.786" y="631.05" type="curve" smooth="yes"/>
      <point x="300.203" y="595.859"/>
      <point x="327.336" y="606.644"/>
      <point x="372.602" y="600" type="curve" smooth="yes"/>
      <point x="373.136" y="599.939"/>
      <point x="373.656" y="599.859"/>
    </contour>
  </outline>
</glyph>
<glyph name="afii57689" format="2">
  <advance width="786"/>
  <unicode hex="05E9"/>
  <outline>
    <contour>
      <point x="502.509" y="397.645" type="curve"/>
      <point x="337.22" y="195" type="line"/>
      <point x="446.75" y="195" type="line" smooth="yes"/>
      <point x="506.879" y="195"/>
      <point x="554.177" y="216.336"/>
      <point x="587.723" y="247.037" type="curve" smooth="yes"/>
      <point x="650.872" y="331.088"/>
      <point x="725.603" y="403.061"/>
      <point x="730.852" y="408.397" type="curve"/>
      <point x="717.756" y="418.531"/>
      <point x="669.184" y="448.254"/>
      <point x="668.558" y="495.459" type="curve" smooth="yes"/>
      <point x="668.396" y="507.783"/>
      <point x="669.701" y="519.535"/>
      <point x="672.756" y="530.936" type="curve" smooth="yes"/>
      <point x="677.048" y="546.954"/>
      <point x="687.215" y="579.814"/>
      <point x="742.384" y="622.736" type="curve" smooth="yes"/>
      <point x="748.953" y="627.848"/>
      <point x="752.178" y="630.381"/>
      <point x="759.497" y="634.537" type="curve" smooth="yes"/>
      <point x="769.788" y="640.771"/>
      <point x="781.09" y="645.542"/>
      <point x="791.645" y="645.25" type="curve" smooth="yes"/>
      <point x="793.847" y="645.188"/>
      <point x="802.425" y="645.764"/>
      <point x="810.383" y="638.399" type="curve" smooth="yes"/>
      <point x="812" y="636.998"/>
      <point x="818.451" y="631.495"/>
      <point x="820.403" y="617.886" type="curve" smooth="yes"/>
      <point x="820.603" y="616.489"/>
      <point x="826.691" y="598.941"/>
      <point x="843.011" y="588.331" type="curve" smooth="yes"/>
      <point x="873.958" y="568.209"/>
      <point x="894.094" y="535.665"/>
      <point x="885.434" y="494.343" type="curve" smooth="yes"/>
      <point x="884.672" y="490.71"/>
      <point x="883.886" y="487.462"/>
      <point x="882.972" y="484.049" type="curve" smooth="yes"/>
      <point x="873.628" y="449.177"/>
      <point x="856.155" y="424.495"/>
      <point x="825.521" y="396.84" type="curve" smooth="yes"/>
      <point x="823.294" y="394.83"/>
      <point x="812.056" y="384.364"/>
      <point x="801.889" y="378.685" type="curve" smooth="yes"/>
      <point x="796.894" y="375.896"/>
      <point x="790.574" y="373.385"/>
      <point x="783.998" y="373.385" type="curve" smooth="yes"/>
      <point x="783.378" y="373.385"/>
      <point x="781.83" y="373.52"/>
      <point x="780.555" y="373.672" type="curve"/>
      <point x="736.377" y="329.948"/>
      <point x="688.179" y="259.869"/>
      <point x="626.747" y="153.664" type="curve" smooth="yes"/>
      <point x="593.452" y="97.7471"/>
      <point x="547.351" y="0"/>
      <point x="394.5" y="0" type="curve" smooth="yes"/>
      <point x="131.5" y="0" type="line" smooth="yes"/>
      <point x="114.857" y="0"/>
      <point x="101.571" y="9.59668"/>
      <point x="107.258" y="30.8203" type="curve" smooth="yes"/>
      <point x="112.712" y="51.1748"/>
      <point x="122.063" y="91.0527"/>
      <point x="126.543" y="117.415" type="curve" smooth="yes"/>
      <point x="142.364" y="210.531"/>
      <point x="132.757" y="200.777"/>
      <point x="151.573" y="270.834" type="curve" smooth="yes"/>
      <point x="162.769" y="312.514"/>
      <point x="191.356" y="356.643"/>
      <point x="213.246" y="393.396" type="curve" smooth="yes"/>
      <point x="216.285" y="398.498"/>
      <point x="217.915" y="402.061"/>
      <point x="218.377" y="404.178" type="curve" smooth="yes"/>
      <point x="218.509" y="404.78"/>
      <point x="218.602" y="405.228"/>
      <point x="218.662" y="405.58" type="curve"/>
      <point x="199.948" y="413.575"/>
      <point x="186.883" y="425.019"/>
      <point x="178.639" y="436.886" type="curve" smooth="yes"/>
      <point x="169.581" y="449.928"/>
      <point x="165.381" y="467.344"/>
      <point x="166.719" y="486.649" type="curve" smooth="yes"/>
      <point x="167.441" y="497.068"/>
      <point x="169.072" y="506.897"/>
      <point x="171.606" y="516.354" type="curve" smooth="yes"/>
      <point x="174.14" y="525.809"/>
      <point x="177.327" y="534.564"/>
      <point x="180.44" y="542.23" type="curve" smooth="yes"/>
      <point x="191.51" y="569.485"/>
      <point x="209.989" y="597.098"/>
      <point x="220.67" y="608.527" type="curve" smooth="yes"/>
      <point x="227.811" y="616.17"/>
      <point x="244.472" y="635.456"/>
      <point x="262.554" y="642.072" type="curve" smooth="yes"/>
      <point x="267.684" y="644.041"/>
      <point x="272.055" y="644.896"/>
      <point x="275.744" y="644.698" type="curve" smooth="yes"/>
      <point x="277.575" y="644.601"/>
      <point x="284.429" y="645.055"/>
      <point x="291.773" y="639.352" type="curve" smooth="yes"/>
      <point x="300.035" y="633.494"/>
      <point x="304.479" y="622.816"/>
      <point x="306.199" y="618.021" type="curve" smooth="yes"/>
      <point x="309.421" y="609.053"/>
      <point x="319.037" y="598.707"/>
      <point x="338.85" y="593.992" type="curve" smooth="yes"/>
      <point x="353.038" y="590.617"/>
      <point x="396.141" y="578.35"/>
      <point x="408.746" y="529.471" type="curve" smooth="yes"/>
      <point x="411.27" y="519.684"/>
      <point x="413.102" y="502.244"/>
      <point x="405.808" y="475.021" type="curve" smooth="yes"/>
      <point x="402.235" y="461.689"/>
      <point x="397.04" y="447.888"/>
      <point x="390.093" y="434.819" type="curve" smooth="yes"/>
      <point x="387.968" y="430.825"/>
      <point x="377.473" y="409.875"/>
      <point x="363.66" y="397.113" type="curve" smooth="yes"/>
      <point x="351.03" y="385.444"/>
      <point x="338.961" y="384.005"/>
      <point x="333.664" y="384.005" type="curve" smooth="yes"/>
      <point x="326.905" y="384.005"/>
      <point x="321.703" y="386.013"/>
      <point x="317.907" y="388.271" type="curve" smooth="yes"/>
      <point x="303.429" y="396.884"/>
      <point x="290.771" y="396.262"/>
      <point x="287.504" y="396.155" type="curve" smooth="yes"/>
      <point x="286.229" y="396.114"/>
      <point x="284.375" y="395.774"/>
      <point x="278.498" y="387.524" type="curve" smooth="yes"/>
      <point x="277.998" y="386.824"/>
      <point x="276.68" y="384.901"/>
      <point x="274.716" y="381.76" type="curve" smooth="yes"/>
      <point x="251.9" y="345.241"/>
      <point x="248.243" y="339.01"/>
      <point x="245.385" y="328.343" type="curve" smooth="yes"/>
      <point x="243.769" y="322.311"/>
      <point x="242.995" y="315.093"/>
      <point x="242.47" y="304.172" type="curve" smooth="yes"/>
      <point x="240.768" y="268.771"/>
      <point x="256.072" y="239.609"/>
      <point x="250.062" y="195.016" type="curve"/>
      <point x="255.75" y="195" type="line" smooth="yes"/>
      <point x="257.75" y="195"/>
      <point x="258.155" y="195"/>
      <point x="260.606" y="198.277" type="curve" smooth="yes"/>
      <point x="449.913" y="436.802" type="line"/>
      <point x="451.275" y="438.822" type="line"/>
      <point x="425.609" y="459.451"/>
      <point x="419.832" y="486.88"/>
      <point x="427.991" y="521.963" type="curve" smooth="yes"/>
      <point x="428.209" y="522.894"/>
      <point x="428.923" y="525.717"/>
      <point x="429.172" y="526.648" type="curve" smooth="yes"/>
      <point x="433.036" y="541.069"/>
      <point x="442.294" y="579.412"/>
      <point x="499.731" y="622.855" type="curve" smooth="yes"/>
      <point x="506.387" y="627.889"/>
      <point x="509.371" y="630.38"/>
      <point x="516.689" y="634.537" type="curve" smooth="yes"/>
      <point x="526.981" y="640.771"/>
      <point x="538.282" y="645.542"/>
      <point x="549.633" y="645.25" type="curve" smooth="yes"/>
      <point x="552.021" y="645.188"/>
      <point x="561.307" y="645.764"/>
      <point x="570.099" y="638.399" type="curve" smooth="yes"/>
      <point x="571.893" y="637.029"/>
      <point x="579.002" y="631.75"/>
      <point x="581.525" y="618.451" type="curve" smooth="yes"/>
      <point x="581.709" y="617.483" type="line"/>
      <point x="581.734" y="616.475" type="line" smooth="yes"/>
      <point x="581.961" y="615.033"/>
      <point x="582.002" y="615.788"/>
      <point x="582.002" y="615.788" type="curve"/>
      <point x="582.002" y="615.788"/>
      <point x="582.204" y="615.219"/>
      <point x="582.402" y="614.744" type="curve" smooth="yes"/>
      <point x="587.437" y="602.665"/>
      <point x="599.46" y="592.973"/>
      <point x="605.717" y="589.501" type="curve" smooth="yes"/>
      <point x="641.203" y="569.812"/>
      <point x="662.528" y="537.833"/>
      <point x="654.51" y="497.774" type="curve" smooth="yes"/>
      <point x="653.619" y="493.317"/>
      <point x="652.819" y="489.194"/>
      <point x="651.691" y="484.985" type="curve" smooth="yes"/>
      <point x="642.825" y="451.897"/>
      <point x="624.232" y="429.074"/>
      <point x="592.621" y="402.509" type="curve" smooth="yes"/>
      <point x="584.771" y="395.913"/>
      <point x="566.166" y="379.741"/>
      <point x="547.228" y="374.915" type="curve" smooth="yes"/>
      <point x="542.854" y="373.802"/>
      <point x="539.379" y="373.202"/>
      <point x="536.155" y="373.441" type="curve" smooth="yes"/>
      <point x="534.074" y="373.596"/>
      <point x="525.812" y="373.059"/>
      <point x="518.382" y="379.234" type="curve" smooth="yes"/>
      <point x="517.508" y="379.962"/>
      <point x="515.299" y="382.348"/>
      <point x="514.638" y="383.229" type="curve" smooth="yes"/>
      <point x="509.514" y="390.043"/>
      <point x="506.975" y="393.922"/>
    </contour>
  </outline>
</glyph>
